<?xml version="1.0" standalone="no"?>
<!DOCTYPE svg PUBLIC "-//W3C//DTD SVG 1.1//EN" "http://www.w3.org/Graphics/SVG/1.1/DTD/svg11.dtd" >
<svg xmlns="http://www.w3.org/2000/svg" xmlns:xlink="http://www.w3.org/1999/xlink" version="1.1">
<metadata>
Created by FontForge 20170910 at Fri Jan 18 19:20:28 2008
 By Jimmy Wärting
Copyright (C) 2000, 2007 Hoefler &#38; Frere-Jones. http://www.typography.com
</metadata>
<defs>
<font id="Archer-Medium" horiz-adv-x="353" >
  <font-face 
    font-family="Archer Medium"
    font-weight="350"
    font-stretch="normal"
    units-per-em="1000"
    panose-1="0 0 0 0 0 0 0 0 0 0"
    ascent="800"
    descent="-200"
    x-height="426"
    cap-height="658"
    bbox="-52 -282 1432 1052"
    underline-thickness="50"
    underline-position="-100"
    stemh="59"
    stemv="69"
    unicode-range="U+0020-FB04"
  />
<missing-glyph horiz-adv-x="500" 
d="M0 -200v1000h500v-1000h-500zM71 750l179 -390l179 390h-358zM50 -76l172 376l-172 376v-752zM450 676l-172 -376l172 -376v752zM250 240l-179 -390h358z" />
    <glyph glyph-name="f_b" unicode="fb" horiz-adv-x="863" 
d="M469 736v-366c36 35 78 64 146 64c111 0 203 -89 203 -221c0 -122 -88 -221 -214 -221c-54 0 -103 21 -140 52l-21 -45h-43v366h-218v-305h81v-60h-219v60h69v305h-76v61h76v118c0 63 17 112 50 146c33 33 77 50 131 50c46 0 85 -14 114 -41l18 37h43zM600 52
c82 0 147 64 147 160c0 97 -61 162 -144 162c-55 0 -99 -28 -134 -64v-210c33 -26 76 -48 131 -48zM361 609c0 12 4 24 11 34l-4 5c-19 19 -47 31 -77 31c-31 0 -58 -11 -76 -30c-22 -22 -33 -58 -33 -99v-124h218v122v12c-23 5 -39 25 -39 49z" />
    <glyph glyph-name="f_f" unicode="ff" horiz-adv-x="606" 
d="M182 426h222v127c0 69 12 115 45 148c25 24 55 39 97 39c46 0 79 -22 79 -57c0 -28 -20 -47 -44 -47c-28 0 -44 18 -52 42c-13 -3 -25 -9 -33 -20c-15 -18 -23 -47 -23 -89v-143h110v-61h-110v-305h83v-60h-219v60h67v305h-222v-305h81v-60h-219v60h69v305h-76v61h76v107
c0 68 14 118 45 149c24 24 53 38 94 38c46 0 78 -22 78 -57c0 -28 -19 -47 -43 -47c-27 0 -44 16 -52 42c-11 -2 -21 -8 -29 -18c-16 -17 -24 -47 -24 -91v-123z" />
    <glyph glyph-name="f_h" unicode="fh" horiz-adv-x="857" 
d="M400 60v305h-218v-305h81v-60h-219v60h69v305h-76v61h76v118c0 63 17 112 50 146c33 33 77 50 131 50c46 0 85 -14 114 -41l18 37h43v-387c41 47 97 85 157 85c51 0 86 -17 109 -46c19 -25 28 -59 28 -98v-230h68v-60h-204v60h67v216c0 31 -6 52 -19 67
c-14 18 -38 27 -66 27c-53 0 -102 -33 -140 -75v-235h67v-60h-204v60h68zM361 609c0 12 4 24 11 34l-4 5c-19 19 -47 31 -77 31c-31 0 -58 -11 -76 -30c-22 -22 -33 -58 -33 -99v-124h218v122v12c-23 5 -39 25 -39 49z" />
    <glyph glyph-name="fi" unicode="fi" horiz-adv-x="570" 
d="M464 426v-366h72v-60h-210v60h69v305h-213v-305h80v-60h-218v60h69v305h-76v61h76v114c0 73 19 126 54 159c28 26 64 41 107 41c62 0 99 -35 99 -72c0 -28 -21 -50 -48 -50c-30 0 -51 28 -48 58l2 1c-5 1 -11 1 -15 1c-17 0 -38 -8 -54 -28c-17 -20 -28 -51 -28 -94v-130
h282z" />
    <glyph glyph-name="f_j" unicode="fj" horiz-adv-x="539" 
d="M395 365h-213v-305h80v-60h-218v60h69v305h-76v61h76v114c0 73 19 126 54 159c28 26 64 41 107 41c62 0 99 -35 99 -72c0 -28 -21 -50 -48 -50c-30 0 -51 28 -48 58l2 1c-5 1 -11 1 -15 1c-17 0 -38 -8 -54 -28c-17 -20 -28 -51 -28 -94v-130h282v-416
c0 -50 -7 -90 -19 -121c-23 -62 -69 -89 -126 -89c-58 0 -90 31 -90 65c0 24 18 47 45 47c25 0 42 -19 42 -45c0 -2 0 -7 -1 -11h7c30 0 51 21 63 59c7 23 10 53 10 87v363z" />
    <glyph glyph-name="f_k" unicode="fk" horiz-adv-x="824" 
d="M469 736v-522l178 154h-84v58h242v-61h-76l-134 -115l131 -190h79v-60h-118l-143 212l-75 -64v-89h69v-59h-206v60h68v305h-218v-305h81v-60h-219v60h69v305h-76v61h76v118c0 63 17 112 50 146c33 33 77 50 131 50c46 0 85 -14 114 -41l18 37h43zM182 550v-124h218v122
v12c-23 5 -39 25 -39 49c0 12 4 24 11 34l-4 5c-19 19 -47 31 -77 31c-31 0 -58 -11 -76 -30c-22 -22 -33 -58 -33 -99z" />
    <glyph glyph-name="fl" unicode="fl" horiz-adv-x="573" 
d="M329 60h71v305h-218v-305h81v-60h-219v60h69v305h-76v61h76v118c0 63 17 112 50 146c33 33 77 50 131 50c46 0 85 -14 114 -41l18 37h43v-676h72v-60h-212v60zM291 679c-31 0 -58 -11 -76 -30c-22 -22 -33 -58 -33 -99v-124h218v122v12c-23 5 -39 25 -39 49
c0 12 4 24 11 34l-4 5c-19 19 -47 31 -77 31z" />
    <glyph glyph-name="f_f_b" unicode="ffb" horiz-adv-x="1150" 
d="M756 736v-366c36 35 78 64 146 64c111 0 203 -89 203 -221c0 -122 -88 -221 -214 -221c-54 0 -103 21 -140 52l-21 -45h-43v366h-218v-305h82v-60h-218v60h67v305h-218v-305h81v-60h-219v60h69v305h-76v61h76v112c0 56 12 102 45 136c27 29 63 46 114 46
c23 0 44 -4 61 -11c29 -12 48 -34 48 -63c0 -27 -17 -44 -43 -44c-28 0 -49 24 -49 56c-6 1 -12 2 -18 2c-29 0 -52 -11 -66 -30c-18 -24 -23 -52 -23 -87v-117h218v118c0 63 17 112 50 146c32 33 77 50 131 50c46 0 85 -14 114 -41l18 37h43zM887 52c82 0 147 64 147 160
c0 97 -61 162 -144 162c-55 0 -99 -28 -134 -64v-210c33 -26 76 -48 131 -48zM648 609c0 12 4 24 11 34l-4 5c-19 19 -47 31 -77 31c-31 0 -58 -11 -77 -30c-21 -22 -32 -58 -32 -99v-124h218v122v12c-23 4 -39 25 -39 49z" />
    <glyph glyph-name="f_f_h" unicode="ffh" horiz-adv-x="1144" 
d="M756 736v-387c41 47 96 85 157 85c50 0 86 -17 108 -46c19 -25 29 -59 29 -98v-230h68v-60h-204v60h67v216c0 31 -7 52 -19 67c-15 18 -38 27 -66 27c-54 0 -103 -33 -140 -75v-235h67v-60h-204v60h68v305h-218v-305h81v-60h-217v60h67v305h-218v-305h81v-60h-219v60h69
v305h-76v61h76v112c0 56 12 102 45 136c27 29 63 46 114 46c23 0 44 -4 61 -11c29 -12 48 -34 48 -63c0 -27 -17 -44 -43 -44c-28 0 -49 24 -49 56c-6 1 -12 2 -18 2c-29 0 -52 -11 -66 -30c-18 -24 -23 -52 -23 -87v-117h218v118c0 63 17 112 50 146c32 33 77 50 131 50
c46 0 85 -14 114 -41l18 37h43zM469 550v-124h218v122v12c-23 4 -39 25 -39 49c0 12 4 24 11 34l-4 5c-19 19 -47 31 -77 31c-31 0 -58 -11 -77 -30c-21 -22 -32 -58 -32 -99z" />
    <glyph glyph-name="f_f_i" unicode="ffi" horiz-adv-x="857" 
d="M660 668c0 -28 -21 -50 -48 -50c-31 0 -51 29 -48 58c-5 1 -10 2 -14 2c-15 0 -34 -7 -50 -24c-17 -18 -31 -51 -31 -98v-130h282v-366h72v-60h-210v60h69v305h-213v-305h80v-60h-216v60h67v305h-218v-305h81v-60h-219v60h69v305h-76v61h76v112c0 56 12 102 45 136
c27 29 63 46 114 46c23 0 44 -4 61 -11c29 -12 48 -34 48 -63c0 -27 -17 -44 -43 -44c-28 0 -49 24 -49 55c-6 2 -12 3 -18 3c-29 0 -52 -11 -66 -30c-18 -24 -23 -52 -23 -87v-117h218v114c0 73 19 126 54 159c28 26 64 41 107 41c62 0 99 -35 99 -72z" />
    <glyph glyph-name="f_f_j" unicode="ffj" horiz-adv-x="826" 
d="M751 426v-416c0 -50 -7 -90 -19 -121c-24 -62 -69 -89 -126 -89c-58 0 -90 31 -90 65c0 24 18 47 45 47c25 0 42 -19 42 -45c0 -2 0 -7 -1 -11h7c30 0 51 21 62 59c8 23 11 53 11 87v363h-213v-305h80v-60h-216v60h67v305h-218v-305h81v-60h-219v60h69v305h-76v61h76v112
c0 56 12 102 45 136c27 29 63 46 114 46c23 0 44 -4 61 -11c29 -12 48 -34 48 -63c0 -27 -17 -44 -43 -44c-28 0 -49 24 -49 55c-6 2 -12 3 -18 3c-29 0 -52 -11 -66 -30c-18 -24 -23 -52 -23 -87v-117h218v114c0 73 19 126 54 159c28 26 64 41 107 41c62 0 99 -35 99 -72
c0 -28 -21 -50 -48 -50c-31 0 -51 29 -48 58c-5 1 -10 2 -14 2c-15 0 -34 -7 -50 -24c-17 -18 -31 -51 -31 -98v-130h282z" />
    <glyph glyph-name="f_f_k" unicode="ffk" horiz-adv-x="1111" 
d="M756 736v-522l177 154h-83v58h241v-61h-75l-135 -115l132 -190h78v-60h-117l-143 212l-75 -64v-89h69v-59h-206v60h68v305h-218v-305h81v-60h-217v60h67v305h-218v-305h81v-60h-219v60h69v305h-76v61h76v112c0 56 12 102 45 136c27 29 63 46 114 46c23 0 44 -4 61 -11
c29 -12 48 -34 48 -63c0 -27 -17 -44 -43 -44c-28 0 -49 24 -49 56c-6 1 -12 2 -18 2c-29 0 -52 -11 -66 -30c-18 -24 -23 -52 -23 -87v-117h218v118c0 63 17 112 50 146c32 33 77 50 131 50c46 0 85 -14 114 -41l18 37h43zM469 550v-124h218v122v12c-23 4 -39 25 -39 49
c0 12 4 24 11 34l-4 5c-19 19 -47 31 -77 31c-31 0 -58 -11 -77 -30c-21 -22 -32 -58 -32 -99z" />
    <glyph glyph-name="f_f_l" unicode="ffl" horiz-adv-x="860" 
d="M182 543v-117h218v118c0 63 17 112 50 146c32 33 77 50 131 50c46 0 85 -14 114 -41l18 37h43v-676h72v-60h-212v60h71v305h-218v-305h81v-60h-217v60h67v305h-218v-305h81v-60h-219v60h69v305h-76v61h76v112c0 56 12 102 45 136c27 29 63 46 114 46c23 0 44 -4 61 -11
c29 -12 48 -34 48 -63c0 -27 -17 -44 -43 -44c-28 0 -49 24 -49 56c-6 1 -12 2 -18 2c-29 0 -52 -11 -66 -30c-18 -24 -23 -52 -23 -87zM469 550v-124h218v122v12c-23 4 -39 25 -39 49c0 12 4 24 11 34l-4 5c-19 19 -47 31 -77 31c-31 0 -58 -11 -77 -30
c-21 -22 -32 -58 -32 -99z" />
    <glyph glyph-name=".notdef" horiz-adv-x="500" 
d="M0 -200v1000h500v-1000h-500zM71 750l179 -390l179 390h-358zM50 -76l172 376l-172 376v-752zM450 676l-172 -376l172 -376v752zM250 240l-179 -390h358z" />
    <glyph glyph-name="A" unicode="A" horiz-adv-x="706" 
d="M18 0v66h63l197 527h-75v65h300v-65h-75l197 -527h63v-66h-220v65h77l-59 162h-269l-59 -162h80v-65h-220zM239 290h225l-112 307z" />
    <glyph glyph-name="B" unicode="B" horiz-adv-x="605" 
d="M47 0v66h84v526h-84v66h264c156 0 221 -79 221 -167c0 -79 -49 -132 -120 -154c88 -23 139 -72 139 -157c0 -104 -83 -180 -228 -180h-276zM205 65h120c97 0 152 49 152 119c0 79 -65 121 -173 121h-99v-240zM205 366h97c104 0 156 48 156 118c0 68 -52 109 -149 109
h-104v-227z" />
    <glyph glyph-name="C" unicode="C" horiz-adv-x="702" 
d="M393 -12c-203 0 -337 157 -337 338c0 203 156 344 334 344c138 0 246 -83 246 -162c0 -37 -25 -65 -58 -65c-31 0 -55 23 -55 53c0 19 12 35 25 40c-18 29 -75 66 -159 66c-150 0 -257 -127 -257 -275c0 -141 106 -271 261 -271c79 0 145 30 204 85l44 -53
c-66 -66 -157 -100 -248 -100z" />
    <glyph glyph-name="D" unicode="D" horiz-adv-x="728" 
d="M47 0v66h84v526h-84v66h247c229 0 378 -127 378 -322c0 -199 -139 -336 -381 -336h-244zM206 66h94c197 0 296 110 296 271c0 158 -118 255 -304 255h-86v-526z" />
    <glyph glyph-name="E" unicode="E" horiz-adv-x="588" 
d="M47 0v66h84v526h-84v66h478v-161h-71v96h-248v-226h215v-64h-215v-238h248v96h72v-161h-479z" />
    <glyph glyph-name="F" unicode="F" horiz-adv-x="567" 
d="M47 0v66h84v526h-84v66h471v-161h-72v96h-240v-238h211v-64h-211v-225h91v-66h-250z" />
    <glyph glyph-name="G" unicode="G" horiz-adv-x="737" 
d="M376 -12c-166 0 -320 126 -320 336c0 208 159 346 341 346c148 0 247 -82 247 -152c0 -37 -24 -62 -56 -62c-31 0 -54 23 -54 53c0 17 7 30 17 38c-25 27 -82 55 -156 55c-156 0 -263 -122 -263 -278c0 -162 116 -270 252 -270c75 0 138 23 195 63v140h-182v63h255v-320
h-71v57c-57 -43 -122 -69 -205 -69z" />
    <glyph glyph-name="H" unicode="H" horiz-adv-x="776" 
d="M47 0v66h84v526h-84v66h245v-66h-86v-222h364v222h-86v66h245v-66h-84v-526h84v-66h-245v66h86v238h-364v-238h86v-66h-245z" />
    <glyph glyph-name="I" unicode="I" horiz-adv-x="348" 
d="M48 0v66h89v526h-89v66h252v-66h-89v-526h89v-66h-252z" />
    <glyph glyph-name="J" unicode="J" horiz-adv-x="529" 
d="M216 -12c-102 0 -186 71 -186 161c0 46 26 77 62 77c26 0 51 -21 51 -51c0 -22 -14 -41 -36 -46c3 -30 41 -72 109 -72c34 0 65 11 87 34c27 26 38 71 38 133v368h-101v66h254v-66h-79v-369c0 -77 -19 -142 -58 -181c-35 -35 -82 -54 -141 -54z" />
    <glyph glyph-name="K" unicode="K" horiz-adv-x="675" 
d="M47 0v66h84v526h-84v66h245v-65h-86v-287l285 287h-88v65h254v-66h-74l-214 -213l210 -313h83v-66h-131l-217 330l-108 -108v-156h86v-66h-245z" />
    <glyph glyph-name="L" unicode="L" horiz-adv-x="554" 
d="M47 0v66h84v526h-84v66h250v-66h-91v-527h228v101h71v-166h-458z" />
    <glyph glyph-name="M" unicode="M" horiz-adv-x="882" 
d="M42 0v66h86l24 526h-88v66h160l215 -447l216 447h159v-66h-88l24 -526h85v-66h-242v66h84l-17 460l-212 -433h-20l-212 433l-16 -460h83v-66h-241z" />
    <glyph glyph-name="N" unicode="N" horiz-adv-x="764" 
d="M606 -3l-403 531v-462h86v-66h-242v66h84v526h-84v66h149l380 -501v435h-87v66h239v-66h-81v-594z" />
    <glyph glyph-name="O" unicode="O" horiz-adv-x="777" 
d="M387 -12c-192 0 -331 150 -331 340c0 193 141 342 335 342c191 0 331 -150 331 -340c0 -193 -142 -342 -335 -342zM389 56c150 0 256 118 256 272c0 155 -106 274 -256 274c-151 0 -257 -118 -257 -272c0 -155 106 -274 257 -274z" />
    <glyph glyph-name="P" unicode="P" horiz-adv-x="581" 
d="M47 0v66h84v526h-84v66h253c138 0 243 -80 243 -207c0 -135 -98 -214 -244 -214c-36 0 -74 1 -93 2v-173h89v-66h-248zM303 302c102 0 165 57 165 148c0 90 -73 142 -167 142h-95v-288c20 -1 55 -2 97 -2z" />
    <glyph glyph-name="Q" unicode="Q" horiz-adv-x="777" 
d="M655 -139c-91 0 -157 62 -213 96c-30 19 -63 30 -99 36c-71 11 -133 39 -181 83c-65 58 -106 151 -106 252c0 193 141 342 335 342c191 0 331 -150 331 -340c0 -163 -99 -290 -243 -322c19 -7 38 -18 56 -29c46 -30 75 -47 117 -47c30 0 50 5 81 26l34 -60
c-37 -29 -74 -37 -112 -37zM389 56c150 0 256 118 256 272c0 155 -106 274 -256 274c-151 0 -257 -118 -257 -272c0 -83 31 -157 83 -206c45 -43 104 -68 174 -68z" />
    <glyph glyph-name="Q.alt" horiz-adv-x="777" 
d="M588 -110l-77 121c-38 -15 -80 -23 -124 -23c-192 0 -331 150 -331 340c0 193 141 342 335 342c191 0 331 -150 331 -340c0 -122 -59 -228 -151 -289l74 -117zM389 56c30 0 59 4 85 13l-74 117l58 36l77 -123c69 47 110 130 110 229c0 155 -106 274 -256 274
c-151 0 -257 -118 -257 -272c0 -155 106 -274 257 -274z" />
    <glyph glyph-name="R" unicode="R" horiz-adv-x="618" 
d="M47 0v66h84v526h-84v66h250c145 0 239 -73 239 -191c0 -90 -58 -153 -141 -180l138 -221h79v-66h-130l-162 269c-12 -1 -25 -2 -38 -2c-26 0 -57 1 -76 2v-203h86v-66h-245zM286 332c100 0 175 46 175 133c0 83 -66 127 -168 127h-87v-258c20 -1 48 -2 80 -2z" />
    <glyph glyph-name="S" unicode="S" horiz-adv-x="549" 
d="M274 -11c-129 0 -219 72 -219 136c0 38 23 63 53 63c31 0 52 -23 52 -49c0 -18 -7 -32 -16 -44c22 -22 71 -41 131 -41c88 0 141 45 141 116c0 68 -62 98 -137 127c-113 43 -199 85 -199 198c0 101 80 175 203 175c108 0 196 -62 196 -130c0 -37 -24 -58 -52 -58
c-32 0 -53 24 -53 51c0 16 7 29 14 38c-18 20 -66 33 -107 33c-79 0 -127 -43 -127 -103c0 -70 62 -99 145 -131c108 -42 191 -83 191 -194c0 -116 -92 -187 -216 -187z" />
    <glyph glyph-name="T" unicode="T" horiz-adv-x="631" 
d="M189 0v66h89v529h-165v-106h-71v169h547v-169h-71v106h-165v-529h89v-66h-253z" />
    <glyph glyph-name="U" unicode="U" horiz-adv-x="710" 
d="M354 -12c-150 0 -238 85 -238 239v365h-83v66h243v-66h-87v-360c0 -117 61 -176 166 -176s167 56 167 174v362h-87v66h242v-66h-83v-362c0 -156 -92 -242 -240 -242z" />
    <glyph glyph-name="V" unicode="V" horiz-adv-x="696" 
d="M327 -10l-244 602h-65v66h222v-66h-75l185 -475l185 475h-79v66h222v-66h-64l-244 -602h-43z" />
    <glyph glyph-name="W" unicode="W" horiz-adv-x="990" 
d="M284 -10l-187 602h-76v66h238v-66h-83l138 -461l165 448h41l166 -447l134 460h-86v66h237v-66h-76l-184 -602h-43l-170 453l-171 -453h-43z" />
    <glyph glyph-name="X" unicode="X" horiz-adv-x="721" 
d="M40 0v66h69l208 271l-193 255h-72v66h229v-64h-72l153 -214l156 214h-77v64h229v-66h-71l-194 -254l207 -272h69v-66h-227v64h73l-167 231l-170 -231h77v-64h-227z" />
    <glyph glyph-name="Y" unicode="Y" horiz-adv-x="642" 
d="M191 0v66h92v197l-194 329h-70v66h221v-66h-68l150 -265l151 265h-71v66h222v-66h-71l-195 -328v-198h93v-66h-260z" />
    <glyph glyph-name="Z" unicode="Z" horiz-adv-x="606" 
d="M45 0v36l403 560h-314v-104h-68v166h488v-36l-403 -560h343v104h67v-166h-516z" />
    <glyph glyph-name="a" unicode="a" horiz-adv-x="492" 
d="M186 -8c-82 0 -141 49 -141 122c0 78 69 129 164 129c46 0 101 -12 123 -20v59c0 24 -7 45 -19 60c-19 21 -50 34 -93 34c-34 0 -52 -9 -66 -18c3 -7 6 -16 6 -25c0 -25 -18 -44 -45 -44c-26 0 -44 20 -44 46c0 49 56 99 158 99c63 0 109 -19 137 -50
c22 -24 32 -56 32 -92v-232h69v-60h-133v54c-35 -34 -90 -62 -148 -62zM204 48c51 0 95 26 128 59v71c-32 9 -74 17 -115 17c-68 0 -102 -32 -102 -76c0 -41 31 -71 89 -71z" />
    <glyph glyph-name="b" unicode="b" horiz-adv-x="545" 
d="M285 -8c-54 0 -103 21 -140 52l-21 -45h-43v673h-68v60h137v-362c36 35 78 64 146 64c111 0 203 -89 203 -221c0 -122 -88 -221 -214 -221zM281 52c82 0 147 64 147 160c0 97 -61 162 -144 162c-55 0 -99 -28 -134 -64v-210c33 -26 76 -48 131 -48z" />
    <glyph glyph-name="c" unicode="c" horiz-adv-x="473" 
d="M268 -8c-129 0 -226 94 -226 220c0 118 94 222 213 222c97 0 174 -64 174 -128c0 -32 -23 -58 -54 -58c-23 0 -46 17 -46 47c0 14 8 27 21 35c-11 26 -53 45 -96 45c-63 0 -141 -55 -141 -164c0 -93 66 -158 163 -158c48 0 92 15 142 47l-6 -67c-43 -29 -98 -41 -144 -41
z" />
    <glyph glyph-name="d" unicode="d" horiz-adv-x="550" 
d="M246 -8c-113 0 -202 88 -202 218c0 121 83 224 211 224c53 0 99 -20 132 -51v289h-80v60h149v-672h69v-60h-136v60c-36 -40 -80 -68 -143 -68zM256 52c55 0 97 28 131 64v209c-32 27 -72 49 -128 49c-84 0 -143 -69 -143 -163c-1 -95 59 -159 140 -159z" />
    <glyph glyph-name="e" unicode="e" horiz-adv-x="485" 
d="M441 193h-328c10 -94 72 -140 164 -140c57 0 100 18 150 47l-6 -67c-44 -27 -99 -41 -153 -41c-136 0 -227 90 -227 220c0 118 79 222 209 222c127 0 195 -95 195 -201c0 -16 -1 -29 -4 -40zM246 375c-65 0 -122 -46 -132 -127h261c-5 75 -48 127 -129 127z" />
    <glyph glyph-name="f" unicode="f" horiz-adv-x="318" 
d="M291 636c-28 0 -44 18 -52 42c-13 -3 -25 -9 -33 -20c-15 -18 -23 -47 -23 -89v-143h110v-61h-110v-305h83v-60h-221v60h69v305h-76v61h76v127c0 69 12 115 45 148c25 24 55 39 97 39c46 0 78 -22 78 -57c0 -28 -19 -47 -43 -47z" />
    <glyph glyph-name="g" unicode="g" horiz-adv-x="556" 
d="M457 365v-379c0 -53 -14 -94 -39 -124c-36 -44 -96 -62 -162 -62c-67 0 -119 21 -145 46c-15 15 -22 32 -22 49c0 29 21 52 50 52c25 0 42 -19 42 -43c0 -10 -3 -20 -9 -28c13 -8 41 -17 84 -17c42 0 82 11 107 42c16 20 25 46 25 82v83c-35 -36 -77 -63 -142 -63
c-111 0 -202 88 -202 212c0 115 84 219 211 219c57 0 102 -23 136 -55v47h135v-61h-69zM261 373c-87 0 -145 -68 -145 -157c0 -90 59 -153 141 -153c54 0 97 26 131 62v200c-31 27 -72 48 -127 48z" />
    <glyph glyph-name="h" unicode="h" horiz-adv-x="556" 
d="M99 672h-68v60h137v-383c41 47 97 85 158 85c50 0 86 -17 108 -46c19 -25 28 -59 28 -98v-230h69v-60h-205v60h67v216c0 31 -6 52 -19 67c-14 18 -37 27 -66 27c-53 0 -102 -33 -140 -75v-235h67v-60h-204v60h68v612z" />
    <glyph glyph-name="i" unicode="i" horiz-adv-x="290" 
d="M140 535c-30 0 -55 25 -55 55s26 56 56 56c29 0 54 -26 54 -56s-26 -55 -55 -55zM43 0v60h72v305h-72v61h141v-366h72v-60h-213z" />
    <glyph glyph-name="j" unicode="j" horiz-adv-x="259" 
d="M-52 -135c0 24 18 47 45 47c26 0 43 -19 43 -45c0 -2 -1 -7 -1 -11h6c30 0 52 21 63 59c7 23 11 53 11 87v363h-82v61h151v-416c0 -50 -7 -90 -19 -121c-24 -62 -70 -89 -126 -89c-58 0 -91 31 -91 65zM137 535c-30 0 -55 25 -55 55s26 56 56 56c29 0 54 -26 54 -56
s-25 -55 -55 -55z" />
    <glyph glyph-name="k" unicode="k" horiz-adv-x="524" 
d="M31 0v60h68v612h-68v60h137v-518l178 154h-83v58h241v-61h-76l-134 -115l132 -190h78v-60h-118l-142 212l-76 -64v-89h69v-59h-206z" />
    <glyph glyph-name="l" unicode="l" horiz-adv-x="278" 
d="M33 0v60h72v612h-72v60h141v-672h72v-60h-213z" />
    <glyph glyph-name="m" unicode="m" horiz-adv-x="831" 
d="M41 0v60h68v305h-68v61h134v-79c37 46 93 87 155 87c53 0 87 -19 106 -51c6 -10 10 -21 13 -33c46 47 101 84 157 84c61 0 97 -23 116 -62c10 -23 15 -51 15 -82v-230h68v-60h-203v60h66v217c0 23 -3 40 -8 54c-11 27 -33 39 -67 39c-51 0 -94 -31 -135 -73v-237h66v-60
h-203v60h68v217c0 23 -3 40 -8 54c-11 27 -33 39 -68 39c-52 0 -96 -34 -135 -75v-235h66v-60h-203z" />
    <glyph glyph-name="n" unicode="n" horiz-adv-x="563" 
d="M175 426v-79c40 47 99 87 160 87c55 0 92 -21 113 -55c14 -24 21 -54 21 -89v-230h68v-60h-204v60h67v216c0 23 -3 42 -11 57c-12 25 -36 37 -71 37c-53 0 -102 -33 -140 -75v-235h67v-60h-204v60h68v305h-68v61h134z" />
    <glyph glyph-name="o" unicode="o" horiz-adv-x="526" 
d="M263 -8c-133 0 -219 99 -219 221c0 120 87 221 219 221s219 -100 219 -221s-87 -221 -219 -221zM263 52c87 0 147 66 147 161c0 94 -60 161 -147 161s-147 -67 -147 -161c0 -95 60 -161 147 -161z" />
    <glyph glyph-name="p" unicode="p" horiz-adv-x="555" 
d="M31 -196v60h68v501h-68v61h135v-61c36 40 79 69 143 69c112 0 201 -88 201 -219c0 -120 -83 -223 -210 -223c-50 0 -97 19 -132 49v-177h82v-60h-219zM296 53c83 0 141 68 142 161c1 96 -59 159 -139 159c-55 0 -96 -27 -131 -63v-210c32 -27 73 -47 128 -47z" />
    <glyph glyph-name="q" unicode="q" horiz-adv-x="531" 
d="M308 -196v60h85v192c-36 -36 -78 -64 -146 -64c-111 0 -203 89 -203 221c0 122 88 221 214 221c54 0 103 -21 140 -53l21 45h43v-562h69v-60h-223zM259 53c55 0 99 26 134 62v211c-33 26 -75 47 -131 47c-82 0 -146 -63 -146 -160c0 -96 61 -160 143 -160z" />
    <glyph glyph-name="r" unicode="r" horiz-adv-x="380" 
d="M305 434c42 0 64 -27 64 -56c0 -27 -21 -51 -48 -51c-26 0 -44 17 -51 36c-32 -9 -71 -47 -92 -90v-213h80v-60h-217v60h68v305h-68v61h134v-97c33 59 84 105 130 105z" />
    <glyph glyph-name="s" unicode="s" horiz-adv-x="437" 
d="M376 341c0 -27 -18 -46 -42 -46c-26 0 -46 18 -46 44c0 7 1 16 5 24c-15 10 -43 15 -75 15c-59 0 -93 -31 -93 -62c0 -37 39 -50 109 -68c86 -21 158 -45 158 -128c0 -81 -79 -128 -170 -128c-62 0 -125 20 -154 49c-15 15 -23 32 -23 53c0 25 18 47 43 47
c27 0 46 -18 46 -44c0 -9 -3 -17 -7 -26c14 -11 49 -24 95 -24c58 0 104 25 104 66c0 39 -40 54 -101 69c-103 26 -167 50 -167 129c0 64 60 123 162 123c57 0 108 -18 134 -44c15 -15 22 -31 22 -49z" />
    <glyph glyph-name="t" unicode="t" horiz-adv-x="333" 
d="M200 -8c-45 0 -77 17 -94 50c-8 16 -11 36 -11 59v264h-79v61h79v103l68 27v-130h131v-61h-131v-254c0 -14 2 -24 7 -33c8 -15 24 -22 50 -22c25 0 56 12 80 26l-9 -66c-22 -12 -52 -24 -91 -24z" />
    <glyph glyph-name="u" unicode="u" horiz-adv-x="553" 
d="M228 -8c-56 0 -93 21 -114 57c-13 23 -20 53 -20 87v229h-68v61h137v-277c0 -24 4 -43 12 -57c13 -25 35 -36 70 -36c53 0 100 34 140 75v234h-70v61h139v-366h68v-60h-135v79c-40 -47 -98 -87 -159 -87z" />
    <glyph glyph-name="v" unicode="v" horiz-adv-x="522" 
d="M242 -14l-179 379h-56v61h198v-59h-68l126 -281l125 281h-70v59h197v-61h-56l-179 -379h-38z" />
    <glyph glyph-name="w" unicode="w" horiz-adv-x="696" 
d="M187 -18l-117 383h-63v61h197v-59h-68l77 -269l119 280h37l118 -280l77 269h-72v59h197v-61h-64l-116 -383h-38l-123 290l-124 -290h-37z" />
    <glyph glyph-name="x" unicode="x" horiz-adv-x="503" 
d="M20 0v60h58l136 156l-128 149h-59v61h186v-57h-54l93 -119l94 119h-56v57h185v-61h-59l-127 -147l137 -158h57v-60h-190v56h59l-102 129l-103 -129h62v-56h-189z" />
    <glyph glyph-name="y" unicode="y" horiz-adv-x="513" 
d="M212 -128c-32 -46 -67 -72 -110 -72c-40 0 -74 23 -74 56c0 28 19 44 43 44s39 -18 45 -37c16 6 32 19 51 48c10 15 20 36 32 60l26 53l-160 341h-59v61h199v-59h-67s121 -274 120 -274l122 274h-70v59h196v-61h-58l-201 -432c-11 -23 -22 -43 -35 -61z" />
    <glyph glyph-name="z" unicode="z" horiz-adv-x="450" 
d="M37 0v31l273 338h-195v-83h-61v140h356v-31l-273 -338h216v83h61v-140h-377z" />
    <glyph glyph-name="a.sc" horiz-adv-x="582" 
d="M149 508h285v-59h-75l146 -389h62v-60h-211v59h79l-41 109h-209l-40 -109h79v-59h-209v60h62l146 389h-74v59zM289 453l-82 -225h165z" />
    <glyph glyph-name="b.sc" horiz-adv-x="530" 
d="M199 59h98c72 0 111 35 111 86c0 58 -44 86 -122 86h-87v-172zM199 285h84c74 0 111 34 111 85c0 50 -38 79 -110 79h-85v-164zM294 0h-251v60h86v389h-86v59h242c128 0 180 -59 180 -129c0 -63 -40 -102 -95 -118c67 -18 109 -55 109 -121c0 -82 -63 -140 -185 -140z
" />
    <glyph glyph-name="c.sc" horiz-adv-x="556" 
d="M465 121l42 -47c-51 -53 -125 -84 -201 -84c-156 0 -261 116 -261 264c0 150 112 267 266 267c109 0 192 -67 192 -129c0 -34 -21 -58 -52 -58c-30 0 -50 19 -50 48c0 15 8 27 17 33c-15 18 -53 43 -110 43c-110 0 -191 -86 -191 -203c0 -119 82 -201 189 -201
c64 0 116 25 159 67z" />
    <glyph glyph-name="d.sc" horiz-adv-x="604" 
d="M199 60h73c144 0 216 81 216 200c0 118 -86 189 -222 189h-67v-389zM263 0h-220v60h86v389h-86v59h223c180 0 293 -96 293 -249c0 -154 -106 -259 -296 -259z" />
    <glyph glyph-name="e.sc" horiz-adv-x="512" 
d="M456 0h-413v60h86v389h-86v59h413v-151h-66v92h-191v-164h165v-59h-165v-167h192v91h65v-150z" />
    <glyph glyph-name="f.sc" horiz-adv-x="491" 
d="M289 0h-246v60h86v389h-86v59h411v-151h-66v92h-189v-170h162v-58h-162v-161h90v-60z" />
    <glyph glyph-name="g.sc" horiz-adv-x="589" 
d="M311 458c-115 0 -194 -88 -194 -205c0 -120 86 -201 188 -201c56 0 104 15 144 43v102h-137v58h205v-255h-66v40c-40 -30 -90 -50 -157 -50c-128 0 -249 99 -249 262c0 161 121 269 270 269c119 0 197 -66 197 -124c0 -34 -21 -57 -51 -57c-29 0 -50 19 -50 47
c0 14 8 26 15 32c-19 18 -60 39 -115 39z" />
    <glyph glyph-name="h.sc" horiz-adv-x="668" 
d="M43 0v60h86v389h-86v59h243v-59h-87v-163h270v163h-87v59h243v-59h-86v-389h86v-60h-243v60h87v165h-270v-165h87v-60h-243z" />
    <glyph glyph-name="i.sc" horiz-adv-x="333" 
d="M290 0h-247v60h89v389h-89v59h247v-59h-89v-389h89v-60z" />
    <glyph glyph-name="j.sc" horiz-adv-x="447" 
d="M180 54c25 0 48 7 64 25c20 21 29 54 29 100v270h-89v59h238v-59h-80v-271c0 -62 -16 -113 -47 -144c-29 -30 -68 -44 -115 -44c-86 0 -155 58 -155 131c0 38 22 64 55 64c25 0 47 -20 47 -47c0 -18 -11 -35 -27 -40c5 -18 32 -44 80 -44z" />
    <glyph glyph-name="k.sc" horiz-adv-x="587" 
d="M496 448l-166 -165l155 -223h83v-60h-126l-162 237l-80 -78v-99h85v-60h-242v60h88v389h-88v59h235v-59h-78v-213l216 213h-75v59h219v-60h-64z" />
    <glyph glyph-name="l.sc" horiz-adv-x="483" 
d="M385 60v97h66v-157h-408v60h86v389h-86v59h245v-59h-89v-389h186z" />
    <glyph glyph-name="m.sc" horiz-adv-x="742" 
d="M534 508h154v-59h-86l19 -389h86v-60h-242v60h86l-12 332l-159 -315h-20l-160 315l-12 -332h88v-60h-241v60h86l17 389h-86v59h156l164 -323z" />
    <glyph glyph-name="n.sc" horiz-adv-x="656" 
d="M190 508l284 -371v312h-86v59h238v-59h-86v-452h-44l-300 395v-332h85v-60h-238v60h86v389h-86v59h147z" />
    <glyph glyph-name="o.sc" horiz-adv-x="614" 
d="M307 521c156 0 261 -118 261 -265c0 -149 -105 -266 -262 -266c-156 0 -261 117 -261 266c0 147 106 265 262 265zM306 54c111 0 191 81 191 201c0 118 -80 202 -190 202c-111 0 -190 -83 -190 -202c0 -120 80 -201 189 -201z" />
    <glyph glyph-name="p.sc" horiz-adv-x="498" 
d="M43 508h227c109 0 193 -62 193 -161c0 -109 -79 -169 -197 -169c-24 0 -53 0 -67 1v-119h88v-60h-244v60h86v389h-86v59zM271 237c76 0 122 42 122 109c0 64 -53 103 -124 103h-70v-210c14 -1 44 -2 72 -2z" />
    <glyph glyph-name="q.sc" horiz-adv-x="614" 
d="M505 -110c-74 0 -122 46 -166 74c-24 16 -45 22 -74 28c-55 12 -102 32 -141 69c-49 46 -79 117 -79 195c0 147 106 265 262 265s261 -118 261 -265c0 -122 -72 -221 -183 -250c10 -4 21 -10 35 -19c30 -20 51 -32 81 -32c23 0 41 6 67 24l32 -55
c-29 -26 -60 -34 -95 -34zM306 54c109 0 191 85 191 201c0 118 -80 202 -190 202c-111 0 -190 -83 -190 -202c0 -61 23 -114 58 -149c33 -33 79 -52 131 -52z" />
    <glyph glyph-name="q.sc_alt" horiz-adv-x="614" 
d="M568 256c0 -94 -41 -174 -111 -222l55 -86l-53 -33l-58 91c-29 -10 -61 -16 -95 -16c-156 0 -261 117 -261 266c0 147 106 265 262 265s261 -118 261 -265zM497 255c0 118 -80 202 -190 202c-111 0 -190 -83 -190 -202c0 -120 80 -201 189 -201c21 0 41 3 59 8l-53 85
l53 35l57 -91c46 35 75 92 75 164z" />
    <glyph glyph-name="r.sc" horiz-adv-x="545" 
d="M271 449h-72v-187c19 -1 46 -2 71 -2c76 0 129 35 129 97c0 59 -49 92 -128 92zM199 201v-141h85v-60h-241v60h86v389h-86v59h231c118 0 195 -54 195 -150c0 -68 -43 -118 -105 -140l94 -158h76v-60h-126l-113 202c-17 -2 -28 -2 -36 -2c-16 0 -42 0 -60 1z" />
    <glyph glyph-name="s.sc" horiz-adv-x="470" 
d="M316 407c0 13 5 25 10 31c-13 13 -49 24 -87 24c-63 0 -104 -30 -104 -76c0 -51 59 -72 115 -93c88 -33 172 -62 172 -154c0 -96 -81 -149 -188 -149c-108 0 -187 56 -187 114c0 34 18 56 48 56c29 0 50 -21 50 -46c0 -13 -5 -26 -11 -35c16 -15 53 -30 102 -30
c72 0 117 31 117 84c0 50 -62 72 -116 92c-92 33 -173 62 -173 155c0 83 71 141 178 141c98 0 171 -49 171 -109c0 -32 -21 -51 -46 -51c-32 0 -51 22 -51 46z" />
    <glyph glyph-name="t.sc" horiz-adv-x="533" 
d="M143 0v60h88v389h-129v-95h-65v154h459v-154h-66v95h-129v-389h88v-60h-246z" />
    <glyph glyph-name="u.sc" horiz-adv-x="614" 
d="M178 449v-262c0 -87 50 -137 129 -137c80 0 130 48 130 136v263h-85v59h235v-59h-81v-260c0 -130 -78 -200 -200 -200c-123 0 -197 68 -197 197v263h-81v59h235v-59h-85z" />
    <glyph glyph-name="v.sc" horiz-adv-x="562" 
d="M258 -8l-186 457h-62v59h213v-59h-77l137 -351l138 351h-77v59h208v-59h-61l-187 -457h-46z" />
    <glyph glyph-name="w.sc" horiz-adv-x="785" 
d="M222 -10l-140 459h-71v59h225v-59h-80l98 -336l125 329h33l125 -328l97 335h-80v59h220v-59h-71l-140 -459h-45l-126 331l-125 -331h-45z" />
    <glyph glyph-name="x.sc" horiz-adv-x="574" 
d="M550 61v-61h-216v59h70l-120 162l-121 -162h78v-59h-218v61h66l155 199l-145 189h-67v59h217v-59h-70l109 -150l110 150h-70v59h214v-59h-71l-143 -189l156 -199h66z" />
    <glyph glyph-name="y.sc" horiz-adv-x="529" 
d="M523 508v-59h-66l-158 -258v-131h88v-60h-245v60h87v131l-157 258h-66v59h217v-59h-76l119 -202l120 202h-77v59h214z" />
    <glyph glyph-name="z.sc" horiz-adv-x="498" 
d="M44 0v39l312 411h-236v-93h-63v151h398v-38l-312 -411h250v92h64v-151h-413z" />
    <glyph glyph-name="Aacute" unicode="&#xc1;" horiz-adv-x="706" 
d="M18 0v66h63l197 527h-75v65h300v-65h-75l197 -527h63v-66h-220v65h77l-59 162h-269l-59 -162h80v-65h-220zM239 290h225l-112 307zM323 717l-19 24l121 126c13 14 28 23 43 23c21 0 40 -16 40 -43c0 -14 -13 -31 -34 -44z" />
    <glyph glyph-name="aacute" unicode="&#xe1;" horiz-adv-x="492" 
d="M186 -8c-82 0 -141 49 -141 122c0 78 69 129 164 129c46 0 101 -12 123 -20v59c0 24 -7 45 -19 60c-19 21 -50 34 -93 34c-34 0 -52 -9 -66 -18c3 -7 6 -16 6 -25c0 -25 -18 -44 -45 -44c-26 0 -44 20 -44 46c0 49 56 99 158 99c63 0 109 -19 137 -50
c22 -24 32 -56 32 -92v-232h69v-60h-133v54c-35 -34 -90 -62 -148 -62zM204 48c51 0 95 26 128 59v71c-32 9 -74 17 -115 17c-68 0 -102 -32 -102 -76c0 -41 31 -71 89 -71zM211 503l-19 24l121 126c13 14 28 23 43 23c21 0 40 -16 40 -43c0 -14 -13 -31 -34 -44z" />
    <glyph glyph-name="aacute.sc" horiz-adv-x="582" 
d="M149 508h285v-59h-75l146 -389h62v-60h-211v59h79l-41 109h-209l-40 -109h79v-59h-209v60h62l146 389h-74v59zM289 453l-82 -225h165zM261 573l-19 24l121 126c13 14 28 23 43 23c21 0 40 -16 40 -43c0 -14 -13 -31 -34 -44z" />
    <glyph glyph-name="Abreve" unicode="&#x102;" horiz-adv-x="706" 
d="M18 0v66h63l197 527h-75v65h300v-65h-75l197 -527h63v-66h-220v65h77l-59 162h-269l-59 -162h80v-65h-220zM239 290h225l-112 307zM351 722c-73 0 -133 52 -159 136l49 21c22 -57 66 -88 110 -88c48 0 89 35 110 88l49 -21c-25 -84 -86 -136 -159 -136z" />
    <glyph glyph-name="abreve" unicode="&#x103;" horiz-adv-x="492" 
d="M186 -8c-82 0 -141 49 -141 122c0 78 69 129 164 129c46 0 101 -12 123 -20v59c0 24 -7 45 -19 60c-19 21 -50 34 -93 34c-34 0 -52 -9 -66 -18c3 -7 6 -16 6 -25c0 -25 -18 -44 -45 -44c-26 0 -44 20 -44 46c0 49 56 99 158 99c63 0 109 -19 137 -50
c22 -24 32 -56 32 -92v-232h69v-60h-133v54c-35 -34 -90 -62 -148 -62zM204 48c51 0 95 26 128 59v71c-32 9 -74 17 -115 17c-68 0 -102 -32 -102 -76c0 -41 31 -71 89 -71zM239 508c-73 0 -133 52 -159 136l49 21c22 -57 66 -88 110 -88c48 0 89 35 110 88l49 -21
c-25 -84 -86 -136 -159 -136z" />
    <glyph glyph-name="abreve.sc" horiz-adv-x="582" 
d="M149 508h285v-59h-75l146 -389h62v-60h-211v59h79l-41 109h-209l-40 -109h79v-59h-209v60h62l146 389h-74v59zM289 578c-73 0 -133 52 -159 136l49 21c22 -57 66 -88 110 -88c48 0 89 35 110 88l49 -21c-25 -84 -86 -136 -159 -136zM289 453l-82 -225h165z" />
    <glyph glyph-name="Acircumflex" unicode="&#xc2;" horiz-adv-x="706" 
d="M18 0v66h63l197 527h-75v65h300v-65h-75l197 -527h63v-66h-220v65h77l-59 162h-269l-59 -162h80v-65h-220zM239 290h225l-112 307zM229 714l-31 37l154 147l154 -147l-31 -37l-123 93z" />
    <glyph glyph-name="acircumflex" unicode="&#xe2;" horiz-adv-x="492" 
d="M186 -8c-82 0 -141 49 -141 122c0 78 69 129 164 129c46 0 101 -12 123 -20v59c0 24 -7 45 -19 60c-19 21 -50 34 -93 34c-34 0 -52 -9 -66 -18c3 -7 6 -16 6 -25c0 -25 -18 -44 -45 -44c-26 0 -44 20 -44 46c0 49 56 99 158 99c63 0 109 -19 137 -50
c22 -24 32 -56 32 -92v-232h69v-60h-133v54c-35 -34 -90 -62 -148 -62zM204 48c51 0 95 26 128 59v71c-32 9 -74 17 -115 17c-68 0 -102 -32 -102 -76c0 -41 31 -71 89 -71zM117 500l-31 37l154 147l154 -147l-31 -37l-123 93z" />
    <glyph glyph-name="acircumflex.sc" horiz-adv-x="582" 
d="M149 508h285v-59h-75l146 -389h62v-60h-211v59h79l-41 109h-209l-40 -109h79v-59h-209v60h62l146 389h-74v59zM167 570l-31 37l154 147l154 -147l-31 -37l-123 93zM289 453l-82 -225h165z" />
    <glyph glyph-name="Adieresis" unicode="&#xc4;" horiz-adv-x="706" 
d="M18 0v66h63l197 527h-75v65h300v-65h-75l197 -527h63v-66h-220v65h77l-59 162h-269l-59 -162h80v-65h-220zM239 290h225l-112 307zM439 733c-32 0 -57 26 -57 57c0 32 26 58 57 58c32 0 56 -26 56 -58c0 -31 -25 -57 -56 -57zM264 733c-31 0 -56 26 -56 57
c0 32 26 58 57 58s56 -26 56 -58c0 -31 -25 -57 -57 -57z" />
    <glyph glyph-name="adieresis" unicode="&#xe4;" horiz-adv-x="492" 
d="M186 -8c-82 0 -141 49 -141 122c0 78 69 129 164 129c46 0 101 -12 123 -20v59c0 24 -7 45 -19 60c-19 21 -50 34 -93 34c-34 0 -52 -9 -66 -18c3 -7 6 -16 6 -25c0 -25 -18 -44 -45 -44c-26 0 -44 20 -44 46c0 49 56 99 158 99c63 0 109 -19 137 -50
c22 -24 32 -56 32 -92v-232h69v-60h-133v54c-35 -34 -90 -62 -148 -62zM204 48c51 0 95 26 128 59v71c-32 9 -74 17 -115 17c-68 0 -102 -32 -102 -76c0 -41 31 -71 89 -71zM327 519c-32 0 -57 26 -57 57c0 32 26 58 57 58c32 0 56 -26 56 -58c0 -31 -25 -57 -56 -57z
M152 519c-31 0 -56 26 -56 57c0 32 26 58 57 58s56 -26 56 -58c0 -31 -25 -57 -57 -57z" />
    <glyph glyph-name="adieresis.sc" horiz-adv-x="582" 
d="M149 508h285v-59h-75l146 -389h62v-60h-211v59h79l-41 109h-209l-40 -109h79v-59h-209v60h62l146 389h-74v59zM289 453l-82 -225h165zM378 589c-32 0 -57 26 -57 57c0 32 26 58 57 58c32 0 56 -26 56 -58c0 -31 -25 -57 -56 -57zM203 589c-31 0 -56 26 -56 57
c0 32 26 58 57 58s56 -26 56 -58c0 -31 -25 -57 -57 -57z" />
    <glyph glyph-name="AE" unicode="&#xc6;" horiz-adv-x="887" 
d="M-5 0v66h79l261 526h-73v66h562v-161h-71v96h-248v-226h215v-64h-215v-238h248v96h72v-161h-472v66h77v161h-203l-80 -162h71v-65h-223zM257 290h173v303h-24z" />
    <glyph glyph-name="ae" unicode="&#xe6;" horiz-adv-x="762" 
d="M220 375c-34 0 -52 -8 -66 -17c3 -7 6 -16 6 -25c0 -25 -18 -44 -45 -44c-26 0 -44 20 -44 46c0 49 56 99 158 99c58 0 100 -19 126 -51c7 -10 14 -21 18 -32c34 50 88 83 158 83c124 0 192 -95 192 -201c0 -16 -1 -29 -3 -40h-328c10 -96 70 -140 164 -140
c56 0 99 18 149 47l-6 -67c-44 -27 -99 -41 -150 -41c-82 0 -143 31 -180 84c-56 -58 -125 -84 -180 -84c-85 0 -144 49 -144 122c0 78 69 129 164 129c46 0 101 -12 123 -20v55c0 25 -8 47 -20 61c-19 23 -51 36 -92 36zM205 48c47 0 93 18 144 64c-9 20 -14 42 -17 66
c-41 11 -79 17 -115 17c-68 0 -102 -32 -102 -76c0 -41 31 -71 90 -71zM524 375c-64 0 -121 -46 -131 -127h261c-5 75 -49 127 -130 127z" />
    <glyph glyph-name="ae.sc" horiz-adv-x="709" 
d="M242 0v59h84v113h-153l-58 -113h74v-59h-199v60h55l203 389h-68v59h472v-151h-65v92h-191v-164h165v-59h-165v-167h191v91h66v-150h-411zM315 449l-112 -218h123v218h-11z" />
    <glyph glyph-name="AEacute" unicode="&#x1fc;" horiz-adv-x="887" 
d="M462 717l-19 24l121 126c13 14 28 23 43 23c21 0 40 -16 40 -43c0 -14 -13 -31 -34 -44zM-5 0v66h79l261 526h-73v66h562v-161h-71v96h-248v-226h215v-64h-215v-238h248v96h72v-161h-472v66h77v161h-203l-80 -162h71v-65h-223zM257 290h173v303h-24z" />
    <glyph glyph-name="aeacute" unicode="&#x1fd;" horiz-adv-x="762" 
d="M220 375c-34 0 -52 -8 -66 -17c3 -7 6 -16 6 -25c0 -25 -18 -44 -45 -44c-26 0 -44 20 -44 46c0 49 56 99 158 99c58 0 100 -19 126 -51c7 -10 14 -21 18 -32c34 50 88 83 158 83c124 0 192 -95 192 -201c0 -16 -1 -29 -3 -40h-328c10 -96 70 -140 164 -140
c56 0 99 18 149 47l-6 -67c-44 -27 -99 -41 -150 -41c-82 0 -143 31 -180 84c-56 -58 -125 -84 -180 -84c-85 0 -144 49 -144 122c0 78 69 129 164 129c46 0 101 -12 123 -20v55c0 25 -8 47 -20 61c-19 23 -51 36 -92 36zM205 48c47 0 93 18 144 64c-9 20 -14 42 -17 66
c-41 11 -79 17 -115 17c-68 0 -102 -32 -102 -76c0 -41 31 -71 90 -71zM524 375c-64 0 -121 -46 -131 -127h261c-5 75 -49 127 -130 127zM354 503l-19 24l121 126c13 14 28 23 43 23c21 0 40 -16 40 -43c0 -14 -13 -31 -34 -44z" />
    <glyph glyph-name="aeacute.sc" horiz-adv-x="709" 
d="M242 0v59h84v113h-153l-58 -113h74v-59h-199v60h55l203 389h-68v59h472v-151h-65v92h-191v-164h165v-59h-165v-167h191v91h66v-150h-411zM315 449l-112 -218h123v218h-11zM356 573l-19 24l121 126c13 14 28 23 43 23c21 0 40 -16 40 -43c0 -14 -13 -31 -34 -44z" />
    <glyph glyph-name="Agrave" unicode="&#xc0;" horiz-adv-x="706" 
d="M18 0v66h63l197 527h-75v65h300v-65h-75l197 -527h63v-66h-220v65h77l-59 162h-269l-59 -162h80v-65h-220zM239 290h225l-112 307zM381 717l-151 86c-21 13 -34 30 -34 44c0 27 19 43 40 43c15 0 29 -9 43 -23l120 -126z" />
    <glyph glyph-name="agrave" unicode="&#xe0;" horiz-adv-x="492" 
d="M186 -8c-82 0 -141 49 -141 122c0 78 69 129 164 129c46 0 101 -12 123 -20v59c0 24 -7 45 -19 60c-19 21 -50 34 -93 34c-34 0 -52 -9 -66 -18c3 -7 6 -16 6 -25c0 -25 -18 -44 -45 -44c-26 0 -44 20 -44 46c0 49 56 99 158 99c63 0 109 -19 137 -50
c22 -24 32 -56 32 -92v-232h69v-60h-133v54c-35 -34 -90 -62 -148 -62zM204 48c51 0 95 26 128 59v71c-32 9 -74 17 -115 17c-68 0 -102 -32 -102 -76c0 -41 31 -71 89 -71zM269 503l-151 86c-21 13 -34 30 -34 44c0 27 19 43 40 43c15 0 29 -9 43 -23l120 -126z" />
    <glyph glyph-name="agrave.sc" horiz-adv-x="582" 
d="M149 508h285v-59h-75l146 -389h62v-60h-211v59h79l-41 109h-209l-40 -109h79v-59h-209v60h62l146 389h-74v59zM289 453l-82 -225h165zM320 573l-151 86c-21 13 -34 30 -34 44c0 27 19 43 40 43c15 0 29 -9 43 -23l120 -126z" />
    <glyph glyph-name="Amacron" unicode="&#x100;" horiz-adv-x="706" 
d="M18 0v66h63l197 527h-75v65h300v-65h-75l197 -527h63v-66h-220v65h77l-59 162h-269l-59 -162h80v-65h-220zM239 290h225l-112 307zM200 749v63h304v-63h-304z" />
    <glyph glyph-name="amacron" unicode="&#x101;" horiz-adv-x="492" 
d="M186 -8c-82 0 -141 49 -141 122c0 78 69 129 164 129c46 0 101 -12 123 -20v59c0 24 -7 45 -19 60c-19 21 -50 34 -93 34c-34 0 -52 -9 -66 -18c3 -7 6 -16 6 -25c0 -25 -18 -44 -45 -44c-26 0 -44 20 -44 46c0 49 56 99 158 99c63 0 109 -19 137 -50
c22 -24 32 -56 32 -92v-232h69v-60h-133v54c-35 -34 -90 -62 -148 -62zM204 48c51 0 95 26 128 59v71c-32 9 -74 17 -115 17c-68 0 -102 -32 -102 -76c0 -41 31 -71 89 -71zM88 535v63h304v-63h-304z" />
    <glyph glyph-name="amacron.sc" horiz-adv-x="582" 
d="M149 508h285v-59h-75l146 -389h62v-60h-211v59h79l-41 109h-209l-40 -109h79v-59h-209v60h62l146 389h-74v59zM138 605v63h304v-63h-304zM289 453l-82 -225h165z" />
    <glyph glyph-name="Aogonek" unicode="&#x104;" horiz-adv-x="706" 
d="M584 -201c-70 0 -106 38 -106 93c0 45 26 81 64 108h-74v65h77l-59 162h-269l-59 -162h80v-65h-220v66h63l197 527h-75v65h300v-65h-75l197 -527h63v-66h-75c-43 -23 -72 -55 -72 -92c0 -32 18 -52 55 -52c30 0 56 8 78 19l-4 -53c-15 -11 -49 -23 -86 -23zM239 290h225
l-112 307z" />
    <glyph glyph-name="aogonek" unicode="&#x105;" horiz-adv-x="492" 
d="M373 -201c-70 0 -106 38 -106 93c0 46 28 83 67 110v52c-35 -34 -90 -62 -148 -62c-82 0 -141 49 -141 122c0 78 69 129 164 129c46 0 101 -12 123 -20v59c0 24 -7 45 -19 60c-19 21 -50 34 -93 34c-34 0 -52 -9 -66 -18c3 -7 6 -16 6 -25c0 -25 -18 -44 -45 -44
c-26 0 -44 20 -44 46c0 49 56 99 158 99c63 0 109 -19 137 -50c22 -24 32 -56 32 -92v-232h69v-60h-65c-43 -23 -72 -55 -72 -92c0 -32 18 -52 55 -52c30 0 56 8 78 19l-4 -53c-15 -11 -49 -23 -86 -23zM204 48c51 0 95 26 128 59v71c-32 9 -74 17 -115 17
c-68 0 -102 -32 -102 -76c0 -41 31 -71 89 -71z" />
    <glyph glyph-name="aogonek.sc" horiz-adv-x="582" 
d="M473 -201c-70 0 -106 38 -106 93c0 45 26 81 64 108h-75v59h79l-41 109h-209l-40 -109h79v-59h-209v60h62l146 389h-74v59h285v-59h-75l146 -389h62v-60h-65c-43 -23 -72 -55 -72 -92c0 -32 18 -52 55 -52c30 0 56 8 78 19l-4 -53c-15 -11 -49 -23 -86 -23zM289 453
l-82 -225h165z" />
    <glyph glyph-name="Aring" unicode="&#xc5;" horiz-adv-x="706" 
d="M462 733c0 -28 -12 -55 -34 -75h75v-65h-75l197 -527h63v-66h-220v65h77l-59 162h-269l-59 -162h80v-65h-220v66h63l197 527h-75v65h73c-21 20 -34 47 -34 75c0 57 49 105 110 105s110 -48 110 -105zM239 290h225l-112 307zM352 667c33 0 56 27 56 60c0 34 -23 61 -56 61
c-32 0 -55 -27 -55 -61c0 -33 23 -60 55 -60z" />
    <glyph glyph-name="aring" unicode="&#xe5;" horiz-adv-x="492" 
d="M186 -8c-82 0 -141 49 -141 122c0 78 69 129 164 129c46 0 101 -12 123 -20v59c0 24 -7 45 -19 60c-19 21 -50 34 -93 34c-34 0 -52 -9 -66 -18c3 -7 6 -16 6 -25c0 -25 -18 -44 -45 -44c-26 0 -44 20 -44 46c0 49 56 99 158 99c63 0 109 -19 137 -50
c22 -24 32 -56 32 -92v-232h69v-60h-133v54c-35 -34 -90 -62 -148 -62zM204 48c51 0 95 26 128 59v71c-32 9 -74 17 -115 17c-68 0 -102 -32 -102 -76c0 -41 31 -71 89 -71zM239 494c-61 0 -109 49 -109 111s48 111 109 111c62 0 110 -49 110 -111s-48 -111 -110 -111z
M239 545c33 0 56 27 56 60s-23 60 -56 60c-32 0 -55 -27 -55 -60s23 -60 55 -60z" />
    <glyph glyph-name="aring.sc" horiz-adv-x="582" 
d="M224 0h-209v60h62l146 389h-74v59h53c-14 18 -22 40 -22 63c0 62 49 111 110 111s110 -49 110 -111c0 -23 -10 -45 -23 -63h57v-59h-75l146 -389h62v-60h-211v59h79l-41 109h-209l-40 -109h79v-59zM289 453l-82 -225h165zM290 511c32 0 55 27 55 60s-23 61 -55 61
c-33 0 -56 -28 -56 -61s23 -60 56 -60z" />
    <glyph glyph-name="Aringacute" unicode="&#x1fa;" horiz-adv-x="706" 
d="M325 879l-19 24l121 126c13 14 28 23 43 23c21 0 40 -16 40 -43c0 -14 -13 -31 -34 -44zM462 733c0 -28 -12 -55 -34 -75h75v-65h-75l197 -527h63v-66h-220v65h77l-59 162h-269l-59 -162h80v-65h-220v66h63l197 527h-75v65h73c-21 20 -34 47 -34 75c0 57 49 105 110 105
s110 -48 110 -105zM239 290h225l-112 307zM352 667c33 0 56 27 56 60c0 34 -23 61 -56 61c-32 0 -55 -27 -55 -61c0 -33 23 -60 55 -60z" />
    <glyph glyph-name="aringacute" unicode="&#x1fb;" horiz-adv-x="492" 
d="M186 -8c-82 0 -141 49 -141 122c0 78 69 129 164 129c46 0 101 -12 123 -20v59c0 24 -7 45 -19 60c-19 21 -50 34 -93 34c-34 0 -52 -9 -66 -18c3 -7 6 -16 6 -25c0 -25 -18 -44 -45 -44c-26 0 -44 20 -44 46c0 49 56 99 158 99c63 0 109 -19 137 -50
c22 -24 32 -56 32 -92v-232h69v-60h-133v54c-35 -34 -90 -62 -148 -62zM204 48c51 0 95 26 128 59v71c-32 9 -74 17 -115 17c-68 0 -102 -32 -102 -76c0 -41 31 -71 89 -71zM219 764l-19 24l121 126c13 14 28 23 43 23c21 0 40 -16 40 -43c0 -14 -13 -31 -34 -44zM246 494
c-61 0 -109 49 -109 111s48 111 109 111c62 0 110 -49 110 -111s-48 -111 -110 -111zM246 545c33 0 56 27 56 60s-23 60 -56 60c-32 0 -55 -27 -55 -60s23 -60 55 -60z" />
    <glyph glyph-name="aringacute.sc" horiz-adv-x="582" 
d="M224 0h-209v60h62l146 389h-74v59h53c-14 18 -22 40 -22 63c0 62 49 111 110 111s110 -49 110 -111c0 -23 -10 -45 -23 -63h57v-59h-75l146 -389h62v-60h-211v59h79l-41 109h-209l-40 -109h79v-59zM289 453l-82 -225h165zM260 724l-19 24l121 126c13 14 28 23 43 23
c21 0 40 -16 40 -43c0 -14 -13 -31 -34 -44zM290 511c32 0 55 27 55 60s-23 61 -55 61c-33 0 -56 -28 -56 -61s23 -60 56 -60z" />
    <glyph glyph-name="Atilde" unicode="&#xc3;" horiz-adv-x="706" 
d="M18 0v66h63l197 527h-75v65h300v-65h-75l197 -527h63v-66h-220v65h77l-59 162h-269l-59 -162h80v-65h-220zM239 290h225l-112 307zM426 723c-39 0 -65 18 -88 38c-24 20 -37 28 -51 28c-24 0 -40 -23 -46 -60l-54 12c5 69 49 118 95 118c39 0 65 -19 89 -39
c23 -19 36 -27 51 -27c23 0 39 22 46 60l54 -12c-5 -69 -49 -118 -96 -118z" />
    <glyph glyph-name="atilde" unicode="&#xe3;" horiz-adv-x="492" 
d="M186 -8c-82 0 -141 49 -141 122c0 78 69 129 164 129c46 0 101 -12 123 -20v59c0 24 -7 45 -19 60c-19 21 -50 34 -93 34c-34 0 -52 -9 -66 -18c3 -7 6 -16 6 -25c0 -25 -18 -44 -45 -44c-26 0 -44 20 -44 46c0 49 56 99 158 99c63 0 109 -19 137 -50
c22 -24 32 -56 32 -92v-232h69v-60h-133v54c-35 -34 -90 -62 -148 -62zM204 48c51 0 95 26 128 59v71c-32 9 -74 17 -115 17c-68 0 -102 -32 -102 -76c0 -41 31 -71 89 -71zM314 509c-39 0 -65 18 -88 38c-24 20 -37 28 -51 28c-24 0 -40 -23 -46 -60l-54 12
c5 69 49 118 95 118c39 0 65 -19 89 -39c23 -19 36 -27 51 -27c23 0 39 22 46 60l54 -12c-5 -69 -49 -118 -96 -118z" />
    <glyph glyph-name="atilde.sc" horiz-adv-x="582" 
d="M149 508h285v-59h-75l146 -389h62v-60h-211v59h79l-41 109h-209l-40 -109h79v-59h-209v60h62l146 389h-74v59zM364 579c-39 0 -65 18 -88 38c-24 20 -37 28 -51 28c-24 0 -40 -23 -46 -60l-54 12c5 69 49 118 95 118c39 0 65 -19 89 -39c23 -19 36 -27 51 -27
c23 0 39 22 46 60l54 -12c-5 -69 -49 -118 -96 -118zM289 453l-82 -225h165z" />
    <glyph glyph-name="Cacute" unicode="&#x106;" horiz-adv-x="702" 
d="M361 717l-19 24l121 126c13 14 28 23 43 23c21 0 40 -16 40 -43c0 -14 -13 -31 -34 -44zM393 -12c-203 0 -337 157 -337 338c0 203 156 344 334 344c138 0 246 -83 246 -162c0 -37 -25 -65 -58 -65c-31 0 -55 23 -55 53c0 19 12 35 25 40c-18 29 -75 66 -159 66
c-150 0 -257 -127 -257 -275c0 -141 106 -271 261 -271c79 0 145 30 204 85l44 -53c-66 -66 -157 -100 -248 -100z" />
    <glyph glyph-name="cacute" unicode="&#x107;" horiz-adv-x="473" 
d="M222 503l-19 24l121 126c13 14 28 23 43 23c21 0 40 -16 40 -43c0 -14 -13 -31 -34 -44zM268 -8c-129 0 -226 94 -226 220c0 118 94 222 213 222c97 0 174 -64 174 -128c0 -32 -23 -58 -54 -58c-23 0 -46 17 -46 47c0 14 8 27 21 35c-11 26 -53 45 -96 45
c-63 0 -141 -55 -141 -164c0 -93 66 -158 163 -158c48 0 92 15 142 47l-6 -67c-43 -29 -98 -41 -144 -41z" />
    <glyph glyph-name="cacute.sc" horiz-adv-x="558" 
d="M268 573l-19 24l121 126c13 14 28 23 43 23c21 0 40 -16 40 -43c0 -14 -13 -31 -34 -44zM465 121l42 -47c-51 -53 -125 -84 -201 -84c-156 0 -261 116 -261 264c0 150 112 267 266 267c109 0 192 -67 192 -129c0 -34 -21 -58 -52 -58c-30 0 -50 19 -50 48
c0 15 8 27 17 33c-15 18 -53 43 -110 43c-110 0 -191 -86 -191 -203c0 -119 82 -201 189 -201c64 0 116 25 159 67z" />
    <glyph glyph-name="Ccaron" unicode="&#x10c;" horiz-adv-x="702" 
d="M513 899l31 -37l-154 -147l-154 147l31 37l123 -93zM393 -12c-203 0 -337 157 -337 338c0 203 156 344 334 344c138 0 246 -83 246 -162c0 -37 -25 -65 -58 -65c-31 0 -55 23 -55 53c0 19 12 35 25 40c-18 29 -75 66 -159 66c-150 0 -257 -127 -257 -275
c0 -141 106 -271 261 -271c79 0 145 30 204 85l44 -53c-66 -66 -157 -100 -248 -100z" />
    <glyph glyph-name="ccaron" unicode="&#x10d;" horiz-adv-x="473" 
d="M374 685l31 -37l-154 -147l-154 147l31 37l123 -93zM268 -8c-129 0 -226 94 -226 220c0 118 94 222 213 222c97 0 174 -64 174 -128c0 -32 -23 -58 -54 -58c-23 0 -46 17 -46 47c0 14 8 27 21 35c-11 26 -53 45 -96 45c-63 0 -141 -55 -141 -164c0 -93 66 -158 163 -158
c48 0 92 15 142 47l-6 -67c-43 -29 -98 -41 -144 -41z" />
    <glyph glyph-name="ccaron.sc" horiz-adv-x="558" 
d="M420 755l31 -37l-154 -147l-154 147l31 37l123 -93zM465 121l42 -47c-51 -53 -125 -84 -201 -84c-156 0 -261 116 -261 264c0 150 112 267 266 267c109 0 192 -67 192 -129c0 -34 -21 -58 -52 -58c-30 0 -50 19 -50 48c0 15 8 27 17 33c-15 18 -53 43 -110 43
c-110 0 -191 -86 -191 -203c0 -119 82 -201 189 -201c64 0 116 25 159 67z" />
    <glyph glyph-name="Ccedilla" unicode="&#xc7;" horiz-adv-x="702" 
d="M385 -199c-38 0 -79 11 -112 28l15 32c26 -11 63 -19 88 -19s42 11 42 29s-16 31 -53 31c-5 0 -16 -2 -18 -2l-19 16l24 74c-180 19 -296 167 -296 336c0 203 156 344 334 344c138 0 246 -83 246 -162c0 -37 -25 -65 -58 -65c-31 0 -55 23 -55 53c0 19 12 35 25 40
c-18 29 -75 66 -159 66c-150 0 -257 -127 -257 -275c0 -141 106 -271 261 -271c79 0 145 30 204 85l44 -53c-66 -66 -157 -100 -248 -100h-3l-1 -36c62 -3 94 -35 94 -76c0 -40 -34 -75 -98 -75z" />
    <glyph glyph-name="ccedilla" unicode="&#xe7;" horiz-adv-x="500" 
d="M260 -199c-38 0 -79 11 -112 28l15 32c26 -11 63 -19 88 -19s42 11 42 29s-16 31 -53 31c-5 0 -16 -2 -18 -2l-19 16l25 80c-108 16 -186 103 -186 216c0 118 94 222 213 222c97 0 174 -64 174 -128c0 -32 -23 -58 -54 -58c-23 0 -46 17 -46 47c0 14 8 27 21 35
c-11 26 -53 45 -96 45c-63 0 -141 -55 -141 -164c0 -93 66 -158 163 -158c48 0 92 15 142 47l-6 -67c-43 -29 -98 -41 -144 -41h-2l-2 -40c62 -3 94 -35 94 -76c0 -40 -34 -75 -98 -75z" />
    <glyph glyph-name="ccedilla.sc" horiz-adv-x="563" 
d="M299 -199c-38 0 -79 11 -112 28l15 32c26 -11 63 -19 88 -19s42 11 42 29s-16 31 -53 31c-5 0 -16 -2 -18 -2l-19 16l24 77c-132 18 -219 126 -219 261c0 150 112 267 266 267c109 0 192 -67 192 -129c0 -34 -21 -58 -52 -58c-30 0 -50 19 -50 48c0 15 8 27 17 33
c-15 18 -53 43 -110 43c-110 0 -191 -86 -191 -203c0 -119 82 -201 189 -201c64 0 116 25 159 67l42 -47c-51 -53 -125 -84 -201 -84h-3l-2 -38c62 -3 94 -35 94 -76c0 -40 -34 -75 -98 -75z" />
    <glyph glyph-name="Cdotaccent" unicode="&#x10a;" horiz-adv-x="702" 
d="M393 -12c-203 0 -337 157 -337 338c0 203 156 344 334 344c138 0 246 -83 246 -162c0 -37 -25 -65 -58 -65c-31 0 -55 23 -55 53c0 19 12 35 25 40c-18 29 -75 66 -159 66c-150 0 -257 -127 -257 -275c0 -141 106 -271 261 -271c79 0 145 30 204 85l44 -53
c-66 -66 -157 -100 -248 -100zM390 728c-32 0 -57 27 -57 59c0 33 26 59 58 59s57 -26 57 -59c0 -32 -26 -59 -58 -59z" />
    <glyph glyph-name="cdotaccent" unicode="&#x10b;" horiz-adv-x="473" 
d="M268 -8c-129 0 -226 94 -226 220c0 118 94 222 213 222c97 0 174 -64 174 -128c0 -32 -23 -58 -54 -58c-23 0 -46 17 -46 47c0 14 8 27 21 35c-11 26 -53 45 -96 45c-63 0 -141 -55 -141 -164c0 -93 66 -158 163 -158c48 0 92 15 142 47l-6 -67c-43 -29 -98 -41 -144 -41
zM251 514c-32 0 -57 27 -57 59c0 33 26 59 58 59s57 -26 57 -59c0 -32 -26 -59 -58 -59z" />
    <glyph glyph-name="cdotaccent.sc" horiz-adv-x="558" 
d="M465 121l42 -47c-51 -53 -125 -84 -201 -84c-156 0 -261 116 -261 264c0 150 112 267 266 267c109 0 192 -67 192 -129c0 -34 -21 -58 -52 -58c-30 0 -50 19 -50 48c0 15 8 27 17 33c-15 18 -53 43 -110 43c-110 0 -191 -86 -191 -203c0 -119 82 -201 189 -201
c64 0 116 25 159 67zM297 584c-32 0 -57 27 -57 59c0 33 26 59 58 59s57 -26 57 -59c0 -32 -26 -59 -58 -59z" />
    <glyph glyph-name="Dcaron" unicode="&#x10e;" horiz-adv-x="728" 
d="M463 899l31 -37l-154 -147l-154 147l31 37l123 -93zM47 0v66h84v526h-84v66h247c229 0 378 -127 378 -322c0 -199 -139 -336 -381 -336h-244zM206 66h94c197 0 296 110 296 271c0 158 -118 255 -304 255h-86v-526z" />
    <glyph glyph-name="dcaron" unicode="&#x10f;" horiz-adv-x="550" 
d="M513 507l-23 18c25 37 36 69 36 103c0 29 -9 42 -9 68c0 25 15 46 45 46c28 0 43 -19 43 -50c0 -64 -42 -133 -92 -185zM246 -8c-113 0 -202 88 -202 218c0 121 83 224 211 224c53 0 99 -20 132 -51v289h-80v60h149v-672h69v-60h-136v60c-36 -40 -80 -68 -143 -68z
M256 52c55 0 97 28 131 64v209c-32 27 -72 49 -128 49c-84 0 -143 -69 -143 -163c-1 -95 59 -159 140 -159z" />
    <glyph glyph-name="dcaron.sc" horiz-adv-x="606" 
d="M201 60h73c144 0 216 81 216 200c0 118 -86 189 -222 189h-67v-389zM265 0h-220v60h86v389h-86v59h223c180 0 293 -96 293 -249c0 -154 -106 -259 -296 -259zM410 755l31 -37l-154 -147l-154 147l31 37l123 -93z" />
    <glyph glyph-name="Dcroat" unicode="&#x110;" horiz-adv-x="734" 
d="M138 306h-73v62h73v224h-84v66h246c228 0 378 -128 378 -322c0 -199 -139 -336 -377 -336h-247v66h84v240zM212 66h94c197 0 296 110 296 271c0 158 -118 255 -304 255h-86v-224h150v-62h-150v-240z" />
    <glyph glyph-name="dcroat" unicode="&#x111;" horiz-adv-x="550" 
d="M233 521v57h154v94h-80v60h149v-154h69v-57h-69v-461h69v-60h-136v60c-36 -40 -80 -68 -143 -68c-113 0 -202 88 -202 218c0 121 83 224 211 224c53 0 99 -20 132 -51v138h-154zM256 52c55 0 97 28 131 64v209c-32 27 -72 49 -128 49c-84 0 -143 -69 -143 -163
c-1 -95 59 -159 140 -159z" />
    <glyph glyph-name="dcroat.sc" horiz-adv-x="609" 
d="M265 0h-219v60h86v168h-69v60h69v161h-86v59h222c180 0 293 -96 293 -249c0 -154 -106 -259 -296 -259zM201 60h73c144 0 216 81 216 200c0 118 -85 189 -222 189h-67v-161h115v-60h-115v-168z" />
    <glyph glyph-name="Eacute" unicode="&#xc9;" horiz-adv-x="588" 
d="M260 717l-19 24l121 126c13 14 28 23 43 23c21 0 40 -16 40 -43c0 -14 -13 -31 -34 -44zM47 0v66h84v526h-84v66h478v-161h-71v96h-248v-226h215v-64h-215v-238h248v96h72v-161h-479z" />
    <glyph glyph-name="eacute" unicode="&#xe9;" horiz-adv-x="485" 
d="M441 193h-328c10 -94 72 -140 164 -140c57 0 100 18 150 47l-6 -67c-44 -27 -99 -41 -153 -41c-136 0 -227 90 -227 220c0 118 79 222 209 222c127 0 195 -95 195 -201c0 -16 -1 -29 -4 -40zM246 375c-65 0 -122 -46 -132 -127h261c-5 75 -48 127 -129 127zM216 503
l-19 24l121 126c13 14 28 23 43 23c21 0 40 -16 40 -43c0 -14 -13 -31 -34 -44z" />
    <glyph glyph-name="eacute.sc" horiz-adv-x="514" 
d="M225 573l-19 24l121 126c13 14 28 23 43 23c21 0 40 -16 40 -43c0 -14 -13 -31 -34 -44zM458 0h-413v60h86v389h-86v59h413v-151h-66v92h-191v-164h165v-59h-165v-167h192v91h65v-150z" />
    <glyph glyph-name="Ebreve" unicode="&#x114;" horiz-adv-x="588" 
d="M47 0v66h84v526h-84v66h478v-161h-71v96h-248v-226h215v-64h-215v-238h248v96h72v-161h-479zM288 722c-73 0 -133 52 -159 136l49 21c22 -57 66 -88 110 -88c48 0 89 35 110 88l49 -21c-25 -84 -86 -136 -159 -136z" />
    <glyph glyph-name="ebreve" unicode="&#x115;" horiz-adv-x="485" 
d="M441 193h-328c10 -94 72 -140 164 -140c57 0 100 18 150 47l-6 -67c-44 -27 -99 -41 -153 -41c-136 0 -227 90 -227 220c0 118 79 222 209 222c127 0 195 -95 195 -201c0 -16 -1 -29 -4 -40zM246 375c-65 0 -122 -46 -132 -127h261c-5 75 -48 127 -129 127zM244 508
c-73 0 -133 52 -159 136l49 21c22 -57 66 -88 110 -88c48 0 89 35 110 88l49 -21c-25 -84 -86 -136 -159 -136z" />
    <glyph glyph-name="ebreve.sc" horiz-adv-x="514" 
d="M458 0h-413v60h86v389h-86v59h413v-151h-66v92h-191v-164h165v-59h-165v-167h192v91h65v-150zM253 578c-73 0 -133 52 -159 136l49 21c22 -57 66 -88 110 -88c48 0 89 35 110 88l49 -21c-25 -84 -86 -136 -159 -136z" />
    <glyph glyph-name="Ecaron" unicode="&#x11a;" horiz-adv-x="588" 
d="M411 899l31 -37l-154 -147l-154 147l31 37l123 -93zM47 0v66h84v526h-84v66h478v-161h-71v96h-248v-226h215v-64h-215v-238h248v96h72v-161h-479z" />
    <glyph glyph-name="ecaron" unicode="&#x11b;" horiz-adv-x="485" 
d="M441 193h-328c10 -94 72 -140 164 -140c57 0 100 18 150 47l-6 -67c-44 -27 -99 -41 -153 -41c-136 0 -227 90 -227 220c0 118 79 222 209 222c127 0 195 -95 195 -201c0 -16 -1 -29 -4 -40zM246 375c-65 0 -122 -46 -132 -127h261c-5 75 -48 127 -129 127zM367 685
l31 -37l-154 -147l-154 147l31 37l123 -93z" />
    <glyph glyph-name="ecaron.sc" horiz-adv-x="514" 
d="M376 755l31 -37l-154 -147l-154 147l31 37l123 -93zM458 0h-413v60h86v389h-86v59h413v-151h-66v92h-191v-164h165v-59h-165v-167h192v91h65v-150z" />
    <glyph glyph-name="Ecircumflex" unicode="&#xca;" horiz-adv-x="588" 
d="M166 714l-31 37l154 147l154 -147l-31 -37l-123 93zM47 0v66h84v526h-84v66h478v-161h-71v96h-248v-226h215v-64h-215v-238h248v96h72v-161h-479z" />
    <glyph glyph-name="ecircumflex" unicode="&#xea;" horiz-adv-x="485" 
d="M441 193h-328c10 -94 72 -140 164 -140c57 0 100 18 150 47l-6 -67c-44 -27 -99 -41 -153 -41c-136 0 -227 90 -227 220c0 118 79 222 209 222c127 0 195 -95 195 -201c0 -16 -1 -29 -4 -40zM246 375c-65 0 -122 -46 -132 -127h261c-5 75 -48 127 -129 127zM122 500
l-31 37l154 147l154 -147l-31 -37l-123 93z" />
    <glyph glyph-name="ecircumflex.sc" horiz-adv-x="514" 
d="M131 570l-31 37l154 147l154 -147l-31 -37l-123 93zM458 0h-413v60h86v389h-86v59h413v-151h-66v92h-191v-164h165v-59h-165v-167h192v91h65v-150z" />
    <glyph glyph-name="Edieresis" unicode="&#xcb;" horiz-adv-x="588" 
d="M376 733c-32 0 -57 26 -57 57c0 32 26 58 57 58c32 0 56 -26 56 -58c0 -31 -25 -57 -56 -57zM201 733c-31 0 -56 26 -56 57c0 32 26 58 57 58s56 -26 56 -58c0 -31 -25 -57 -57 -57zM47 0v66h84v526h-84v66h478v-161h-71v96h-248v-226h215v-64h-215v-238h248v96h72v-161
h-479z" />
    <glyph glyph-name="edieresis" unicode="&#xeb;" horiz-adv-x="485" 
d="M441 193h-328c10 -94 72 -140 164 -140c57 0 100 18 150 47l-6 -67c-44 -27 -99 -41 -153 -41c-136 0 -227 90 -227 220c0 118 79 222 209 222c127 0 195 -95 195 -201c0 -16 -1 -29 -4 -40zM246 375c-65 0 -122 -46 -132 -127h261c-5 75 -48 127 -129 127zM332 519
c-32 0 -57 26 -57 57c0 32 26 58 57 58c32 0 56 -26 56 -58c0 -31 -25 -57 -56 -57zM157 519c-31 0 -56 26 -56 57c0 32 26 58 57 58s56 -26 56 -58c0 -31 -25 -57 -57 -57z" />
    <glyph glyph-name="edieresis.sc" horiz-adv-x="514" 
d="M341 589c-32 0 -57 26 -57 57c0 32 26 58 57 58c32 0 56 -26 56 -58c0 -31 -25 -57 -56 -57zM166 589c-31 0 -56 26 -56 57c0 32 26 58 57 58s56 -26 56 -58c0 -31 -25 -57 -57 -57zM458 0h-413v60h86v389h-86v59h413v-151h-66v92h-191v-164h165v-59h-165v-167h192v91h65
v-150z" />
    <glyph glyph-name="Edotaccent" unicode="&#x116;" horiz-adv-x="588" 
d="M47 0v66h84v526h-84v66h478v-161h-71v96h-248v-226h215v-64h-215v-238h248v96h72v-161h-479zM288 728c-32 0 -57 27 -57 59c0 33 26 59 58 59s57 -26 57 -59c0 -32 -26 -59 -58 -59z" />
    <glyph glyph-name="edotaccent" unicode="&#x117;" horiz-adv-x="485" 
d="M441 193h-328c10 -94 72 -140 164 -140c57 0 100 18 150 47l-6 -67c-44 -27 -99 -41 -153 -41c-136 0 -227 90 -227 220c0 118 79 222 209 222c127 0 195 -95 195 -201c0 -16 -1 -29 -4 -40zM246 375c-65 0 -122 -46 -132 -127h261c-5 75 -48 127 -129 127zM244 514
c-32 0 -57 27 -57 59c0 33 26 59 58 59s57 -26 57 -59c0 -32 -26 -59 -58 -59z" />
    <glyph glyph-name="edotaccent.sc" horiz-adv-x="514" 
d="M253 584c-32 0 -57 27 -57 59c0 33 26 59 58 59s57 -26 57 -59c0 -32 -26 -59 -58 -59zM458 0h-413v60h86v389h-86v59h413v-151h-66v92h-191v-164h165v-59h-165v-167h192v91h65v-150z" />
    <glyph glyph-name="Egrave" unicode="&#xc8;" horiz-adv-x="588" 
d="M47 0v66h84v526h-84v66h478v-161h-71v96h-248v-226h215v-64h-215v-238h248v96h72v-161h-479zM318 717l-151 86c-21 13 -34 30 -34 44c0 27 19 43 40 43c15 0 29 -9 43 -23l120 -126z" />
    <glyph glyph-name="egrave" unicode="&#xe8;" horiz-adv-x="485" 
d="M441 193h-328c10 -94 72 -140 164 -140c57 0 100 18 150 47l-6 -67c-44 -27 -99 -41 -153 -41c-136 0 -227 90 -227 220c0 118 79 222 209 222c127 0 195 -95 195 -201c0 -16 -1 -29 -4 -40zM246 375c-65 0 -122 -46 -132 -127h261c-5 75 -48 127 -129 127zM274 503
l-151 86c-21 13 -34 30 -34 44c0 27 19 43 40 43c15 0 29 -9 43 -23l120 -126z" />
    <glyph glyph-name="egrave.sc" horiz-adv-x="514" 
d="M283 573l-151 86c-21 13 -34 30 -34 44c0 27 19 43 40 43c15 0 29 -9 43 -23l120 -126zM458 0h-413v60h86v389h-86v59h413v-151h-66v92h-191v-164h165v-59h-165v-167h192v91h65v-150z" />
    <glyph glyph-name="Emacron" unicode="&#x112;" horiz-adv-x="588" 
d="M47 0v66h84v526h-84v66h478v-161h-71v96h-248v-226h215v-64h-215v-238h248v96h72v-161h-479zM137 749v63h304v-63h-304z" />
    <glyph glyph-name="emacron" unicode="&#x113;" horiz-adv-x="485" 
d="M441 193h-328c10 -94 72 -140 164 -140c57 0 100 18 150 47l-6 -67c-44 -27 -99 -41 -153 -41c-136 0 -227 90 -227 220c0 118 79 222 209 222c127 0 195 -95 195 -201c0 -16 -1 -29 -4 -40zM246 375c-65 0 -122 -46 -132 -127h261c-5 75 -48 127 -129 127zM93 535v63
h304v-63h-304z" />
    <glyph glyph-name="emacron.sc" horiz-adv-x="514" 
d="M102 605v63h304v-63h-304zM458 0h-413v60h86v389h-86v59h413v-151h-66v92h-191v-164h165v-59h-165v-167h192v91h65v-150z" />
    <glyph glyph-name="Eogonek" unicode="&#x118;" horiz-adv-x="588" 
d="M47 0v66h84v526h-84v66h478v-161h-71v96h-248v-226h215v-64h-215v-238h248v96h72v-161h-62c-43 -23 -72 -55 -72 -92c0 -32 18 -52 55 -52c30 0 56 8 78 19l-4 -53c-15 -11 -49 -23 -86 -23c-70 0 -106 38 -106 93c0 45 26 81 64 108h-346z" />
    <glyph glyph-name="eogonek" unicode="&#x119;" horiz-adv-x="485" 
d="M441 193h-328c10 -94 72 -140 164 -140c57 0 100 18 150 47l-6 -67c-65 -33 -140 -68 -140 -126c0 -31 18 -51 56 -51c29 0 55 8 77 19l-3 -53c-16 -11 -50 -23 -87 -23c-70 0 -106 38 -106 93c0 42 20 75 52 100h-2c-136 0 -227 90 -227 220c0 118 79 222 209 222
c127 0 195 -95 195 -201c0 -16 -1 -29 -4 -40zM246 375c-65 0 -122 -46 -132 -127h261c-5 75 -48 127 -129 127z" />
    <glyph glyph-name="eogonek.sc" horiz-adv-x="514" 
d="M458 0h-61c-43 -23 -72 -55 -72 -92c0 -32 18 -52 55 -52c30 0 56 8 78 19l-4 -53c-15 -11 -49 -23 -86 -23c-70 0 -106 38 -106 93c0 45 26 81 64 108h-281v60h86v389h-86v59h413v-151h-66v92h-191v-164h165v-59h-165v-167h192v91h65v-150z" />
    <glyph glyph-name="Eth" unicode="&#xd0;" horiz-adv-x="734" 
d="M138 306h-73v62h73v224h-84v66h246c228 0 378 -128 378 -322c0 -199 -139 -336 -377 -336h-247v66h84v240zM212 66h94c197 0 296 110 296 271c0 158 -118 255 -304 255h-86v-224h150v-62h-150v-240z" />
    <glyph glyph-name="eth" unicode="&#xf0;" horiz-adv-x="528" 
d="M191 463l-38 45l113 101c-39 36 -81 59 -113 66c-3 -21 -20 -41 -47 -41c-25 0 -47 20 -47 51c0 30 28 54 67 54c24 0 52 -6 81 -20c34 -15 71 -40 106 -72l98 86l38 -44l-96 -85c74 -85 131 -208 131 -355c0 -89 -26 -158 -71 -202c-38 -36 -89 -55 -149 -55
c-131 0 -220 94 -220 210c0 117 89 211 219 211c60 0 120 -31 153 -77c-11 89 -56 170 -109 231zM416 209c0 80 -63 144 -152 144s-151 -64 -151 -151s62 -150 151 -150c44 0 79 16 105 42c30 30 47 73 47 115z" />
    <glyph glyph-name="eth.sc" horiz-adv-x="609" 
d="M265 0h-219v60h86v168h-69v60h69v161h-86v59h222c180 0 293 -96 293 -249c0 -154 -106 -259 -296 -259zM201 60h73c144 0 216 81 216 200c0 118 -85 189 -222 189h-67v-161h115v-60h-115v-168z" />
    <glyph glyph-name="Gbreve" unicode="&#x11e;" horiz-adv-x="737" 
d="M376 -12c-166 0 -320 126 -320 336c0 208 159 346 341 346c148 0 247 -82 247 -152c0 -37 -24 -62 -56 -62c-31 0 -54 23 -54 53c0 17 7 30 17 38c-25 27 -82 55 -156 55c-156 0 -263 -122 -263 -278c0 -162 116 -270 252 -270c75 0 138 23 195 63v140h-182v63h255v-320
h-71v57c-57 -43 -122 -69 -205 -69zM381 722c-73 0 -133 52 -159 136l49 21c22 -57 66 -88 110 -88c48 0 89 35 110 88l49 -21c-25 -84 -86 -136 -159 -136z" />
    <glyph glyph-name="gbreve" unicode="&#x11f;" horiz-adv-x="556" 
d="M457 365v-379c0 -53 -14 -94 -39 -124c-36 -44 -96 -62 -162 -62c-67 0 -119 21 -145 46c-15 15 -22 32 -22 49c0 29 21 52 50 52c25 0 42 -19 42 -43c0 -10 -3 -20 -9 -28c13 -8 41 -17 84 -17c42 0 82 11 107 42c16 20 25 46 25 82v83c-35 -36 -77 -63 -142 -63
c-111 0 -202 88 -202 212c0 115 84 219 211 219c57 0 102 -23 136 -55v47h135v-61h-69zM261 373c-87 0 -145 -68 -145 -157c0 -90 59 -153 141 -153c54 0 97 26 131 62v200c-31 27 -72 48 -127 48zM283 508c-73 0 -133 52 -159 136l49 21c22 -57 66 -88 110 -88
c48 0 89 35 110 88l49 -21c-25 -84 -86 -136 -159 -136z" />
    <glyph glyph-name="gbreve.sc" horiz-adv-x="588" 
d="M311 458c-115 0 -194 -88 -194 -205c0 -120 86 -201 188 -201c56 0 104 15 144 43v102h-137v58h205v-255h-66v40c-40 -30 -90 -50 -157 -50c-128 0 -249 99 -249 262c0 161 121 269 270 269c119 0 197 -66 197 -124c0 -34 -21 -57 -51 -57c-29 0 -50 19 -50 47
c0 14 8 26 15 32c-19 18 -60 39 -115 39zM303 578c-73 0 -133 52 -159 136l49 21c22 -57 66 -88 110 -88c48 0 89 35 110 88l49 -21c-25 -84 -86 -136 -159 -136z" />
    <glyph glyph-name="Gcommaaccent" unicode="&#x122;" horiz-adv-x="737" 
d="M314 -278l-16 23c56 42 75 81 76 103c-24 5 -43 25 -43 50c0 28 23 49 49 49c31 0 56 -22 56 -65c0 -46 -32 -111 -122 -160zM376 -12c-166 0 -320 126 -320 336c0 208 159 346 341 346c148 0 247 -82 247 -152c0 -37 -24 -62 -56 -62c-31 0 -54 23 -54 53
c0 17 7 30 17 38c-25 27 -82 55 -156 55c-156 0 -263 -122 -263 -278c0 -162 116 -270 252 -270c75 0 138 23 195 63v140h-182v63h255v-320h-71v57c-57 -43 -122 -69 -205 -69z" />
    <glyph glyph-name="gcommaaccent" unicode="&#x123;" horiz-adv-x="556" 
d="M359 744l16 -23c-56 -42 -75 -81 -76 -103c24 -5 43 -25 43 -50c0 -28 -23 -49 -49 -49c-31 0 -56 22 -56 65c0 46 32 111 122 160zM457 365v-379c0 -53 -14 -94 -39 -124c-36 -44 -96 -62 -162 -62c-67 0 -119 21 -145 46c-15 15 -22 32 -22 49c0 29 21 52 50 52
c25 0 42 -19 42 -43c0 -10 -3 -20 -9 -28c13 -8 41 -17 84 -17c42 0 82 11 107 42c16 20 25 46 25 82v83c-35 -36 -77 -63 -142 -63c-111 0 -202 88 -202 212c0 115 84 219 211 219c57 0 102 -23 136 -55v47h135v-61h-69zM261 373c-87 0 -145 -68 -145 -157
c0 -90 59 -153 141 -153c54 0 97 26 131 62v200c-31 27 -72 48 -127 48z" />
    <glyph glyph-name="gcommaaccent.sc" horiz-adv-x="588" 
d="M236 -282l-16 23c56 42 75 81 76 103c-24 5 -43 25 -43 50c0 28 23 49 49 49c31 0 56 -22 56 -65c0 -46 -32 -111 -122 -160zM311 458c-115 0 -194 -88 -194 -205c0 -120 86 -201 188 -201c56 0 104 15 144 43v102h-137v58h205v-255h-66v40c-40 -30 -90 -50 -157 -50
c-128 0 -249 99 -249 262c0 161 121 269 270 269c119 0 197 -66 197 -124c0 -34 -21 -57 -51 -57c-29 0 -50 19 -50 47c0 14 8 26 15 32c-19 18 -60 39 -115 39z" />
    <glyph glyph-name="Gdotaccent" unicode="&#x120;" horiz-adv-x="737" 
d="M376 -12c-166 0 -320 126 -320 336c0 208 159 346 341 346c148 0 247 -82 247 -152c0 -37 -24 -62 -56 -62c-31 0 -54 23 -54 53c0 17 7 30 17 38c-25 27 -82 55 -156 55c-156 0 -263 -122 -263 -278c0 -162 116 -270 252 -270c75 0 138 23 195 63v140h-182v63h255v-320
h-71v57c-57 -43 -122 -69 -205 -69zM381 728c-32 0 -57 27 -57 59c0 33 26 59 58 59s57 -26 57 -59c0 -32 -26 -59 -58 -59z" />
    <glyph glyph-name="gdotaccent" unicode="&#x121;" horiz-adv-x="556" 
d="M457 365v-379c0 -53 -14 -94 -39 -124c-36 -44 -96 -62 -162 -62c-67 0 -119 21 -145 46c-15 15 -22 32 -22 49c0 29 21 52 50 52c25 0 42 -19 42 -43c0 -10 -3 -20 -9 -28c13 -8 41 -17 84 -17c42 0 82 11 107 42c16 20 25 46 25 82v83c-35 -36 -77 -63 -142 -63
c-111 0 -202 88 -202 212c0 115 84 219 211 219c57 0 102 -23 136 -55v47h135v-61h-69zM261 373c-87 0 -145 -68 -145 -157c0 -90 59 -153 141 -153c54 0 97 26 131 62v200c-31 27 -72 48 -127 48zM281 514c-32 0 -57 27 -57 59c0 33 26 59 58 59s57 -26 57 -59
c0 -32 -26 -59 -58 -59z" />
    <glyph glyph-name="gdotaccent.sc" horiz-adv-x="588" 
d="M311 458c-115 0 -194 -88 -194 -205c0 -120 86 -201 188 -201c56 0 104 15 144 43v102h-137v58h205v-255h-66v40c-40 -30 -90 -50 -157 -50c-128 0 -249 99 -249 262c0 161 121 269 270 269c119 0 197 -66 197 -124c0 -34 -21 -57 -51 -57c-29 0 -50 19 -50 47
c0 14 8 26 15 32c-19 18 -60 39 -115 39zM303 584c-32 0 -57 27 -57 59c0 33 26 59 58 59s57 -26 57 -59c0 -32 -26 -59 -58 -59z" />
    <glyph glyph-name="Hbar" unicode="&#x126;" horiz-adv-x="776" 
d="M67 453v59h64v83h-84v63h245v-63h-86v-83h364v83h-86v63h245v-63h-84v-83h64v-59h-64v-387h84v-66h-245v66h86v232h-364v-232h86v-66h-245v66h84v387h-64zM206 363h364v90h-364v-90z" />
    <glyph glyph-name="hbar" unicode="&#x127;" horiz-adv-x="556" 
d="M99 672h-68v60h137v-154h155v-57h-155v-172c41 47 97 85 158 85c50 0 86 -17 108 -46c19 -25 28 -59 28 -98v-230h69v-60h-205v60h67v216c0 31 -6 52 -19 67c-14 18 -37 27 -66 27c-53 0 -102 -33 -140 -75v-235h67v-60h-204v60h68v461h-68v57h68v94z" />
    <glyph glyph-name="hbar.sc" horiz-adv-x="672" 
d="M606 391v-54h-65v-277h86v-60h-243v60h87v163h-270v-163h87v-60h-242v60h86v277h-66v54h66v58h-86v59h242v-59h-87v-59h270v59h-87v59h243v-59h-86v-58h65zM201 279h270v59h-270v-59z" />
    <glyph glyph-name="Iacute" unicode="&#xcd;" horiz-adv-x="348" 
d="M48 0v66h89v526h-89v66h252v-66h-89v-526h89v-66h-252zM145 717l-19 24l121 126c13 14 28 23 43 23c21 0 40 -16 40 -43c0 -14 -13 -31 -34 -44z" />
    <glyph glyph-name="iacute" unicode="&#xed;" horiz-adv-x="290" 
d="M115 503l-19 24l121 126c13 14 28 23 43 23c21 0 40 -16 40 -43c0 -14 -13 -31 -34 -44zM43 0v60h72v305h-72v61h141v-366h72v-60h-213z" />
    <glyph glyph-name="iacute.sc" horiz-adv-x="337" 
d="M140 573l-19 24l121 126c13 14 28 23 43 23c21 0 40 -16 40 -43c0 -14 -13 -31 -34 -44zM292 0h-247v60h89v389h-89v59h247v-59h-89v-389h89v-60z" />
    <glyph glyph-name="Ibreve" unicode="&#x12c;" horiz-adv-x="348" 
d="M48 0v66h89v526h-89v66h252v-66h-89v-526h89v-66h-252zM173 722c-73 0 -133 52 -159 136l49 21c22 -57 66 -88 110 -88c48 0 89 35 110 88l49 -21c-25 -84 -86 -136 -159 -136z" />
    <glyph glyph-name="ibreve" unicode="&#x12d;" horiz-adv-x="290" 
d="M43 0v60h72v305h-72v61h141v-366h72v-60h-213zM143 508c-73 0 -133 52 -159 136l49 21c22 -57 66 -88 110 -88c48 0 89 35 110 88l49 -21c-25 -84 -86 -136 -159 -136z" />
    <glyph glyph-name="ibreve.sc" horiz-adv-x="337" 
d="M292 0h-247v60h89v389h-89v59h247v-59h-89v-389h89v-60zM168 578c-73 0 -133 52 -159 136l49 21c22 -57 66 -88 110 -88c48 0 89 35 110 88l49 -21c-25 -84 -86 -136 -159 -136z" />
    <glyph glyph-name="Icircumflex" unicode="&#xce;" horiz-adv-x="348" 
d="M48 0v66h89v526h-89v66h252v-66h-89v-526h89v-66h-252zM51 714l-31 37l154 147l154 -147l-31 -37l-123 93z" />
    <glyph glyph-name="icircumflex" unicode="&#xee;" horiz-adv-x="290" 
d="M21 500l-31 37l154 147l154 -147l-31 -37l-123 93zM43 0v60h72v305h-72v61h141v-366h72v-60h-213z" />
    <glyph glyph-name="icircumflex.sc" horiz-adv-x="337" 
d="M46 570l-31 37l154 147l154 -147l-31 -37l-123 93zM292 0h-247v60h89v389h-89v59h247v-59h-89v-389h89v-60z" />
    <glyph glyph-name="Idieresis" unicode="&#xcf;" horiz-adv-x="348" 
d="M48 0v66h89v526h-89v66h252v-66h-89v-526h89v-66h-252zM261 733c-32 0 -57 26 -57 57c0 32 26 58 57 58c32 0 56 -26 56 -58c0 -31 -25 -57 -56 -57zM86 733c-31 0 -56 26 -56 57c0 32 26 58 57 58s56 -26 56 -58c0 -31 -25 -57 -57 -57z" />
    <glyph glyph-name="idieresis" unicode="&#xef;" horiz-adv-x="290" 
d="M231 519c-32 0 -57 26 -57 57c0 32 26 58 57 58c32 0 56 -26 56 -58c0 -31 -25 -57 -56 -57zM56 519c-31 0 -56 26 -56 57c0 32 26 58 57 58s56 -26 56 -58c0 -31 -25 -57 -57 -57zM43 0v60h72v305h-72v61h141v-366h72v-60h-213z" />
    <glyph glyph-name="idieresis.sc" horiz-adv-x="337" 
d="M256 589c-32 0 -57 26 -57 57c0 32 26 58 57 58c32 0 56 -26 56 -58c0 -31 -25 -57 -56 -57zM81 589c-31 0 -56 26 -56 57c0 32 26 58 57 58s56 -26 56 -58c0 -31 -25 -57 -57 -57zM292 0h-247v60h89v389h-89v59h247v-59h-89v-389h89v-60z" />
    <glyph glyph-name="Idotaccent" unicode="&#x130;" horiz-adv-x="348" 
d="M48 0v66h89v526h-89v66h252v-66h-89v-526h89v-66h-252zM174 728c-32 0 -57 27 -57 59c0 33 26 59 58 59s57 -26 57 -59c0 -32 -26 -59 -58 -59z" />
    <glyph glyph-name="idotaccent.sc" horiz-adv-x="337" 
d="M292 0h-247v60h89v389h-89v59h247v-59h-89v-389h89v-60zM169 584c-32 0 -57 27 -57 59c0 33 26 59 58 59s57 -26 57 -59c0 -32 -26 -59 -58 -59z" />
    <glyph glyph-name="dotlessi" unicode="&#x131;" horiz-adv-x="290" 
d="M43 0v60h72v305h-72v61h141v-366h72v-60h-213z" />
    <glyph glyph-name="dotlessi.sc" horiz-adv-x="337" 
d="M292 0h-247v60h89v389h-89v59h247v-59h-89v-389h89v-60z" />
    <glyph glyph-name="Igrave" unicode="&#xcc;" horiz-adv-x="348" 
d="M48 0v66h89v526h-89v66h252v-66h-89v-526h89v-66h-252zM204 717l-151 86c-21 13 -34 30 -34 44c0 27 19 43 40 43c15 0 29 -9 43 -23l120 -126z" />
    <glyph glyph-name="igrave" unicode="&#xec;" horiz-adv-x="290" 
d="M43 0v60h72v305h-72v61h141v-366h72v-60h-213zM173 503l-151 86c-21 13 -34 30 -34 44c0 27 19 43 40 43c15 0 29 -9 43 -23l120 -126z" />
    <glyph glyph-name="igrave.sc" horiz-adv-x="337" 
d="M292 0h-247v60h89v389h-89v59h247v-59h-89v-389h89v-60zM198 573l-151 86c-21 13 -34 30 -34 44c0 27 19 43 40 43c15 0 29 -9 43 -23l120 -126z" />
    <glyph glyph-name="Imacron" unicode="&#x12a;" horiz-adv-x="348" 
d="M48 0v66h89v526h-89v66h252v-66h-89v-526h89v-66h-252zM22 749v63h304v-63h-304z" />
    <glyph glyph-name="imacron" unicode="&#x12b;" horiz-adv-x="290" 
d="M43 0v60h72v305h-72v61h141v-366h72v-60h-213zM-8 535v63h304v-63h-304z" />
    <glyph glyph-name="imacron.sc" horiz-adv-x="337" 
d="M292 0h-247v60h89v389h-89v59h247v-59h-89v-389h89v-60zM17 605v63h304v-63h-304z" />
    <glyph glyph-name="Iogonek" unicode="&#x12e;" horiz-adv-x="348" 
d="M48 0v66h89v526h-89v66h252v-66h-89v-526h89v-66h-82c-43 -23 -72 -55 -72 -92c0 -32 18 -52 55 -52c30 0 56 8 78 19l-4 -53c-15 -11 -49 -23 -86 -23c-70 0 -106 38 -106 93c0 45 26 81 64 108h-99z" />
    <glyph glyph-name="iogonek" unicode="&#x12f;" horiz-adv-x="290" 
d="M43 0v60h72v305h-72v61h141v-366h72v-60h-76c-43 -23 -72 -55 -72 -92c0 -32 18 -52 55 -52c30 0 56 8 78 19l-4 -53c-15 -11 -49 -23 -86 -23c-70 0 -106 38 -106 93c0 45 26 81 64 108h-66zM140 535c-30 0 -55 25 -55 55s26 56 56 56c29 0 54 -26 54 -56
s-26 -55 -55 -55z" />
    <glyph glyph-name="iogonek.sc" horiz-adv-x="337" 
d="M170 -201c-70 0 -106 38 -106 93c0 45 26 81 64 108h-83v60h89v389h-89v59h247v-59h-89v-389h89v-60h-93c-43 -23 -72 -55 -72 -92c0 -32 18 -52 55 -52c30 0 56 8 78 19l-4 -53c-15 -11 -49 -23 -86 -23z" />
    <glyph glyph-name="Kcommaaccent" unicode="&#x136;" horiz-adv-x="675" 
d="M287 -278l-16 23c56 42 75 81 76 103c-24 5 -43 25 -43 50c0 28 23 49 49 49c31 0 56 -22 56 -65c0 -46 -32 -111 -122 -160zM47 0v66h84v526h-84v66h245v-65h-86v-287l285 287h-88v65h254v-66h-74l-214 -213l210 -313h83v-66h-131l-217 330l-108 -108v-156h86v-66h-245z
" />
    <glyph glyph-name="kcommaaccent" unicode="&#x137;" horiz-adv-x="524" 
d="M199 -278l-16 23c56 42 75 81 76 103c-24 5 -43 25 -43 50c0 28 23 49 49 49c31 0 56 -22 56 -65c0 -46 -32 -111 -122 -160zM31 0v60h68v612h-68v60h137v-518l178 154h-83v58h241v-61h-76l-134 -115l132 -190h78v-60h-118l-142 212l-76 -64v-89h69v-59h-206z" />
    <glyph glyph-name="kcommaaccent.sc" horiz-adv-x="589" 
d="M240 -282l-16 23c56 42 75 81 76 103c-24 5 -43 25 -43 50c0 28 23 49 49 49c31 0 56 -22 56 -65c0 -46 -32 -111 -122 -160zM498 448l-166 -165l155 -223h83v-60h-126l-162 237l-80 -78v-99h85v-60h-242v60h88v389h-88v59h235v-59h-78v-213l216 213h-75v59h219v-60h-64z
" />
    <glyph glyph-name="Lacute" unicode="&#x139;" horiz-adv-x="554" 
d="M165 728l-19 24l121 126c13 14 28 23 43 23c21 0 40 -16 40 -43c0 -14 -13 -31 -34 -44zM47 0v66h84v526h-84v66h250v-66h-91v-527h228v101h71v-166h-458z" />
    <glyph glyph-name="lacute" unicode="&#x13a;" horiz-adv-x="278" 
d="M127 771l-19 24l121 126c13 14 28 23 43 23c21 0 40 -16 40 -43c0 -14 -13 -31 -34 -44zM33 0v60h72v612h-72v60h141v-672h72v-60h-213z" />
    <glyph glyph-name="lacute.sc" horiz-adv-x="485" 
d="M387 60v97h66v-157h-408v60h86v389h-86v59h245v-59h-89v-389h186zM151 570l-19 24l121 126c13 14 28 23 43 23c21 0 40 -16 40 -43c0 -14 -13 -31 -34 -44z" />
    <glyph glyph-name="Lcaron" unicode="&#x13d;" horiz-adv-x="554" 
d="M354 425l-23 18c25 37 36 69 36 103c0 29 -9 42 -9 68c0 25 15 46 45 46c28 0 43 -19 43 -50c0 -64 -42 -133 -92 -185zM47 0v66h84v526h-84v66h250v-66h-91v-527h228v101h71v-166h-458z" />
    <glyph glyph-name="lcaron" unicode="&#x13e;" horiz-adv-x="278" 
d="M230 507l-23 18c25 37 36 69 36 103c0 29 -9 42 -9 68c0 25 15 46 45 46c28 0 43 -19 43 -50c0 -64 -42 -133 -92 -185zM33 0v60h72v612h-72v60h141v-672h72v-60h-213z" />
    <glyph glyph-name="lcaron.sc" horiz-adv-x="485" 
d="M387 60v97h66v-157h-408v60h86v389h-86v59h245v-59h-89v-389h186zM336 286l-23 18c25 37 36 69 36 103c0 29 -9 42 -9 68c0 25 15 46 45 46c28 0 43 -19 43 -50c0 -64 -42 -133 -92 -185z" />
    <glyph glyph-name="Lcommaaccent" unicode="&#x13b;" horiz-adv-x="554" 
d="M208 -278l-16 23c56 42 75 81 76 103c-24 5 -43 25 -43 50c0 28 23 49 49 49c31 0 56 -22 56 -65c0 -46 -32 -111 -122 -160zM47 0v66h84v526h-84v66h250v-66h-91v-527h228v101h71v-166h-458z" />
    <glyph glyph-name="lcommaaccent" unicode="&#x13c;" horiz-adv-x="278" 
d="M71 -278l-16 23c56 42 75 81 76 103c-24 5 -43 25 -43 50c0 28 23 49 49 49c31 0 56 -22 56 -65c0 -46 -32 -111 -122 -160zM33 0v60h72v612h-72v60h141v-672h72v-60h-213z" />
    <glyph glyph-name="lcommaaccent.sc" horiz-adv-x="485" 
d="M387 60v97h66v-157h-408v60h86v389h-86v59h245v-59h-89v-389h186zM181 -282l-16 23c56 42 75 81 76 103c-24 5 -43 25 -43 50c0 28 23 49 49 49c31 0 56 -22 56 -65c0 -46 -32 -111 -122 -160z" />
    <glyph glyph-name="Ldot" unicode="&#x13f;" horiz-adv-x="554" 
d="M47 0v66h84v526h-84v66h250v-66h-91v-527h228v101h71v-166h-458zM445 297c-32 0 -57 27 -57 59c0 33 26 59 58 59s57 -26 57 -59c0 -32 -26 -59 -58 -59z" />
    <glyph glyph-name="ldot" unicode="&#x140;" horiz-adv-x="316" 
d="M33 0v60h72v612h-72v60h141v-672h72v-60h-213zM297 281c-32 0 -57 27 -57 59c0 33 26 59 58 59s57 -26 57 -59c0 -32 -26 -59 -58 -59z" />
    <glyph glyph-name="ldot.sc" horiz-adv-x="485" 
d="M387 60v97h66v-157h-408v60h86v389h-86v59h245v-59h-89v-389h186zM408 230c-32 0 -57 27 -57 59c0 33 26 59 58 59s57 -26 57 -59c0 -32 -26 -59 -58 -59z" />
    <glyph glyph-name="Lslash" unicode="&#x141;" horiz-adv-x="560" 
d="M53 0v66h84v197l-81 -47l-31 53l112 65v258h-84v66h250v-66h-91v-215l141 83l31 -53l-172 -101v-241h228v101h71v-166h-458z" />
    <glyph glyph-name="lslash" unicode="&#x142;" horiz-adv-x="292" 
d="M40 0v60h72v297l-85 -50l-29 50l114 68v247h-72v60h141v-269l77 45l29 -50l-106 -63v-335h72v-60h-213z" />
    <glyph glyph-name="lslash.sc" horiz-adv-x="491" 
d="M393 60v97h66v-157h-408v60h86v138l-81 -42l-27 51l108 56v186h-86v59h245v-59h-89v-150l123 64l26 -52l-149 -77v-174h186z" />
    <glyph glyph-name="Nacute" unicode="&#x143;" horiz-adv-x="764" 
d="M351 717l-19 24l121 126c13 14 28 23 43 23c21 0 40 -16 40 -43c0 -14 -13 -31 -34 -44zM606 -3l-403 531v-462h86v-66h-242v66h84v526h-84v66h149l380 -501v435h-87v66h239v-66h-81v-594z" />
    <glyph glyph-name="nacute" unicode="&#x144;" horiz-adv-x="563" 
d="M259 503l-19 24l121 126c13 14 28 23 43 23c21 0 40 -16 40 -43c0 -14 -13 -31 -34 -44zM175 426v-79c40 47 99 87 160 87c55 0 92 -21 113 -55c14 -24 21 -54 21 -89v-230h68v-60h-204v60h67v216c0 23 -3 42 -11 57c-12 25 -36 37 -71 37c-53 0 -102 -33 -140 -75v-235
h67v-60h-204v60h68v305h-68v61h134z" />
    <glyph glyph-name="nacute.sc" horiz-adv-x="659" 
d="M300 573l-19 24l121 126c13 14 28 23 43 23c21 0 40 -16 40 -43c0 -14 -13 -31 -34 -44zM190 508l284 -371v312h-86v59h238v-59h-86v-452h-44l-300 395v-332h85v-60h-238v60h86v389h-86v59h147z" />
    <glyph glyph-name="Ncaron" unicode="&#x147;" horiz-adv-x="764" 
d="M503 899l31 -37l-154 -147l-154 147l31 37l123 -93zM606 -3l-403 531v-462h86v-66h-242v66h84v526h-84v66h149l380 -501v435h-87v66h239v-66h-81v-594z" />
    <glyph glyph-name="ncaron" unicode="&#x148;" horiz-adv-x="563" 
d="M411 685l31 -37l-154 -147l-154 147l31 37l123 -93zM175 426v-79c40 47 99 87 160 87c55 0 92 -21 113 -55c14 -24 21 -54 21 -89v-230h68v-60h-204v60h67v216c0 23 -3 42 -11 57c-12 25 -36 37 -71 37c-53 0 -102 -33 -140 -75v-235h67v-60h-204v60h68v305h-68v61h134z
" />
    <glyph glyph-name="ncaron.sc" horiz-adv-x="659" 
d="M452 755l31 -37l-154 -147l-154 147l31 37l123 -93zM190 508l284 -371v312h-86v59h238v-59h-86v-452h-44l-300 395v-332h85v-60h-238v60h86v389h-86v59h147z" />
    <glyph glyph-name="Ncommaaccent" unicode="&#x145;" horiz-adv-x="764" 
d="M316 -276l-16 23c56 42 75 81 76 103c-24 5 -43 25 -43 50c0 28 23 49 49 49c31 0 56 -22 56 -65c0 -46 -32 -111 -122 -160zM606 -3l-403 531v-462h86v-66h-242v66h84v526h-84v66h149l380 -501v435h-87v66h239v-66h-81v-594z" />
    <glyph glyph-name="ncommaaccent" unicode="&#x146;" horiz-adv-x="563" 
d="M221 -278l-16 23c56 42 75 81 76 103c-24 5 -43 25 -43 50c0 28 23 49 49 49c31 0 56 -22 56 -65c0 -46 -32 -111 -122 -160zM175 426v-79c40 47 99 87 160 87c55 0 92 -21 113 -55c14 -24 21 -54 21 -89v-230h68v-60h-204v60h67v216c0 23 -3 42 -11 57
c-12 25 -36 37 -71 37c-53 0 -102 -33 -140 -75v-235h67v-60h-204v60h68v305h-68v61h134z" />
    <glyph glyph-name="ncommaaccent.sc" horiz-adv-x="659" 
d="M262 -282l-16 23c56 42 75 81 76 103c-24 5 -43 25 -43 50c0 28 23 49 49 49c31 0 56 -22 56 -65c0 -46 -32 -111 -122 -160zM190 508l284 -371v312h-86v59h238v-59h-86v-452h-44l-300 395v-332h85v-60h-238v60h86v389h-86v59h147z" />
    <glyph glyph-name="Ntilde" unicode="&#xd1;" horiz-adv-x="764" 
d="M606 -3l-403 531v-462h86v-66h-242v66h84v526h-84v66h149l380 -501v435h-87v66h239v-66h-81v-594zM454 723c-39 0 -65 18 -88 38c-24 20 -37 28 -51 28c-24 0 -40 -23 -46 -60l-54 12c5 69 49 118 95 118c39 0 65 -19 89 -39c23 -19 36 -27 51 -27c23 0 39 22 46 60
l54 -12c-5 -69 -49 -118 -96 -118z" />
    <glyph glyph-name="ntilde" unicode="&#xf1;" horiz-adv-x="563" 
d="M175 426v-79c40 47 99 87 160 87c55 0 92 -21 113 -55c14 -24 21 -54 21 -89v-230h68v-60h-204v60h67v216c0 23 -3 42 -11 57c-12 25 -36 37 -71 37c-53 0 -102 -33 -140 -75v-235h67v-60h-204v60h68v305h-68v61h134zM362 509c-39 0 -65 18 -88 38c-24 20 -37 28 -51 28
c-24 0 -40 -23 -46 -60l-54 12c5 69 49 118 95 118c39 0 65 -19 89 -39c23 -19 36 -27 51 -27c23 0 39 22 46 60l54 -12c-5 -69 -49 -118 -96 -118z" />
    <glyph glyph-name="ntilde.sc" horiz-adv-x="659" 
d="M190 508l284 -371v312h-86v59h238v-59h-86v-452h-44l-300 395v-332h85v-60h-238v60h86v389h-86v59h147zM403 579c-39 0 -65 18 -88 38c-24 20 -37 28 -51 28c-24 0 -40 -23 -46 -60l-54 12c5 69 49 118 95 118c39 0 65 -19 89 -39c23 -19 36 -27 51 -27c23 0 39 22 46 60
l54 -12c-5 -69 -49 -118 -96 -118z" />
    <glyph glyph-name="Oacute" unicode="&#xd3;" horiz-adv-x="777" 
d="M359 717l-19 24l121 126c13 14 28 23 43 23c21 0 40 -16 40 -43c0 -14 -13 -31 -34 -44zM387 -12c-192 0 -331 150 -331 340c0 193 141 342 335 342c191 0 331 -150 331 -340c0 -193 -142 -342 -335 -342zM389 56c150 0 256 118 256 272c0 155 -106 274 -256 274
c-151 0 -257 -118 -257 -272c0 -155 106 -274 257 -274z" />
    <glyph glyph-name="oacute" unicode="&#xf3;" horiz-adv-x="526" 
d="M233 503l-19 24l121 126c13 14 28 23 43 23c21 0 40 -16 40 -43c0 -14 -13 -31 -34 -44zM263 -8c-133 0 -219 99 -219 221c0 120 87 221 219 221s219 -100 219 -221s-87 -221 -219 -221zM263 52c87 0 147 66 147 161c0 94 -60 161 -147 161s-147 -67 -147 -161
c0 -95 60 -161 147 -161z" />
    <glyph glyph-name="oacute.sc" horiz-adv-x="614" 
d="M307 521c156 0 261 -118 261 -265c0 -149 -105 -266 -262 -266c-156 0 -261 117 -261 266c0 147 106 265 262 265zM306 54c111 0 191 81 191 201c0 118 -80 202 -190 202c-111 0 -190 -83 -190 -202c0 -120 80 -201 189 -201zM278 573l-19 24l121 126c13 14 28 23 43 23
c21 0 40 -16 40 -43c0 -14 -13 -31 -34 -44z" />
    <glyph glyph-name="Obreve" unicode="&#x14e;" horiz-adv-x="777" 
d="M387 -12c-192 0 -331 150 -331 340c0 193 141 342 335 342c191 0 331 -150 331 -340c0 -193 -142 -342 -335 -342zM389 56c150 0 256 118 256 272c0 155 -106 274 -256 274c-151 0 -257 -118 -257 -272c0 -155 106 -274 257 -274zM387 722c-73 0 -133 52 -159 136l49 21
c22 -57 66 -88 110 -88c48 0 89 35 110 88l49 -21c-25 -84 -86 -136 -159 -136z" />
    <glyph glyph-name="obreve" unicode="&#x14f;" horiz-adv-x="526" 
d="M263 -8c-133 0 -219 99 -219 221c0 120 87 221 219 221s219 -100 219 -221s-87 -221 -219 -221zM263 52c87 0 147 66 147 161c0 94 -60 161 -147 161s-147 -67 -147 -161c0 -95 60 -161 147 -161zM262 508c-73 0 -133 52 -159 136l49 21c22 -57 66 -88 110 -88
c48 0 89 35 110 88l49 -21c-25 -84 -86 -136 -159 -136z" />
    <glyph glyph-name="obreve.sc" horiz-adv-x="614" 
d="M307 521c156 0 261 -118 261 -265c0 -149 -105 -266 -262 -266c-156 0 -261 117 -261 266c0 147 106 265 262 265zM306 54c111 0 191 81 191 201c0 118 -80 202 -190 202c-111 0 -190 -83 -190 -202c0 -120 80 -201 189 -201zM306 578c-73 0 -133 52 -159 136l49 21
c22 -57 66 -88 110 -88c48 0 89 35 110 88l49 -21c-25 -84 -86 -136 -159 -136z" />
    <glyph glyph-name="Ocircumflex" unicode="&#xd4;" horiz-adv-x="777" 
d="M265 714l-31 37l154 147l154 -147l-31 -37l-123 93zM387 -12c-192 0 -331 150 -331 340c0 193 141 342 335 342c191 0 331 -150 331 -340c0 -193 -142 -342 -335 -342zM389 56c150 0 256 118 256 272c0 155 -106 274 -256 274c-151 0 -257 -118 -257 -272
c0 -155 106 -274 257 -274z" />
    <glyph glyph-name="ocircumflex" unicode="&#xf4;" horiz-adv-x="526" 
d="M139 500l-31 37l154 147l154 -147l-31 -37l-123 93zM263 -8c-133 0 -219 99 -219 221c0 120 87 221 219 221s219 -100 219 -221s-87 -221 -219 -221zM263 52c87 0 147 66 147 161c0 94 -60 161 -147 161s-147 -67 -147 -161c0 -95 60 -161 147 -161z" />
    <glyph glyph-name="ocircumflex.sc" horiz-adv-x="614" 
d="M184 570l-31 37l154 147l154 -147l-31 -37l-123 93zM307 521c156 0 261 -118 261 -265c0 -149 -105 -266 -262 -266c-156 0 -261 117 -261 266c0 147 106 265 262 265zM306 54c111 0 191 81 191 201c0 118 -80 202 -190 202c-111 0 -190 -83 -190 -202
c0 -120 80 -201 189 -201z" />
    <glyph glyph-name="Odieresis" unicode="&#xd6;" horiz-adv-x="777" 
d="M475 733c-32 0 -57 26 -57 57c0 32 26 58 57 58c32 0 56 -26 56 -58c0 -31 -25 -57 -56 -57zM300 733c-31 0 -56 26 -56 57c0 32 26 58 57 58s56 -26 56 -58c0 -31 -25 -57 -57 -57zM387 -12c-192 0 -331 150 -331 340c0 193 141 342 335 342c191 0 331 -150 331 -340
c0 -193 -142 -342 -335 -342zM389 56c150 0 256 118 256 272c0 155 -106 274 -256 274c-151 0 -257 -118 -257 -272c0 -155 106 -274 257 -274z" />
    <glyph glyph-name="odieresis" unicode="&#xf6;" horiz-adv-x="526" 
d="M350 519c-32 0 -57 26 -57 57c0 32 26 58 57 58c32 0 56 -26 56 -58c0 -31 -25 -57 -56 -57zM175 519c-31 0 -56 26 -56 57c0 32 26 58 57 58s56 -26 56 -58c0 -31 -25 -57 -57 -57zM263 -8c-133 0 -219 99 -219 221c0 120 87 221 219 221s219 -100 219 -221
s-87 -221 -219 -221zM263 52c87 0 147 66 147 161c0 94 -60 161 -147 161s-147 -67 -147 -161c0 -95 60 -161 147 -161z" />
    <glyph glyph-name="odieresis.sc" horiz-adv-x="614" 
d="M394 589c-32 0 -57 26 -57 57c0 32 26 58 57 58c32 0 56 -26 56 -58c0 -31 -25 -57 -56 -57zM219 589c-31 0 -56 26 -56 57c0 32 26 58 57 58s56 -26 56 -58c0 -31 -25 -57 -57 -57zM307 521c156 0 261 -118 261 -265c0 -149 -105 -266 -262 -266
c-156 0 -261 117 -261 266c0 147 106 265 262 265zM306 54c111 0 191 81 191 201c0 118 -80 202 -190 202c-111 0 -190 -83 -190 -202c0 -120 80 -201 189 -201z" />
    <glyph glyph-name="OE" unicode="&#x152;" horiz-adv-x="931" 
d="M420 0c-214 0 -364 128 -364 322c0 199 139 336 363 336h449v-161h-71v96h-248v-226h215v-64h-215v-238h248v96h71v-161h-448zM422 66h52v526h-60c-183 0 -282 -110 -282 -271c0 -158 118 -255 290 -255z" />
    <glyph glyph-name="oe" unicode="&#x153;" horiz-adv-x="843" 
d="M641 53c57 0 99 18 149 47l-6 -67c-44 -27 -98 -41 -151 -41c-90 0 -159 44 -191 107c-32 -63 -96 -107 -181 -107c-131 0 -217 99 -217 221c0 120 87 221 217 221c86 0 150 -45 181 -108c32 64 94 108 173 108c125 0 193 -95 193 -201c0 -16 -1 -29 -3 -40h-328
c10 -94 72 -140 164 -140zM263 52c87 0 147 66 147 161c0 94 -60 161 -147 161s-147 -67 -147 -161c0 -95 60 -161 147 -161zM610 375c-65 0 -122 -46 -132 -127h261c-5 75 -49 127 -129 127z" />
    <glyph glyph-name="oe.sc" horiz-adv-x="762" 
d="M379 60v389h-48c-131 0 -213 -75 -213 -191c0 -119 75 -198 211 -198h50zM336 508h370v-151h-66v92h-191v-164h165v-59h-165v-167h191v91h66v-150h-373c-178 0 -286 102 -286 257c0 153 111 251 289 251z" />
    <glyph glyph-name="Ograve" unicode="&#xd2;" horiz-adv-x="777" 
d="M387 -12c-192 0 -331 150 -331 340c0 193 141 342 335 342c191 0 331 -150 331 -340c0 -193 -142 -342 -335 -342zM389 56c150 0 256 118 256 272c0 155 -106 274 -256 274c-151 0 -257 -118 -257 -272c0 -155 106 -274 257 -274zM417 717l-151 86c-21 13 -34 30 -34 44
c0 27 19 43 40 43c15 0 29 -9 43 -23l120 -126z" />
    <glyph glyph-name="ograve" unicode="&#xf2;" horiz-adv-x="526" 
d="M263 -8c-133 0 -219 99 -219 221c0 120 87 221 219 221s219 -100 219 -221s-87 -221 -219 -221zM263 52c87 0 147 66 147 161c0 94 -60 161 -147 161s-147 -67 -147 -161c0 -95 60 -161 147 -161zM292 503l-151 86c-21 13 -34 30 -34 44c0 27 19 43 40 43
c15 0 29 -9 43 -23l120 -126z" />
    <glyph glyph-name="ograve.sc" horiz-adv-x="614" 
d="M307 521c156 0 261 -118 261 -265c0 -149 -105 -266 -262 -266c-156 0 -261 117 -261 266c0 147 106 265 262 265zM306 54c111 0 191 81 191 201c0 118 -80 202 -190 202c-111 0 -190 -83 -190 -202c0 -120 80 -201 189 -201zM336 573l-151 86c-21 13 -34 30 -34 44
c0 27 19 43 40 43c15 0 29 -9 43 -23l120 -126z" />
    <glyph glyph-name="Ohungarumlaut" unicode="&#x150;" horiz-adv-x="777" 
d="M261 719l-16 24l132 124c15 14 29 23 43 23c22 0 40 -16 40 -41c0 -15 -14 -33 -38 -46zM452 723l-13 25l142 118c16 13 30 19 42 19c24 0 39 -18 39 -40c0 -17 -13 -35 -40 -46zM387 -12c-192 0 -331 150 -331 340c0 193 141 342 335 342c191 0 331 -150 331 -340
c0 -193 -142 -342 -335 -342zM389 56c150 0 256 118 256 272c0 155 -106 274 -256 274c-151 0 -257 -118 -257 -272c0 -155 106 -274 257 -274z" />
    <glyph glyph-name="ohungarumlaut" unicode="&#x151;" horiz-adv-x="526" 
d="M136 505l-16 24l132 124c15 14 29 23 43 23c22 0 40 -16 40 -41c0 -15 -14 -33 -38 -46zM327 509l-13 25l142 118c16 13 30 19 42 19c24 0 39 -18 39 -40c0 -17 -13 -35 -40 -46zM263 -8c-133 0 -219 99 -219 221c0 120 87 221 219 221s219 -100 219 -221
s-87 -221 -219 -221zM263 52c87 0 147 66 147 161c0 94 -60 161 -147 161s-147 -67 -147 -161c0 -95 60 -161 147 -161z" />
    <glyph glyph-name="ohungarumlaut.sc" horiz-adv-x="614" 
d="M307 521c156 0 261 -118 261 -265c0 -149 -105 -266 -262 -266c-156 0 -261 117 -261 266c0 147 106 265 262 265zM306 54c111 0 191 81 191 201c0 118 -80 202 -190 202c-111 0 -190 -83 -190 -202c0 -120 80 -201 189 -201zM180 575l-16 24l132 124c15 14 29 23 43 23
c22 0 40 -16 40 -41c0 -15 -14 -33 -38 -46zM371 579l-13 25l142 118c16 13 30 19 42 19c24 0 39 -18 39 -40c0 -17 -13 -35 -40 -46z" />
    <glyph glyph-name="Omacron" unicode="&#x14c;" horiz-adv-x="777" 
d="M236 749v63h304v-63h-304zM387 -12c-192 0 -331 150 -331 340c0 193 141 342 335 342c191 0 331 -150 331 -340c0 -193 -142 -342 -335 -342zM389 56c150 0 256 118 256 272c0 155 -106 274 -256 274c-151 0 -257 -118 -257 -272c0 -155 106 -274 257 -274z" />
    <glyph glyph-name="omacron" unicode="&#x14d;" horiz-adv-x="526" 
d="M110 535v63h304v-63h-304zM263 -8c-133 0 -219 99 -219 221c0 120 87 221 219 221s219 -100 219 -221s-87 -221 -219 -221zM263 52c87 0 147 66 147 161c0 94 -60 161 -147 161s-147 -67 -147 -161c0 -95 60 -161 147 -161z" />
    <glyph glyph-name="omacron.sc" horiz-adv-x="614" 
d="M307 521c156 0 261 -118 261 -265c0 -149 -105 -266 -262 -266c-156 0 -261 117 -261 266c0 147 106 265 262 265zM306 54c111 0 191 81 191 201c0 118 -80 202 -190 202c-111 0 -190 -83 -190 -202c0 -120 80 -201 189 -201zM155 605v63h304v-63h-304z" />
    <glyph glyph-name="Oslash" unicode="&#xd8;" horiz-adv-x="777" 
d="M387 -12c-77 0 -145 24 -200 65l-80 -94l-47 41l82 94c-54 61 -86 143 -86 234c0 193 141 342 335 342c74 0 141 -23 195 -63l79 92l47 -41l-80 -92c56 -61 90 -144 90 -236c0 -193 -142 -342 -335 -342zM389 56c150 0 256 118 256 272c0 75 -23 140 -63 188l-350 -410
c41 -32 95 -50 157 -50zM132 330c0 -74 22 -139 61 -187l350 411c-41 30 -94 48 -154 48c-151 0 -257 -118 -257 -272z" />
    <glyph glyph-name="oslash" unicode="&#xf8;" horiz-adv-x="526" 
d="M263 -8c-45 0 -86 13 -119 34l-50 -58l-45 38l50 59c-35 40 -55 92 -55 148c0 120 87 221 219 221c46 0 88 -14 122 -37l50 59l45 -38l-51 -60c34 -40 53 -91 53 -145c0 -121 -87 -221 -219 -221zM116 213c0 -42 10 -77 29 -104l202 239c-23 17 -52 26 -84 26
c-87 0 -147 -67 -147 -161zM263 52c87 0 147 66 147 161c0 39 -10 74 -28 100l-201 -239c22 -14 50 -22 82 -22z" />
    <glyph glyph-name="oslash.sc" horiz-adv-x="618" 
d="M308 -10c-60 0 -112 17 -154 47l-62 -72l-45 40l63 72c-40 47 -63 109 -63 179c0 147 106 265 262 265c60 0 112 -18 154 -47l63 73l46 -41l-66 -72c41 -47 64 -110 64 -178c0 -149 -105 -266 -262 -266zM308 54c111 0 191 81 191 201c0 51 -15 96 -41 131l-262 -297
c31 -23 69 -35 112 -35zM119 255c0 -52 15 -97 41 -131l261 298c-31 22 -69 35 -112 35c-111 0 -190 -83 -190 -202z" />
    <glyph glyph-name="Oslashacute" unicode="&#x1fe;" horiz-adv-x="777" 
d="M387 -12c-77 0 -145 24 -200 65l-80 -94l-47 41l82 94c-54 61 -86 143 -86 234c0 193 141 342 335 342c74 0 141 -23 195 -63l79 92l47 -41l-80 -92c56 -61 90 -144 90 -236c0 -193 -142 -342 -335 -342zM389 56c150 0 256 118 256 272c0 75 -23 140 -63 188l-350 -410
c41 -32 95 -50 157 -50zM132 330c0 -74 22 -139 61 -187l350 411c-41 30 -94 48 -154 48c-151 0 -257 -118 -257 -272zM360 717l-19 24l121 126c13 14 28 23 43 23c21 0 40 -16 40 -43c0 -14 -13 -31 -34 -44z" />
    <glyph glyph-name="oslashacute" unicode="&#x1ff;" horiz-adv-x="526" 
d="M263 -8c-45 0 -86 13 -119 34l-50 -58l-45 38l50 59c-35 40 -55 92 -55 148c0 120 87 221 219 221c46 0 88 -14 122 -37l50 59l45 -38l-51 -60c34 -40 53 -91 53 -145c0 -121 -87 -221 -219 -221zM116 213c0 -42 10 -77 29 -104l202 239c-23 17 -52 26 -84 26
c-87 0 -147 -67 -147 -161zM263 52c87 0 147 66 147 161c0 39 -10 74 -28 100l-201 -239c22 -14 50 -22 82 -22zM233 503l-19 24l121 126c13 14 28 23 43 23c21 0 40 -16 40 -43c0 -14 -13 -31 -34 -44z" />
    <glyph glyph-name="oslashacute.sc" horiz-adv-x="618" 
d="M308 -10c-60 0 -112 17 -154 47l-62 -72l-45 40l63 72c-40 47 -63 109 -63 179c0 147 106 265 262 265c60 0 112 -18 154 -47l63 73l46 -41l-66 -72c41 -47 64 -110 64 -178c0 -149 -105 -266 -262 -266zM308 54c111 0 191 81 191 201c0 51 -15 96 -41 131l-262 -297
c31 -23 69 -35 112 -35zM119 255c0 -52 15 -97 41 -131l261 298c-31 22 -69 35 -112 35c-111 0 -190 -83 -190 -202zM281 573l-19 24l121 126c13 14 28 23 43 23c21 0 40 -16 40 -43c0 -14 -13 -31 -34 -44z" />
    <glyph glyph-name="Otilde" unicode="&#xd5;" horiz-adv-x="777" 
d="M387 -12c-192 0 -331 150 -331 340c0 193 141 342 335 342c191 0 331 -150 331 -340c0 -193 -142 -342 -335 -342zM389 56c150 0 256 118 256 272c0 155 -106 274 -256 274c-151 0 -257 -118 -257 -272c0 -155 106 -274 257 -274zM462 723c-39 0 -65 18 -88 38
c-24 20 -37 28 -51 28c-24 0 -40 -23 -46 -60l-54 12c5 69 49 118 95 118c39 0 65 -19 89 -39c23 -19 36 -27 51 -27c23 0 39 22 46 60l54 -12c-5 -69 -49 -118 -96 -118z" />
    <glyph glyph-name="otilde" unicode="&#xf5;" horiz-adv-x="526" 
d="M263 -8c-133 0 -219 99 -219 221c0 120 87 221 219 221s219 -100 219 -221s-87 -221 -219 -221zM263 52c87 0 147 66 147 161c0 94 -60 161 -147 161s-147 -67 -147 -161c0 -95 60 -161 147 -161zM336 509c-39 0 -65 18 -88 38c-24 20 -37 28 -51 28
c-24 0 -40 -23 -46 -60l-54 12c5 69 49 118 95 118c39 0 65 -19 89 -39c23 -19 36 -27 51 -27c23 0 39 22 46 60l54 -12c-5 -69 -49 -118 -96 -118z" />
    <glyph glyph-name="otilde.sc" horiz-adv-x="614" 
d="M307 521c156 0 261 -118 261 -265c0 -149 -105 -266 -262 -266c-156 0 -261 117 -261 266c0 147 106 265 262 265zM306 54c111 0 191 81 191 201c0 118 -80 202 -190 202c-111 0 -190 -83 -190 -202c0 -120 80 -201 189 -201zM381 579c-39 0 -65 18 -88 38
c-24 20 -37 28 -51 28c-24 0 -40 -23 -46 -60l-54 12c5 69 49 118 95 118c39 0 65 -19 89 -39c23 -19 36 -27 51 -27c23 0 39 22 46 60l54 -12c-5 -69 -49 -118 -96 -118z" />
    <glyph glyph-name="Racute" unicode="&#x154;" horiz-adv-x="618" 
d="M278 717l-19 24l121 126c13 14 28 23 43 23c21 0 40 -16 40 -43c0 -14 -13 -31 -34 -44zM47 0v66h84v526h-84v66h250c145 0 239 -73 239 -191c0 -90 -58 -153 -141 -180l138 -221h79v-66h-130l-162 269c-12 -1 -25 -2 -38 -2c-26 0 -57 1 -76 2v-203h86v-66h-245z
M286 332c100 0 175 46 175 133c0 83 -66 127 -168 127h-87v-258c20 -1 48 -2 80 -2z" />
    <glyph glyph-name="racute" unicode="&#x155;" horiz-adv-x="380" 
d="M305 434c42 0 64 -27 64 -56c0 -27 -21 -51 -48 -51c-26 0 -44 17 -51 36c-32 -9 -71 -47 -92 -90v-213h80v-60h-217v60h68v305h-68v61h134v-97c33 59 84 105 130 105zM175 503l-19 24l121 126c13 14 28 23 43 23c21 0 40 -16 40 -43c0 -14 -13 -31 -34 -44z" />
    <glyph glyph-name="racute.sc" horiz-adv-x="547" 
d="M242 573l-19 24l121 126c13 14 28 23 43 23c21 0 40 -16 40 -43c0 -14 -13 -31 -34 -44zM273 449h-72v-187c19 -1 46 -2 71 -2c76 0 129 35 129 97c0 59 -49 92 -128 92zM201 201v-141h85v-60h-241v60h86v389h-86v59h231c118 0 195 -54 195 -150
c0 -68 -43 -118 -105 -140l94 -158h76v-60h-126l-113 202c-17 -2 -28 -2 -36 -2c-16 0 -42 0 -60 1z" />
    <glyph glyph-name="Rcaron" unicode="&#x158;" horiz-adv-x="618" 
d="M430 899l31 -37l-154 -147l-154 147l31 37l123 -93zM47 0v66h84v526h-84v66h250c145 0 239 -73 239 -191c0 -90 -58 -153 -141 -180l138 -221h79v-66h-130l-162 269c-12 -1 -25 -2 -38 -2c-26 0 -57 1 -76 2v-203h86v-66h-245zM286 332c100 0 175 46 175 133
c0 83 -66 127 -168 127h-87v-258c20 -1 48 -2 80 -2z" />
    <glyph glyph-name="rcaron" unicode="&#x159;" horiz-adv-x="380" 
d="M305 434c42 0 64 -27 64 -56c0 -27 -21 -51 -48 -51c-26 0 -44 17 -51 36c-32 -9 -71 -47 -92 -90v-213h80v-60h-217v60h68v305h-68v61h134v-97c33 59 84 105 130 105zM328 685l31 -37l-154 -147l-154 147l31 37l123 -93z" />
    <glyph glyph-name="rcaron.sc" horiz-adv-x="547" 
d="M394 755l31 -37l-154 -147l-154 147l31 37l123 -93zM273 449h-72v-187c19 -1 46 -2 71 -2c76 0 129 35 129 97c0 59 -49 92 -128 92zM201 201v-141h85v-60h-241v60h86v389h-86v59h231c118 0 195 -54 195 -150c0 -68 -43 -118 -105 -140l94 -158h76v-60h-126l-113 202
c-17 -2 -28 -2 -36 -2c-16 0 -42 0 -60 1z" />
    <glyph glyph-name="Rcommaaccent" unicode="&#x156;" horiz-adv-x="618" 
d="M240 -278l-16 23c56 42 75 81 76 103c-24 5 -43 25 -43 50c0 28 23 49 49 49c31 0 56 -22 56 -65c0 -46 -32 -111 -122 -160zM47 0v66h84v526h-84v66h250c145 0 239 -73 239 -191c0 -90 -58 -153 -141 -180l138 -221h79v-66h-130l-162 269c-12 -1 -25 -2 -38 -2
c-26 0 -57 1 -76 2v-203h86v-66h-245zM286 332c100 0 175 46 175 133c0 83 -66 127 -168 127h-87v-258c20 -1 48 -2 80 -2z" />
    <glyph glyph-name="rcommaaccent" unicode="&#x157;" horiz-adv-x="380" 
d="M305 434c42 0 64 -27 64 -56c0 -27 -21 -51 -48 -51c-26 0 -44 17 -51 36c-32 -9 -71 -47 -92 -90v-213h80v-60h-217v60h68v305h-68v61h134v-97c33 59 84 105 130 105zM75 -278l-16 23c56 42 75 81 76 103c-24 5 -43 25 -43 50c0 28 23 49 49 49c31 0 56 -22 56 -65
c0 -46 -32 -111 -122 -160z" />
    <glyph glyph-name="rcommaaccent.sc" horiz-adv-x="547" 
d="M218 -282l-16 23c56 42 75 81 76 103c-24 5 -43 25 -43 50c0 28 23 49 49 49c31 0 56 -22 56 -65c0 -46 -32 -111 -122 -160zM273 449h-72v-187c19 -1 46 -2 71 -2c76 0 129 35 129 97c0 59 -49 92 -128 92zM201 201v-141h85v-60h-241v60h86v389h-86v59h231
c118 0 195 -54 195 -150c0 -68 -43 -118 -105 -140l94 -158h76v-60h-126l-113 202c-17 -2 -28 -2 -36 -2c-16 0 -42 0 -60 1z" />
    <glyph glyph-name="Sacute" unicode="&#x15a;" horiz-adv-x="549" 
d="M252 717l-19 24l121 126c13 14 28 23 43 23c21 0 40 -16 40 -43c0 -14 -13 -31 -34 -44zM274 -11c-129 0 -219 72 -219 136c0 38 23 63 53 63c31 0 52 -23 52 -49c0 -18 -7 -32 -16 -44c22 -22 71 -41 131 -41c88 0 141 45 141 116c0 68 -62 98 -137 127
c-113 43 -199 85 -199 198c0 101 80 175 203 175c108 0 196 -62 196 -130c0 -37 -24 -58 -52 -58c-32 0 -53 24 -53 51c0 16 7 29 14 38c-18 20 -66 33 -107 33c-79 0 -127 -43 -127 -103c0 -70 62 -99 145 -131c108 -42 191 -83 191 -194c0 -116 -92 -187 -216 -187z" />
    <glyph glyph-name="sacute" unicode="&#x15b;" horiz-adv-x="437" 
d="M376 341c0 -27 -18 -46 -42 -46c-26 0 -46 18 -46 44c0 7 1 16 5 24c-15 10 -43 15 -75 15c-59 0 -93 -31 -93 -62c0 -37 39 -50 109 -68c86 -21 158 -45 158 -128c0 -81 -79 -128 -170 -128c-62 0 -125 20 -154 49c-15 15 -23 32 -23 53c0 25 18 47 43 47
c27 0 46 -18 46 -44c0 -9 -3 -17 -7 -26c14 -11 49 -24 95 -24c58 0 104 25 104 66c0 39 -40 54 -101 69c-103 26 -167 50 -167 129c0 64 60 123 162 123c57 0 108 -18 134 -44c15 -15 22 -31 22 -49zM189 503l-19 24l121 126c13 14 28 23 43 23c21 0 40 -16 40 -43
c0 -14 -13 -31 -34 -44z" />
    <glyph glyph-name="sacute.sc" horiz-adv-x="472" 
d="M215 573l-19 24l121 126c13 14 28 23 43 23c21 0 40 -16 40 -43c0 -14 -13 -31 -34 -44zM317 407c0 13 5 25 10 31c-13 13 -49 24 -87 24c-63 0 -104 -30 -104 -76c0 -51 59 -72 115 -93c88 -33 172 -62 172 -154c0 -96 -81 -149 -188 -149c-108 0 -187 56 -187 114
c0 34 18 56 48 56c29 0 50 -21 50 -46c0 -13 -5 -26 -11 -35c16 -15 53 -30 102 -30c72 0 117 31 117 84c0 50 -62 72 -116 92c-92 33 -173 62 -173 155c0 83 71 141 178 141c98 0 171 -49 171 -109c0 -32 -21 -51 -46 -51c-32 0 -51 22 -51 46z" />
    <glyph glyph-name="Scaron" unicode="&#x160;" horiz-adv-x="549" 
d="M404 899l31 -37l-154 -147l-154 147l31 37l123 -93zM274 -11c-129 0 -219 72 -219 136c0 38 23 63 53 63c31 0 52 -23 52 -49c0 -18 -7 -32 -16 -44c22 -22 71 -41 131 -41c88 0 141 45 141 116c0 68 -62 98 -137 127c-113 43 -199 85 -199 198c0 101 80 175 203 175
c108 0 196 -62 196 -130c0 -37 -24 -58 -52 -58c-32 0 -53 24 -53 51c0 16 7 29 14 38c-18 20 -66 33 -107 33c-79 0 -127 -43 -127 -103c0 -70 62 -99 145 -131c108 -42 191 -83 191 -194c0 -116 -92 -187 -216 -187z" />
    <glyph glyph-name="scaron" unicode="&#x161;" horiz-adv-x="437" 
d="M376 341c0 -27 -18 -46 -42 -46c-26 0 -46 18 -46 44c0 7 1 16 5 24c-15 10 -43 15 -75 15c-59 0 -93 -31 -93 -62c0 -37 39 -50 109 -68c86 -21 158 -45 158 -128c0 -81 -79 -128 -170 -128c-62 0 -125 20 -154 49c-15 15 -23 32 -23 53c0 25 18 47 43 47
c27 0 46 -18 46 -44c0 -9 -3 -17 -7 -26c14 -11 49 -24 95 -24c58 0 104 25 104 66c0 39 -40 54 -101 69c-103 26 -167 50 -167 129c0 64 60 123 162 123c57 0 108 -18 134 -44c15 -15 22 -31 22 -49zM342 685l31 -37l-154 -147l-154 147l31 37l123 -93z" />
    <glyph glyph-name="scaron.sc" horiz-adv-x="472" 
d="M367 755l31 -37l-154 -147l-154 147l31 37l123 -93zM317 407c0 13 5 25 10 31c-13 13 -49 24 -87 24c-63 0 -104 -30 -104 -76c0 -51 59 -72 115 -93c88 -33 172 -62 172 -154c0 -96 -81 -149 -188 -149c-108 0 -187 56 -187 114c0 34 18 56 48 56c29 0 50 -21 50 -46
c0 -13 -5 -26 -11 -35c16 -15 53 -30 102 -30c72 0 117 31 117 84c0 50 -62 72 -116 92c-92 33 -173 62 -173 155c0 83 71 141 178 141c98 0 171 -49 171 -109c0 -32 -21 -51 -46 -51c-32 0 -51 22 -51 46z" />
    <glyph glyph-name="Scedilla" unicode="&#x15e;" horiz-adv-x="549" 
d="M279 -199c-38 0 -79 11 -112 28l15 32c26 -11 63 -19 88 -19s42 11 42 29s-16 31 -53 31c-5 0 -16 -2 -18 -2l-19 16l23 74c-113 10 -190 76 -190 135c0 38 23 63 53 63c31 0 52 -23 52 -49c0 -18 -7 -32 -16 -44c22 -22 71 -41 131 -41c88 0 141 45 141 116
c0 68 -62 98 -137 127c-113 43 -199 85 -199 198c0 101 80 175 203 175c108 0 196 -62 196 -130c0 -37 -24 -58 -52 -58c-32 0 -53 24 -53 51c0 16 7 29 14 38c-18 20 -66 33 -107 33c-79 0 -127 -43 -127 -103c0 -70 62 -99 145 -131c108 -42 191 -83 191 -194
c0 -113 -87 -183 -206 -187l-1 -37c62 -3 94 -35 94 -76c0 -40 -34 -75 -98 -75z" />
    <glyph glyph-name="scedilla" unicode="&#x15f;" horiz-adv-x="437" 
d="M226 -199c-38 0 -79 11 -112 28l15 32c26 -11 63 -19 88 -19s42 11 42 29s-16 31 -53 31c-5 0 -16 -2 -18 -2l-19 16l25 78c-53 5 -102 22 -126 47c-15 15 -23 32 -23 53c0 25 18 47 43 47c27 0 46 -18 46 -44c0 -9 -3 -17 -7 -26c14 -11 49 -24 95 -24
c58 0 104 25 104 66c0 39 -40 54 -101 69c-103 26 -167 50 -167 129c0 64 60 123 162 123c57 0 108 -18 134 -44c15 -15 22 -31 22 -49c0 -27 -18 -46 -42 -46c-26 0 -46 18 -46 44c0 7 1 16 5 24c-15 10 -43 15 -75 15c-59 0 -93 -31 -93 -62c0 -37 39 -50 109 -68
c86 -21 158 -45 158 -128c0 -78 -73 -124 -160 -128l-2 -40c62 -3 94 -35 94 -76c0 -40 -34 -75 -98 -75z" />
    <glyph glyph-name="scedilla.sc" horiz-adv-x="480" 
d="M243 -199c-38 0 -79 11 -112 28l15 32c26 -11 63 -19 88 -19s42 11 42 29s-16 31 -53 31c-5 0 -16 -2 -18 -2l-19 16l24 76c-93 8 -158 59 -158 112c0 34 18 56 48 56c29 0 50 -21 50 -46c0 -13 -5 -26 -11 -35c16 -15 53 -30 102 -30c72 0 117 31 117 84
c0 50 -62 72 -116 92c-92 33 -173 62 -173 155c0 83 71 141 178 141c98 0 171 -49 171 -109c0 -32 -21 -51 -46 -51c-32 0 -51 22 -51 46c0 13 5 25 10 31c-13 13 -49 24 -87 24c-63 0 -104 -30 -104 -76c0 -51 59 -72 115 -93c88 -33 172 -62 172 -154
c0 -93 -76 -146 -178 -149l-2 -38c62 -3 94 -35 94 -76c0 -40 -34 -75 -98 -75z" />
    <glyph glyph-name="Scommaaccent" unicode="&#x218;" horiz-adv-x="549" 
d="M214 -278l-16 23c56 42 75 81 76 103c-24 5 -43 25 -43 50c0 28 23 49 49 49c31 0 56 -22 56 -65c0 -46 -32 -111 -122 -160zM274 -11c-129 0 -219 72 -219 136c0 38 23 63 53 63c31 0 52 -23 52 -49c0 -18 -7 -32 -16 -44c22 -22 71 -41 131 -41c88 0 141 45 141 116
c0 68 -62 98 -137 127c-113 43 -199 85 -199 198c0 101 80 175 203 175c108 0 196 -62 196 -130c0 -37 -24 -58 -52 -58c-32 0 -53 24 -53 51c0 16 7 29 14 38c-18 20 -66 33 -107 33c-79 0 -127 -43 -127 -103c0 -70 62 -99 145 -131c108 -42 191 -83 191 -194
c0 -116 -92 -187 -216 -187z" />
    <glyph glyph-name="scommaaccent" unicode="&#x219;" horiz-adv-x="437" 
d="M376 341c0 -27 -18 -46 -42 -46c-26 0 -46 18 -46 44c0 7 1 16 5 24c-15 10 -43 15 -75 15c-59 0 -93 -31 -93 -62c0 -37 39 -50 109 -68c86 -21 158 -45 158 -128c0 -81 -79 -128 -170 -128c-62 0 -125 20 -154 49c-15 15 -23 32 -23 53c0 25 18 47 43 47
c27 0 46 -18 46 -44c0 -9 -3 -17 -7 -26c14 -11 49 -24 95 -24c58 0 104 25 104 66c0 39 -40 54 -101 69c-103 26 -167 50 -167 129c0 64 60 123 162 123c57 0 108 -18 134 -44c15 -15 22 -31 22 -49zM151 -278l-16 23c56 42 75 81 76 103c-24 5 -43 25 -43 50
c0 28 23 49 49 49c31 0 56 -22 56 -65c0 -46 -32 -111 -122 -160z" />
    <glyph glyph-name="scommaaccent.sc" horiz-adv-x="472" 
d="M177 -282l-16 23c56 42 75 81 76 103c-24 5 -43 25 -43 50c0 28 23 49 49 49c31 0 56 -22 56 -65c0 -46 -32 -111 -122 -160zM317 407c0 13 5 25 10 31c-13 13 -49 24 -87 24c-63 0 -104 -30 -104 -76c0 -51 59 -72 115 -93c88 -33 172 -62 172 -154
c0 -96 -81 -149 -188 -149c-108 0 -187 56 -187 114c0 34 18 56 48 56c29 0 50 -21 50 -46c0 -13 -5 -26 -11 -35c16 -15 53 -30 102 -30c72 0 117 31 117 84c0 50 -62 72 -116 92c-92 33 -173 62 -173 155c0 83 71 141 178 141c98 0 171 -49 171 -109
c0 -32 -21 -51 -46 -51c-32 0 -51 22 -51 46z" />
    <glyph glyph-name="Tcaron" unicode="&#x164;" horiz-adv-x="631" 
d="M437 899l31 -37l-154 -147l-154 147l31 37l123 -93zM189 0v66h89v529h-165v-106h-71v169h547v-169h-71v106h-165v-529h89v-66h-253z" />
    <glyph glyph-name="tcaron" unicode="&#x165;" horiz-adv-x="333" 
d="M227 476l-23 18c25 37 36 69 36 103c0 29 -9 42 -9 68c0 25 15 46 45 46c28 0 43 -19 43 -50c0 -64 -42 -133 -92 -185zM200 -8c-45 0 -77 17 -94 50c-8 16 -11 36 -11 59v264h-79v61h79v103l68 27v-130h131v-61h-131v-254c0 -14 2 -24 7 -33c8 -15 24 -22 50 -22
c25 0 56 12 80 26l-9 -66c-22 -12 -52 -24 -91 -24z" />
    <glyph glyph-name="tcaron.sc" horiz-adv-x="530" 
d="M142 0v60h88v389h-129v-95h-65v154h459v-154h-66v95h-129v-389h88v-60h-246zM387 755l31 -37l-154 -147l-154 147l31 37l123 -93z" />
    <glyph glyph-name="Tcommaaccent" unicode="&#x162;" horiz-adv-x="631" 
d="M247 -278l-16 23c56 42 75 81 76 103c-24 5 -43 25 -43 50c0 28 23 49 49 49c31 0 56 -22 56 -65c0 -46 -32 -111 -122 -160zM189 0v66h89v529h-165v-106h-71v169h547v-169h-71v106h-165v-529h89v-66h-253z" />
    <glyph glyph-name="tcommaaccent" unicode="&#x163;" horiz-adv-x="333" 
d="M116 -278l-16 23c56 42 75 81 76 103c-24 5 -43 25 -43 50c0 28 23 49 49 49c31 0 56 -22 56 -65c0 -46 -32 -111 -122 -160zM200 -8c-45 0 -77 17 -94 50c-8 16 -11 36 -11 59v264h-79v61h79v103l68 27v-130h131v-61h-131v-254c0 -14 2 -24 7 -33c8 -15 24 -22 50 -22
c25 0 56 12 80 26l-9 -66c-22 -12 -52 -24 -91 -24z" />
    <glyph glyph-name="tcommaaccent.sc" horiz-adv-x="530" 
d="M142 0v60h88v389h-129v-95h-65v154h459v-154h-66v95h-129v-389h88v-60h-246zM196 -282l-16 23c56 42 75 81 76 103c-24 5 -43 25 -43 50c0 28 23 49 49 49c31 0 56 -22 56 -65c0 -46 -32 -111 -122 -160z" />
    <glyph glyph-name="Thorn" unicode="&#xde;" horiz-adv-x="591" 
d="M47 0v66h84v526h-84v66h244v-63h-85v-75c15 1 62 1 106 1c132 0 231 -67 231 -185c0 -123 -93 -192 -232 -192c-41 0 -86 1 -105 2v-83h89v-63h-248zM316 207c91 0 152 45 152 127c0 83 -67 124 -152 124c-47 0 -94 -1 -110 -2v-247c20 -1 63 -2 110 -2z" />
    <glyph glyph-name="thorn" unicode="&#xfe;" horiz-adv-x="526" 
d="M1 -196v60h68v808h-69v60h138v-363c35 36 77 64 141 64c112 0 201 -87 201 -218c0 -120 -83 -223 -210 -223c-50 0 -96 19 -132 47v-175h82v-60h-219zM266 53c83 0 141 68 142 161c1 96 -59 158 -139 158c-55 0 -96 -26 -131 -62v-209c32 -27 73 -48 128 -48z" />
    <glyph glyph-name="thorn.sc" horiz-adv-x="497" 
d="M201 401c26 1 49 1 76 1c108 0 185 -51 185 -144c0 -95 -78 -146 -186 -146c-24 0 -49 0 -75 1v-54h88v-59h-243v60h86v389h-86v59h243v-59h-88v-48zM201 171c23 -1 47 -1 79 -1c67 0 113 33 113 86c0 55 -46 88 -113 88c-29 0 -54 0 -79 -1v-172z" />
    <glyph glyph-name="Uacute" unicode="&#xda;" horiz-adv-x="710" 
d="M325 717l-19 24l121 126c13 14 28 23 43 23c21 0 40 -16 40 -43c0 -14 -13 -31 -34 -44zM354 -12c-150 0 -238 85 -238 239v365h-83v66h243v-66h-87v-360c0 -117 61 -176 166 -176s167 56 167 174v362h-87v66h242v-66h-83v-362c0 -156 -92 -242 -240 -242z" />
    <glyph glyph-name="uacute" unicode="&#xfa;" horiz-adv-x="553" 
d="M239 503l-19 24l121 126c13 14 28 23 43 23c21 0 40 -16 40 -43c0 -14 -13 -31 -34 -44zM228 -8c-56 0 -93 21 -114 57c-13 23 -20 53 -20 87v229h-68v61h137v-277c0 -24 4 -43 12 -57c13 -25 35 -36 70 -36c53 0 100 34 140 75v234h-70v61h139v-366h68v-60h-135v79
c-40 -47 -98 -87 -159 -87z" />
    <glyph glyph-name="uacute.sc" horiz-adv-x="614" 
d="M278 573l-19 24l121 126c13 14 28 23 43 23c21 0 40 -16 40 -43c0 -14 -13 -31 -34 -44zM178 449v-262c0 -87 50 -137 129 -137c80 0 130 48 130 136v263h-85v59h235v-59h-81v-260c0 -130 -78 -200 -200 -200c-123 0 -197 68 -197 197v263h-81v59h235v-59h-85z" />
    <glyph glyph-name="Ubreve" unicode="&#x16c;" horiz-adv-x="710" 
d="M354 -12c-150 0 -238 85 -238 239v365h-83v66h243v-66h-87v-360c0 -117 61 -176 166 -176s167 56 167 174v362h-87v66h242v-66h-83v-362c0 -156 -92 -242 -240 -242zM354 722c-73 0 -133 52 -159 136l49 21c22 -57 66 -88 110 -88c48 0 89 35 110 88l49 -21
c-25 -84 -86 -136 -159 -136z" />
    <glyph glyph-name="ubreve" unicode="&#x16d;" horiz-adv-x="553" 
d="M228 -8c-56 0 -93 21 -114 57c-13 23 -20 53 -20 87v229h-68v61h137v-277c0 -24 4 -43 12 -57c13 -25 35 -36 70 -36c53 0 100 34 140 75v234h-70v61h139v-366h68v-60h-135v79c-40 -47 -98 -87 -159 -87zM267 508c-73 0 -133 52 -159 136l49 21c22 -57 66 -88 110 -88
c48 0 89 35 110 88l49 -21c-25 -84 -86 -136 -159 -136z" />
    <glyph glyph-name="ubreve.sc" horiz-adv-x="614" 
d="M178 449v-262c0 -87 50 -137 129 -137c80 0 130 48 130 136v263h-85v59h235v-59h-81v-260c0 -130 -78 -200 -200 -200c-123 0 -197 68 -197 197v263h-81v59h235v-59h-85zM306 578c-73 0 -133 52 -159 136l49 21c22 -57 66 -88 110 -88c48 0 89 35 110 88l49 -21
c-25 -84 -86 -136 -159 -136z" />
    <glyph glyph-name="Ucircumflex" unicode="&#xdb;" horiz-adv-x="710" 
d="M231 714l-31 37l154 147l154 -147l-31 -37l-123 93zM354 -12c-150 0 -238 85 -238 239v365h-83v66h243v-66h-87v-360c0 -117 61 -176 166 -176s167 56 167 174v362h-87v66h242v-66h-83v-362c0 -156 -92 -242 -240 -242z" />
    <glyph glyph-name="ucircumflex" unicode="&#xfb;" horiz-adv-x="553" 
d="M145 500l-31 37l154 147l154 -147l-31 -37l-123 93zM228 -8c-56 0 -93 21 -114 57c-13 23 -20 53 -20 87v229h-68v61h137v-277c0 -24 4 -43 12 -57c13 -25 35 -36 70 -36c53 0 100 34 140 75v234h-70v61h139v-366h68v-60h-135v79c-40 -47 -98 -87 -159 -87z" />
    <glyph glyph-name="ucircumflex.sc" horiz-adv-x="614" 
d="M184 570l-31 37l154 147l154 -147l-31 -37l-123 93zM178 449v-262c0 -87 50 -137 129 -137c80 0 130 48 130 136v263h-85v59h235v-59h-81v-260c0 -130 -78 -200 -200 -200c-123 0 -197 68 -197 197v263h-81v59h235v-59h-85z" />
    <glyph glyph-name="Udieresis" unicode="&#xdc;" horiz-adv-x="710" 
d="M442 733c-32 0 -57 26 -57 57c0 32 26 58 57 58c32 0 56 -26 56 -58c0 -31 -25 -57 -56 -57zM267 733c-31 0 -56 26 -56 57c0 32 26 58 57 58s56 -26 56 -58c0 -31 -25 -57 -57 -57zM354 -12c-150 0 -238 85 -238 239v365h-83v66h243v-66h-87v-360
c0 -117 61 -176 166 -176s167 56 167 174v362h-87v66h242v-66h-83v-362c0 -156 -92 -242 -240 -242z" />
    <glyph glyph-name="udieresis" unicode="&#xfc;" horiz-adv-x="553" 
d="M355 519c-32 0 -57 26 -57 57c0 32 26 58 57 58c32 0 56 -26 56 -58c0 -31 -25 -57 -56 -57zM180 519c-31 0 -56 26 -56 57c0 32 26 58 57 58s56 -26 56 -58c0 -31 -25 -57 -57 -57zM228 -8c-56 0 -93 21 -114 57c-13 23 -20 53 -20 87v229h-68v61h137v-277
c0 -24 4 -43 12 -57c13 -25 35 -36 70 -36c53 0 100 34 140 75v234h-70v61h139v-366h68v-60h-135v79c-40 -47 -98 -87 -159 -87z" />
    <glyph glyph-name="udieresis.sc" horiz-adv-x="614" 
d="M394 589c-32 0 -57 26 -57 57c0 32 26 58 57 58c32 0 56 -26 56 -58c0 -31 -25 -57 -56 -57zM219 589c-31 0 -56 26 -56 57c0 32 26 58 57 58s56 -26 56 -58c0 -31 -25 -57 -57 -57zM178 449v-262c0 -87 50 -137 129 -137c80 0 130 48 130 136v263h-85v59h235v-59h-81
v-260c0 -130 -78 -200 -200 -200c-123 0 -197 68 -197 197v263h-81v59h235v-59h-85z" />
    <glyph glyph-name="Ugrave" unicode="&#xd9;" horiz-adv-x="710" 
d="M354 -12c-150 0 -238 85 -238 239v365h-83v66h243v-66h-87v-360c0 -117 61 -176 166 -176s167 56 167 174v362h-87v66h242v-66h-83v-362c0 -156 -92 -242 -240 -242zM384 717l-151 86c-21 13 -34 30 -34 44c0 27 19 43 40 43c15 0 29 -9 43 -23l120 -126z" />
    <glyph glyph-name="ugrave" unicode="&#xf9;" horiz-adv-x="553" 
d="M228 -8c-56 0 -93 21 -114 57c-13 23 -20 53 -20 87v229h-68v61h137v-277c0 -24 4 -43 12 -57c13 -25 35 -36 70 -36c53 0 100 34 140 75v234h-70v61h139v-366h68v-60h-135v79c-40 -47 -98 -87 -159 -87zM298 503l-151 86c-21 13 -34 30 -34 44c0 27 19 43 40 43
c15 0 29 -9 43 -23l120 -126z" />
    <glyph glyph-name="ugrave.sc" horiz-adv-x="614" 
d="M336 573l-151 86c-21 13 -34 30 -34 44c0 27 19 43 40 43c15 0 29 -9 43 -23l120 -126zM178 449v-262c0 -87 50 -137 129 -137c80 0 130 48 130 136v263h-85v59h235v-59h-81v-260c0 -130 -78 -200 -200 -200c-123 0 -197 68 -197 197v263h-81v59h235v-59h-85z" />
    <glyph glyph-name="Uhungarumlaut" unicode="&#x170;" horiz-adv-x="710" 
d="M354 -12c-150 0 -238 85 -238 239v365h-83v66h243v-66h-87v-360c0 -117 61 -176 166 -176s167 56 167 174v362h-87v66h242v-66h-83v-362c0 -156 -92 -242 -240 -242zM228 719l-16 24l132 124c15 14 29 23 43 23c22 0 40 -16 40 -41c0 -15 -14 -33 -38 -46zM419 723
l-13 25l142 118c16 13 30 19 42 19c24 0 39 -18 39 -40c0 -17 -13 -35 -40 -46z" />
    <glyph glyph-name="uhungarumlaut" unicode="&#x171;" horiz-adv-x="553" 
d="M228 -8c-56 0 -93 21 -114 57c-13 23 -20 53 -20 87v229h-68v61h137v-277c0 -24 4 -43 12 -57c13 -25 35 -36 70 -36c53 0 100 34 140 75v234h-70v61h139v-366h68v-60h-135v79c-40 -47 -98 -87 -159 -87zM142 505l-16 24l132 124c15 14 29 23 43 23c22 0 40 -16 40 -41
c0 -15 -14 -33 -38 -46zM333 509l-13 25l142 118c16 13 30 19 42 19c24 0 39 -18 39 -40c0 -17 -13 -35 -40 -46z" />
    <glyph glyph-name="uhungarumlaut.sc" horiz-adv-x="614" 
d="M180 575l-16 24l132 124c15 14 29 23 43 23c22 0 40 -16 40 -41c0 -15 -14 -33 -38 -46zM371 579l-13 25l142 118c16 13 30 19 42 19c24 0 39 -18 39 -40c0 -17 -13 -35 -40 -46zM178 449v-262c0 -87 50 -137 129 -137c80 0 130 48 130 136v263h-85v59h235v-59h-81v-260
c0 -130 -78 -200 -200 -200c-123 0 -197 68 -197 197v263h-81v59h235v-59h-85z" />
    <glyph glyph-name="Umacron" unicode="&#x16a;" horiz-adv-x="710" 
d="M354 -12c-150 0 -238 85 -238 239v365h-83v66h243v-66h-87v-360c0 -117 61 -176 166 -176s167 56 167 174v362h-87v66h242v-66h-83v-362c0 -156 -92 -242 -240 -242zM203 749v63h304v-63h-304z" />
    <glyph glyph-name="umacron" unicode="&#x16b;" horiz-adv-x="553" 
d="M228 -8c-56 0 -93 21 -114 57c-13 23 -20 53 -20 87v229h-68v61h137v-277c0 -24 4 -43 12 -57c13 -25 35 -36 70 -36c53 0 100 34 140 75v234h-70v61h139v-366h68v-60h-135v79c-40 -47 -98 -87 -159 -87zM116 535v63h304v-63h-304z" />
    <glyph glyph-name="umacron.sc" horiz-adv-x="614" 
d="M155 605v63h304v-63h-304zM178 449v-262c0 -87 50 -137 129 -137c80 0 130 48 130 136v263h-85v59h235v-59h-81v-260c0 -130 -78 -200 -200 -200c-123 0 -197 68 -197 197v263h-81v59h235v-59h-85z" />
    <glyph glyph-name="Uogonek" unicode="&#x172;" horiz-adv-x="710" 
d="M382 -201c-70 0 -105 38 -105 93c0 39 20 72 49 97c-133 10 -210 93 -210 238v365h-83v66h243v-66h-87v-360c0 -117 61 -176 166 -176s167 56 167 174v362h-87v66h242v-66h-83v-362c0 -141 -75 -225 -198 -239c-35 -22 -57 -51 -57 -83s18 -52 56 -52c29 0 56 8 77 19
l-3 -53c-16 -11 -50 -23 -87 -23z" />
    <glyph glyph-name="uogonek" unicode="&#x173;" horiz-adv-x="553" 
d="M228 -8c-56 0 -93 21 -114 57c-13 23 -20 53 -20 87v229h-68v61h137v-277c0 -24 4 -43 12 -57c13 -25 35 -36 70 -36c53 0 100 34 140 75v234h-70v61h139v-366h68v-60h-67c-43 -23 -72 -55 -72 -92c0 -32 18 -52 55 -52c30 0 56 8 78 19l-4 -53c-15 -11 -49 -23 -86 -23
c-70 0 -106 38 -106 93c0 46 28 83 67 110v77c-40 -47 -98 -87 -159 -87z" />
    <glyph glyph-name="uogonek.sc" horiz-adv-x="614" 
d="M178 449v-262c0 -87 50 -137 129 -137c80 0 130 48 130 136v263h-85v59h235v-59h-81v-260c0 -121 -68 -189 -175 -199c-33 -22 -55 -50 -55 -82s18 -52 55 -52c30 0 56 8 78 19l-4 -53c-15 -11 -49 -23 -86 -23c-70 0 -106 38 -106 93c0 40 21 74 53 100
c-99 13 -157 79 -157 194v263h-81v59h235v-59h-85z" />
    <glyph glyph-name="Uring" unicode="&#x16e;" horiz-adv-x="710" 
d="M354 708c-61 0 -109 49 -109 111s48 111 109 111c62 0 110 -49 110 -111s-48 -111 -110 -111zM354 759c33 0 56 27 56 60s-23 60 -56 60c-32 0 -55 -27 -55 -60s23 -60 55 -60zM354 -12c-150 0 -238 85 -238 239v365h-83v66h243v-66h-87v-360c0 -117 61 -176 166 -176
s167 56 167 174v362h-87v66h242v-66h-83v-362c0 -156 -92 -242 -240 -242z" />
    <glyph glyph-name="uring" unicode="&#x16f;" horiz-adv-x="553" 
d="M268 494c-61 0 -109 49 -109 111s48 111 109 111c62 0 110 -49 110 -111s-48 -111 -110 -111zM268 545c33 0 56 27 56 60s-23 60 -56 60c-32 0 -55 -27 -55 -60s23 -60 55 -60zM228 -8c-56 0 -93 21 -114 57c-13 23 -20 53 -20 87v229h-68v61h137v-277
c0 -24 4 -43 12 -57c13 -25 35 -36 70 -36c53 0 100 34 140 75v234h-70v61h139v-366h68v-60h-135v79c-40 -47 -98 -87 -159 -87z" />
    <glyph glyph-name="uring.sc" horiz-adv-x="614" 
d="M306 564c-61 0 -109 49 -109 111s48 111 109 111c62 0 110 -49 110 -111s-48 -111 -110 -111zM306 615c33 0 56 27 56 60s-23 60 -56 60c-32 0 -55 -27 -55 -60s23 -60 55 -60zM178 449v-262c0 -87 50 -137 129 -137c80 0 130 48 130 136v263h-85v59h235v-59h-81v-260
c0 -130 -78 -200 -200 -200c-123 0 -197 68 -197 197v263h-81v59h235v-59h-85z" />
    <glyph glyph-name="Wacute" unicode="&#x1e82;" horiz-adv-x="990" 
d="M466 717l-19 24l121 126c13 14 28 23 43 23c21 0 40 -16 40 -43c0 -14 -13 -31 -34 -44zM284 -10l-187 602h-76v66h238v-66h-83l138 -461l165 448h41l166 -447l134 460h-86v66h237v-66h-76l-184 -602h-43l-170 453l-171 -453h-43z" />
    <glyph glyph-name="wacute" unicode="&#x1e83;" horiz-adv-x="696" 
d="M318 503l-19 24l121 126c13 14 28 23 43 23c21 0 40 -16 40 -43c0 -14 -13 -31 -34 -44zM187 -18l-117 383h-63v61h197v-59h-68l77 -269l119 280h37l118 -280l77 269h-72v59h197v-61h-64l-116 -383h-38l-123 290l-124 -290h-37z" />
    <glyph glyph-name="wacute.sc" horiz-adv-x="785" 
d="M222 -10l-140 459h-71v59h225v-59h-80l98 -336l125 329h33l125 -328l97 335h-80v59h220v-59h-71l-140 -459h-45l-126 331l-125 -331h-45zM364 573l-19 24l121 126c13 14 28 23 43 23c21 0 40 -16 40 -43c0 -14 -13 -31 -34 -44z" />
    <glyph glyph-name="Wcircumflex" unicode="&#x174;" horiz-adv-x="990" 
d="M372 714l-31 37l154 147l154 -147l-31 -37l-123 93zM284 -10l-187 602h-76v66h238v-66h-83l138 -461l165 448h41l166 -447l134 460h-86v66h237v-66h-76l-184 -602h-43l-170 453l-171 -453h-43z" />
    <glyph glyph-name="wcircumflex" unicode="&#x175;" horiz-adv-x="696" 
d="M224 500l-31 37l154 147l154 -147l-31 -37l-123 93zM187 -18l-117 383h-63v61h197v-59h-68l77 -269l119 280h37l118 -280l77 269h-72v59h197v-61h-64l-116 -383h-38l-123 290l-124 -290h-37z" />
    <glyph glyph-name="wcircumflex.sc" horiz-adv-x="785" 
d="M270 570l-31 37l154 147l154 -147l-31 -37l-123 93zM222 -10l-140 459h-71v59h225v-59h-80l98 -336l125 329h33l125 -328l97 335h-80v59h220v-59h-71l-140 -459h-45l-126 331l-125 -331h-45z" />
    <glyph glyph-name="Wdieresis" unicode="&#x1e84;" horiz-adv-x="990" 
d="M583 733c-32 0 -57 26 -57 57c0 32 26 58 57 58c32 0 56 -26 56 -58c0 -31 -25 -57 -56 -57zM408 733c-31 0 -56 26 -56 57c0 32 26 58 57 58s56 -26 56 -58c0 -31 -25 -57 -57 -57zM284 -10l-187 602h-76v66h238v-66h-83l138 -461l165 448h41l166 -447l134 460h-86v66
h237v-66h-76l-184 -602h-43l-170 453l-171 -453h-43z" />
    <glyph glyph-name="wdieresis" unicode="&#x1e85;" horiz-adv-x="696" 
d="M435 519c-32 0 -57 26 -57 57c0 32 26 58 57 58c32 0 56 -26 56 -58c0 -31 -25 -57 -56 -57zM260 519c-31 0 -56 26 -56 57c0 32 26 58 57 58s56 -26 56 -58c0 -31 -25 -57 -57 -57zM187 -18l-117 383h-63v61h197v-59h-68l77 -269l119 280h37l118 -280l77 269h-72v59h197
v-61h-64l-116 -383h-38l-123 290l-124 -290h-37z" />
    <glyph glyph-name="wdieresis.sc" horiz-adv-x="785" 
d="M480 589c-32 0 -57 26 -57 57c0 32 26 58 57 58c32 0 56 -26 56 -58c0 -31 -25 -57 -56 -57zM305 589c-31 0 -56 26 -56 57c0 32 26 58 57 58s56 -26 56 -58c0 -31 -25 -57 -57 -57zM222 -10l-140 459h-71v59h225v-59h-80l98 -336l125 329h33l125 -328l97 335h-80v59h220
v-59h-71l-140 -459h-45l-126 331l-125 -331h-45z" />
    <glyph glyph-name="Wgrave" unicode="&#x1e80;" horiz-adv-x="990" 
d="M284 -10l-187 602h-76v66h238v-66h-83l138 -461l165 448h41l166 -447l134 460h-86v66h237v-66h-76l-184 -602h-43l-170 453l-171 -453h-43zM525 717l-151 86c-21 13 -34 30 -34 44c0 27 19 43 40 43c15 0 29 -9 43 -23l120 -126z" />
    <glyph glyph-name="wgrave" unicode="&#x1e81;" horiz-adv-x="696" 
d="M187 -18l-117 383h-63v61h197v-59h-68l77 -269l119 280h37l118 -280l77 269h-72v59h197v-61h-64l-116 -383h-38l-123 290l-124 -290h-37zM377 503l-151 86c-21 13 -34 30 -34 44c0 27 19 43 40 43c15 0 29 -9 43 -23l120 -126z" />
    <glyph glyph-name="wgrave.sc" horiz-adv-x="785" 
d="M222 -10l-140 459h-71v59h225v-59h-80l98 -336l125 329h33l125 -328l97 335h-80v59h220v-59h-71l-140 -459h-45l-126 331l-125 -331h-45zM422 573l-151 86c-21 13 -34 30 -34 44c0 27 19 43 40 43c15 0 29 -9 43 -23l120 -126z" />
    <glyph glyph-name="Yacute" unicode="&#xdd;" horiz-adv-x="642" 
d="M191 0v66h92v197l-194 329h-70v66h221v-66h-68l150 -265l151 265h-71v66h222v-66h-71l-195 -328v-198h93v-66h-260zM291 717l-19 24l121 126c13 14 28 23 43 23c21 0 40 -16 40 -43c0 -14 -13 -31 -34 -44z" />
    <glyph glyph-name="yacute" unicode="&#xfd;" horiz-adv-x="513" 
d="M212 -128c-32 -46 -67 -72 -110 -72c-40 0 -74 23 -74 56c0 28 19 44 43 44s39 -18 45 -37c16 6 32 19 51 48c10 15 20 36 32 60l26 53l-160 341h-59v61h199v-59h-67s121 -274 120 -274l122 274h-70v59h196v-61h-58l-201 -432c-11 -23 -22 -43 -35 -61zM227 503l-19 24
l121 126c13 14 28 23 43 23c21 0 40 -16 40 -43c0 -14 -13 -31 -34 -44z" />
    <glyph glyph-name="yacute.sc" horiz-adv-x="529" 
d="M236 573l-19 24l121 126c13 14 28 23 43 23c21 0 40 -16 40 -43c0 -14 -13 -31 -34 -44zM523 508v-59h-66l-158 -258v-131h88v-60h-245v60h87v131l-157 258h-66v59h217v-59h-76l119 -202l120 202h-77v59h214z" />
    <glyph glyph-name="Ycircumflex" unicode="&#x176;" horiz-adv-x="642" 
d="M191 0v66h92v197l-194 329h-70v66h221v-66h-68l150 -265l151 265h-71v66h222v-66h-71l-195 -328v-198h93v-66h-260zM197 714l-31 37l154 147l154 -147l-31 -37l-123 93z" />
    <glyph glyph-name="ycircumflex" unicode="&#x177;" horiz-adv-x="513" 
d="M212 -128c-32 -46 -67 -72 -110 -72c-40 0 -74 23 -74 56c0 28 19 44 43 44s39 -18 45 -37c16 6 32 19 51 48c10 15 20 36 32 60l26 53l-160 341h-59v61h199v-59h-67s121 -274 120 -274l122 274h-70v59h196v-61h-58l-201 -432c-11 -23 -22 -43 -35 -61zM133 500l-31 37
l154 147l154 -147l-31 -37l-123 93z" />
    <glyph glyph-name="ycircumflex.sc" horiz-adv-x="529" 
d="M142 570l-31 37l154 147l154 -147l-31 -37l-123 93zM523 508v-59h-66l-158 -258v-131h88v-60h-245v60h87v131l-157 258h-66v59h217v-59h-76l119 -202l120 202h-77v59h214z" />
    <glyph glyph-name="Ydieresis" unicode="&#x178;" horiz-adv-x="642" 
d="M191 0v66h92v197l-194 329h-70v66h221v-66h-68l150 -265l151 265h-71v66h222v-66h-71l-195 -328v-198h93v-66h-260zM407 733c-32 0 -57 26 -57 57c0 32 26 58 57 58c32 0 56 -26 56 -58c0 -31 -25 -57 -56 -57zM232 733c-31 0 -56 26 -56 57c0 32 26 58 57 58
s56 -26 56 -58c0 -31 -25 -57 -57 -57z" />
    <glyph glyph-name="ydieresis" unicode="&#xff;" horiz-adv-x="513" 
d="M212 -128c-32 -46 -67 -72 -110 -72c-40 0 -74 23 -74 56c0 28 19 44 43 44s39 -18 45 -37c16 6 32 19 51 48c10 15 20 36 32 60l26 53l-160 341h-59v61h199v-59h-67s121 -274 120 -274l122 274h-70v59h196v-61h-58l-201 -432c-11 -23 -22 -43 -35 -61zM343 519
c-32 0 -57 26 -57 57c0 32 26 58 57 58c32 0 56 -26 56 -58c0 -31 -25 -57 -56 -57zM168 519c-31 0 -56 26 -56 57c0 32 26 58 57 58s56 -26 56 -58c0 -31 -25 -57 -57 -57z" />
    <glyph glyph-name="ydieresis.sc" horiz-adv-x="529" 
d="M352 589c-32 0 -57 26 -57 57c0 32 26 58 57 58c32 0 56 -26 56 -58c0 -31 -25 -57 -56 -57zM177 589c-31 0 -56 26 -56 57c0 32 26 58 57 58s56 -26 56 -58c0 -31 -25 -57 -57 -57zM523 508v-59h-66l-158 -258v-131h88v-60h-245v60h87v131l-157 258h-66v59h217v-59h-76
l119 -202l120 202h-77v59h214z" />
    <glyph glyph-name="Ygrave" unicode="&#x1ef2;" horiz-adv-x="642" 
d="M191 0v66h92v197l-194 329h-70v66h221v-66h-68l150 -265l151 265h-71v66h222v-66h-71l-195 -328v-198h93v-66h-260zM349 717l-151 86c-21 13 -34 30 -34 44c0 27 19 43 40 43c15 0 29 -9 43 -23l120 -126z" />
    <glyph glyph-name="ygrave" unicode="&#x1ef3;" horiz-adv-x="513" 
d="M212 -128c-32 -46 -67 -72 -110 -72c-40 0 -74 23 -74 56c0 28 19 44 43 44s39 -18 45 -37c16 6 32 19 51 48c10 15 20 36 32 60l26 53l-160 341h-59v61h199v-59h-67s121 -274 120 -274l122 274h-70v59h196v-61h-58l-201 -432c-11 -23 -22 -43 -35 -61zM285 503l-151 86
c-21 13 -34 30 -34 44c0 27 19 43 40 43c15 0 29 -9 43 -23l120 -126z" />
    <glyph glyph-name="ygrave.sc" horiz-adv-x="529" 
d="M523 508v-59h-66l-158 -258v-131h88v-60h-245v60h87v131l-157 258h-66v59h217v-59h-76l119 -202l120 202h-77v59h214zM294 573l-151 86c-21 13 -34 30 -34 44c0 27 19 43 40 43c15 0 29 -9 43 -23l120 -126z" />
    <glyph glyph-name="Zacute" unicode="&#x179;" horiz-adv-x="606" 
d="M273 717l-19 24l121 126c13 14 28 23 43 23c21 0 40 -16 40 -43c0 -14 -13 -31 -34 -44zM45 0v36l403 560h-314v-104h-68v166h488v-36l-403 -560h343v104h67v-166h-516z" />
    <glyph glyph-name="zacute" unicode="&#x17a;" horiz-adv-x="450" 
d="M195 503l-19 24l121 126c13 14 28 23 43 23c21 0 40 -16 40 -43c0 -14 -13 -31 -34 -44zM37 0v31l273 338h-195v-83h-61v140h356v-31l-273 -338h216v83h61v-140h-377z" />
    <glyph glyph-name="zacute.sc" horiz-adv-x="498" 
d="M221 573l-19 24l121 126c13 14 28 23 43 23c21 0 40 -16 40 -43c0 -14 -13 -31 -34 -44zM44 0v39l312 411h-236v-93h-63v151h398v-38l-312 -411h250v92h64v-151h-413z" />
    <glyph glyph-name="Zcaron" unicode="&#x17d;" horiz-adv-x="606" 
d="M424 899l31 -37l-154 -147l-154 147l31 37l123 -93zM45 0v36l403 560h-314v-104h-68v166h488v-36l-403 -560h343v104h67v-166h-516z" />
    <glyph glyph-name="zcaron" unicode="&#x17e;" horiz-adv-x="450" 
d="M348 685l31 -37l-154 -147l-154 147l31 37l123 -93zM37 0v31l273 338h-195v-83h-61v140h356v-31l-273 -338h216v83h61v-140h-377z" />
    <glyph glyph-name="zcaron.sc" horiz-adv-x="498" 
d="M372 755l31 -37l-154 -147l-154 147l31 37l123 -93zM44 0v39l312 411h-236v-93h-63v151h398v-38l-312 -411h250v92h64v-151h-413z" />
    <glyph glyph-name="Zdotaccent" unicode="&#x17b;" horiz-adv-x="606" 
d="M45 0v36l403 560h-314v-104h-68v166h488v-36l-403 -560h343v104h67v-166h-516zM301 728c-32 0 -57 27 -57 59c0 33 26 59 58 59s57 -26 57 -59c0 -32 -26 -59 -58 -59z" />
    <glyph glyph-name="zdotaccent" unicode="&#x17c;" horiz-adv-x="450" 
d="M37 0v31l273 338h-195v-83h-61v140h356v-31l-273 -338h216v83h61v-140h-377zM224 514c-32 0 -57 27 -57 59c0 33 26 59 58 59s57 -26 57 -59c0 -32 -26 -59 -58 -59z" />
    <glyph glyph-name="zdotaccent.sc" horiz-adv-x="498" 
d="M44 0v39l312 411h-236v-93h-63v151h398v-38l-312 -411h250v92h64v-151h-413zM249 584c-32 0 -57 27 -57 59c0 33 26 59 58 59s57 -26 57 -59c0 -32 -26 -59 -58 -59z" />
    <glyph glyph-name="schwa" unicode="&#x259;" horiz-adv-x="485" 
d="M235 -8c-127 0 -195 95 -195 201c0 16 1 29 4 40h327c-10 93 -72 140 -164 140c-56 0 -99 -18 -149 -47l6 66c44 28 99 42 153 42c136 0 227 -90 227 -220c0 -118 -80 -222 -209 -222zM239 51c64 0 121 45 132 127h-261c4 -75 48 -127 129 -127z" />
    <glyph glyph-name="germandbls" unicode="&#xdf;" horiz-adv-x="558" 
d="M368 -8c-78 0 -118 44 -118 82c0 27 20 47 44 47c23 0 44 -17 44 -42c0 -9 -5 -19 -7 -24c6 -4 24 -7 34 -7c54 0 94 32 94 89c0 48 -32 76 -83 105c-64 35 -106 65 -106 130c0 41 17 72 56 111c36 36 49 67 49 106c0 50 -43 90 -97 90c-37 0 -64 -17 -81 -48
c-10 -19 -15 -44 -15 -71v-560h-138v60h69v305h-76v61h76v125c0 46 10 86 29 117c29 46 78 72 142 72c92 0 160 -63 160 -150c0 -59 -24 -100 -65 -139c-34 -33 -44 -51 -44 -77c0 -28 22 -47 74 -76c65 -37 117 -81 117 -159c0 -93 -70 -147 -158 -147z" />
    <glyph glyph-name="zero" unicode="0" horiz-adv-x="554" 
d="M277 -8c-134 0 -230 113 -230 262c0 151 95 262 230 262c134 0 231 -112 231 -262s-96 -262 -231 -262zM277 53c95 0 158 84 158 201s-63 201 -158 201c-94 0 -158 -84 -158 -201s64 -201 158 -201z" />
    <glyph glyph-name="one" unicode="1" horiz-adv-x="409" 
d="M63 0v60h120v374l-107 -27l-16 60l162 43h31v-450h118v-60h-308z" />
    <glyph glyph-name="two" unicode="2" horiz-adv-x="495" 
d="M235 455c-46 0 -86 -18 -104 -40l-3 -5c14 -7 25 -22 25 -38c0 -27 -21 -49 -48 -49c-29 0 -52 24 -52 61c0 18 7 37 19 55c30 42 92 77 167 77c121 0 184 -71 184 -146c0 -84 -70 -131 -151 -181c-62 -38 -116 -76 -147 -130h253v86h62v-145h-394l-9 35
c39 94 118 151 200 203c65 42 116 76 116 131c0 50 -45 86 -118 86z" />
    <glyph glyph-name="three" unicode="3" horiz-adv-x="492" 
d="M35 8c0 33 24 60 54 60c27 0 46 -22 46 -46c0 -16 -8 -33 -25 -41l4 -6c24 -25 70 -39 121 -39c84 0 142 50 142 116c0 47 -26 84 -73 105c-30 14 -69 22 -113 22h-22v59h25c42 0 83 10 115 28c37 22 61 53 61 91c0 63 -53 97 -128 97c-55 0 -90 -16 -108 -38l-3 -4
c15 -7 27 -25 27 -40c0 -27 -24 -46 -48 -46c-28 0 -53 24 -53 60c0 18 6 36 19 55c28 41 87 75 170 75c115 0 194 -71 194 -158c0 -51 -35 -98 -83 -125c-20 -11 -42 -19 -65 -22c21 -4 43 -11 62 -20c54 -27 93 -76 93 -139c0 -108 -93 -178 -213 -178
c-80 0 -149 32 -180 78c-12 17 -19 36 -19 56z" />
    <glyph glyph-name="four" unicode="4" horiz-adv-x="514" 
d="M317 -120v178h-287l-13 30l322 431l52 -39l-270 -363h196v142l67 27v-169h112v-59h-112v-178h-67z" />
    <glyph glyph-name="five" unicode="5" horiz-adv-x="485" 
d="M42 -14c0 31 22 58 52 58c27 0 48 -19 48 -46c0 -13 -7 -28 -17 -36c0 0 0 -1 1 -1c21 -16 54 -24 99 -24c87 0 146 59 146 139c0 78 -54 134 -144 134c-51 0 -97 -12 -134 -29l-31 18l37 309h310v-66h-256l-21 -187c28 9 64 15 102 15c120 0 209 -76 209 -194
c0 -117 -94 -200 -214 -200c-71 0 -126 19 -158 48c-19 18 -29 40 -29 62z" />
    <glyph glyph-name="six" unicode="6" horiz-adv-x="532" 
d="M298 579c-89 0 -173 -97 -178 -276c27 48 89 86 161 86c120 0 206 -86 206 -191c0 -115 -89 -207 -214 -207c-62 0 -114 21 -153 60c-47 48 -68 123 -68 217c0 264 129 372 252 372c50 0 100 -17 129 -47c16 -16 26 -35 26 -57c0 -37 -27 -59 -53 -59
c-30 0 -49 22 -49 49c0 14 5 24 13 31c-16 14 -40 22 -72 22zM273 52c87 0 143 62 143 146c0 74 -54 131 -138 131c-89 0 -150 -67 -150 -141c0 -36 14 -70 40 -96c25 -24 61 -40 105 -40z" />
    <glyph glyph-name="seven" unicode="7" horiz-adv-x="470" 
d="M156 -122l-61 29l255 543h-255v-100h-64v158h393l14 -30z" />
    <glyph glyph-name="eight" unicode="8" horiz-adv-x="504" 
d="M251 -8c-122 0 -207 77 -207 177c0 72 51 131 118 156c-65 28 -105 90 -105 142c0 101 86 172 194 172c110 0 195 -71 195 -172c0 -57 -42 -114 -106 -142c67 -25 120 -84 120 -156c0 -100 -86 -177 -209 -177zM251 352c68 0 124 50 124 112c0 65 -53 114 -124 114
c-70 0 -122 -49 -122 -114c0 -62 55 -112 122 -112zM251 53c78 0 135 52 135 120c0 70 -58 122 -135 122c-76 0 -134 -52 -134 -122c0 -68 58 -120 134 -120z" />
    <glyph glyph-name="nine" unicode="9" horiz-adv-x="532" 
d="M221 -124c-50 0 -102 18 -131 50c-15 16 -23 34 -23 55c0 37 26 59 52 59c31 0 50 -23 50 -49c0 -14 -5 -24 -13 -31c16 -14 40 -22 72 -22c95 0 177 93 183 264c-27 -47 -90 -82 -161 -82c-120 0 -206 84 -206 189c0 116 89 207 214 207c61 0 114 -20 152 -58
c47 -48 69 -124 69 -219c0 -264 -134 -363 -258 -363zM363 416c-25 24 -61 39 -105 39c-86 0 -142 -62 -142 -146c0 -73 53 -128 137 -128c89 0 150 64 150 139c0 36 -14 70 -40 96z" />
    <glyph glyph-name="zero.lin" horiz-adv-x="635" 
d="M316 -12c-144 0 -259 137 -259 340c0 206 116 342 262 342c144 0 259 -137 259 -340c0 -206 -115 -342 -262 -342zM317 56c112 0 185 111 185 272c0 162 -73 274 -185 274c-111 0 -184 -111 -184 -272c0 -162 73 -274 184 -274z" />
    <glyph glyph-name="one.lin" horiz-adv-x="422" 
d="M51 0v66h133v513l-125 -31l-16 66l180 47h35v-595h130v-66h-337z" />
    <glyph glyph-name="two.lin" horiz-adv-x="559" 
d="M64 515c0 21 7 43 20 64c32 50 100 91 193 91c112 0 208 -73 208 -182c0 -106 -69 -157 -166 -224c-82 -55 -155 -123 -182 -200h292v102h68v-166h-431c-1 0 -20 33 -20 33c41 137 140 220 230 283c79 55 132 97 132 173c0 66 -63 114 -135 114c-63 0 -111 -25 -128 -50
l-3 -6c20 -7 33 -28 33 -49c0 -29 -24 -53 -53 -53c-36 0 -58 27 -58 70z" />
    <glyph glyph-name="three.lin" horiz-adv-x="529" 
d="M251 56c94 0 154 57 154 121c0 50 -28 88 -77 110c-32 14 -72 21 -118 21h-27v66h30c45 0 85 10 115 29c37 22 60 56 60 97c0 66 -56 101 -135 101c-57 0 -96 -16 -114 -35l-3 -3c13 -8 24 -21 24 -41c0 -28 -22 -51 -51 -51c-28 0 -55 25 -55 63c0 18 7 37 20 56
c30 42 91 78 183 78c115 0 206 -65 206 -167c0 -56 -33 -104 -82 -132c-19 -11 -41 -20 -63 -25c22 -4 45 -11 65 -21c56 -28 96 -79 96 -146c0 -109 -97 -187 -229 -187c-82 0 -159 33 -194 82c-13 18 -21 38 -21 59c0 35 24 64 55 64c29 0 51 -23 51 -52
c0 -18 -10 -34 -24 -41l4 -3c22 -24 72 -43 130 -43z" />
    <glyph glyph-name="four.lin" horiz-adv-x="551" 
d="M214 0v63h117v131h-303l-14 31l344 450l55 -41l-292 -379h210v138l74 32v-169h111v-63h-111v-129h90v-64h-281z" />
    <glyph glyph-name="five.lin" horiz-adv-x="522" 
d="M245 55c95 0 158 65 158 155c0 76 -55 139 -155 139c-50 0 -105 -16 -138 -32l-33 16l33 325h328v-72h-268l-18 -186c22 8 55 17 104 17c121 0 221 -76 221 -206c0 -139 -105 -223 -232 -223c-72 0 -130 22 -164 54c-21 19 -32 42 -32 66c0 30 20 57 55 57
c29 0 51 -24 51 -52c0 -11 -4 -25 -12 -33h1c21 -15 54 -25 101 -25z" />
    <glyph glyph-name="six.lin" horiz-adv-x="576" 
d="M491 556c0 -37 -24 -57 -52 -57c-32 0 -52 25 -52 52c0 14 4 24 10 31c-15 12 -44 21 -75 21c-108 0 -188 -121 -193 -289c9 14 21 27 35 39c37 32 89 52 139 52c131 0 222 -88 222 -206s-96 -211 -225 -211c-70 0 -127 25 -168 65c-51 52 -75 130 -75 233
c0 270 135 384 268 384c52 0 96 -15 126 -39c25 -20 40 -46 40 -75zM301 54c85 0 149 61 149 143c0 83 -64 142 -152 142c-89 0 -158 -62 -158 -141c0 -39 19 -75 48 -101s69 -43 113 -43z" />
    <glyph glyph-name="seven.lin" horiz-adv-x="497" 
d="M108 0l269 594h-278v-107h-69v171h425l14 -30l-282 -628h-79z" />
    <glyph glyph-name="eight.lin" horiz-adv-x="560" 
d="M280 -10c-135 0 -230 78 -230 188c0 80 67 148 135 164c-71 23 -121 83 -121 148c0 113 98 178 216 178c117 0 216 -65 216 -178c0 -65 -51 -125 -121 -148c67 -16 135 -84 135 -164c0 -110 -96 -188 -230 -188zM280 371c77 0 140 52 140 116c0 67 -59 115 -140 115
c-82 0 -140 -48 -140 -115c0 -64 63 -116 140 -116zM280 56c90 0 154 53 154 125c0 69 -69 128 -154 128c-86 0 -154 -59 -154 -128c0 -72 63 -125 154 -125z" />
    <glyph glyph-name="nine.lin" horiz-adv-x="576" 
d="M81 102c0 37 24 57 52 57c32 0 52 -25 52 -52c0 -13 -5 -24 -11 -32c2 -2 5 -4 8 -5c15 -10 40 -16 75 -16c101 0 188 101 191 283c-36 -54 -103 -90 -175 -90c-131 0 -222 86 -222 209s96 214 226 214c69 0 126 -25 165 -64c52 -52 78 -131 78 -237
c0 -270 -125 -381 -266 -381c-48 0 -95 15 -129 40c-27 19 -44 46 -44 74zM279 313c89 0 158 61 158 140c0 42 -17 79 -47 106c-29 28 -69 45 -114 45c-84 0 -150 -60 -150 -146c0 -87 65 -145 153 -145z" />
    <glyph glyph-name="period" unicode="." horiz-adv-x="206" 
d="M103 -8c-35 0 -61 28 -61 63s26 63 61 63s61 -28 61 -63s-26 -63 -61 -63z" />
    <glyph glyph-name="comma" unicode="," horiz-adv-x="206" 
d="M20 -151l-19 27c66 50 89 96 91 123c-28 5 -52 30 -52 60c0 32 28 58 60 58c35 0 65 -27 65 -78c0 -55 -37 -132 -145 -190z" />
    <glyph glyph-name="colon" unicode=":" horiz-adv-x="225" 
d="M113 258c-34 0 -61 28 -61 62s27 62 61 62s61 -28 61 -62s-27 -62 -61 -62zM113 -8c-34 0 -61 28 -61 62s27 62 61 62s61 -28 61 -62s-27 -62 -61 -62z" />
    <glyph glyph-name="semicolon" unicode=";" horiz-adv-x="225" 
d="M113 258c-34 0 -61 28 -61 62s27 62 61 62s61 -28 61 -62s-27 -62 -61 -62zM31 -149l-19 27c66 49 89 94 90 121c-28 5 -51 30 -51 59c0 31 27 57 59 57c35 0 65 -26 65 -76c0 -54 -37 -131 -144 -188z" />
    <glyph glyph-name="ellipsis" unicode="&#x2026;" horiz-adv-x="620" 
d="M515 -8c-34 0 -59 27 -59 61s25 61 59 61s60 -27 60 -61s-26 -61 -60 -61zM310 -8c-34 0 -60 27 -60 61s26 61 60 61s60 -27 60 -61s-26 -61 -60 -61zM105 -8c-34 0 -60 27 -60 61s26 61 60 61s60 -27 60 -61s-26 -61 -60 -61z" />
    <glyph glyph-name="periodcentered" unicode="&#xb7;" horiz-adv-x="262" 
d="M131 191c-35 0 -62 28 -62 63s27 63 62 63c34 0 61 -28 61 -63s-27 -63 -61 -63z" />
    <glyph glyph-name="bullet" unicode="&#x2022;" horiz-adv-x="289" 
d="M144 172c-55 0 -97 44 -97 99c0 56 42 101 97 101s97 -45 97 -101c0 -55 -42 -99 -97 -99z" />
    <glyph glyph-name="bullet.alt" horiz-adv-x="631" 
d="M315 -48c-159 0 -262 120 -262 266c0 144 104 265 262 265c160 0 264 -120 264 -265s-105 -266 -264 -266z" />
    <glyph glyph-name="ampersand" unicode="&#x26;" horiz-adv-x="619" 
d="M595 267h-59c-18 -54 -37 -100 -62 -138c40 -38 97 -88 106 -95l-43 -47c-9 8 -64 57 -103 93c-55 -59 -126 -89 -207 -89c-132 0 -198 77 -198 162c0 80 51 135 137 184c-57 65 -66 100 -66 144c0 69 55 149 158 149c82 0 145 -53 145 -130c0 -63 -38 -111 -140 -172
c16 -17 36 -36 60 -58c0 0 63 -60 106 -101c20 30 36 64 48 98h-57v59h175v-59zM227 53c67 0 120 27 162 69c-44 42 -110 103 -110 103c-30 27 -55 51 -75 72c-71 -43 -102 -84 -102 -142c0 -50 41 -102 125 -102zM171 479c0 -29 7 -58 53 -112c86 53 108 87 108 133
c0 41 -31 72 -74 72c-52 0 -87 -41 -87 -93z" />
    <glyph glyph-name="exclam" unicode="!" horiz-adv-x="255" 
d="M108 182l-26 475h90l-26 -475h-38zM127 -8c-32 0 -57 26 -57 58s25 59 57 59s58 -27 58 -59s-26 -58 -58 -58z" />
    <glyph glyph-name="exclamdown" unicode="&#xa1;" horiz-adv-x="255" 
d="M127 548c-32 0 -57 27 -57 59s25 58 57 58s58 -26 58 -58s-26 -59 -58 -59zM82 0l26 475h38l26 -475h-90z" />
    <glyph glyph-name="question" unicode="?" horiz-adv-x="446" 
d="M21 528c0 25 9 49 25 70c32 42 94 72 165 72c127 0 206 -77 206 -177c0 -89 -67 -167 -184 -194l-10 -117h-42l-16 161c119 23 178 78 178 148c0 69 -50 115 -133 115c-49 0 -88 -15 -109 -43c-2 -3 -4 -6 -5 -9c19 -5 31 -24 31 -42c0 -27 -19 -49 -47 -49
c-30 0 -59 26 -59 65zM203 -8c-32 0 -57 26 -57 58s25 59 57 59s57 -27 57 -59s-25 -58 -57 -58z" />
    <glyph glyph-name="questiondown" unicode="&#xbf;" horiz-adv-x="446" 
d="M425 130c0 -25 -9 -49 -25 -70c-32 -42 -93 -72 -165 -72c-127 0 -206 77 -206 177c0 89 67 167 184 194l10 117h42l16 -161c-119 -23 -178 -78 -178 -148c0 -69 50 -115 133 -115c50 0 89 15 109 43c2 3 3 6 5 8c-20 6 -31 24 -31 43c0 27 19 49 47 49
c30 0 59 -26 59 -65zM243 666c32 0 58 -26 58 -58s-26 -59 -58 -59s-57 27 -57 59s25 58 57 58z" />
    <glyph glyph-name="quotedblleft" unicode="&#x201c;" horiz-adv-x="400" 
d="M290 411c-35 0 -66 27 -66 79c0 55 38 141 145 197l18 -27c-66 -48 -88 -103 -89 -131c28 -5 52 -30 52 -59c0 -33 -28 -59 -60 -59zM98 411c-36 0 -66 27 -66 79c0 55 38 141 145 197l18 -27c-66 -48 -88 -103 -89 -131c28 -5 52 -30 52 -59c0 -33 -28 -59 -60 -59z" />
    <glyph glyph-name="quotedblright" unicode="&#x201d;" horiz-adv-x="400" 
d="M223 400l-18 27c66 48 88 103 89 131c-28 5 -52 30 -52 59c0 33 28 59 60 59c35 0 66 -27 66 -78c0 -56 -38 -141 -145 -198zM31 400l-18 27c65 48 87 103 89 131c-28 5 -53 30 -53 59c0 33 29 59 61 59c35 0 65 -27 65 -78c0 -56 -38 -141 -144 -198z" />
    <glyph glyph-name="quoteleft" unicode="&#x2018;" horiz-adv-x="207" 
d="M98 411c-36 0 -66 27 -66 79c0 55 38 141 145 197l18 -27c-66 -48 -88 -103 -89 -131c28 -5 52 -30 52 -59c0 -33 -28 -59 -60 -59z" />
    <glyph glyph-name="quoteright" unicode="&#x2019;" horiz-adv-x="207" 
d="M31 400l-18 27c65 48 87 103 89 131c-28 5 -53 30 -53 59c0 33 29 59 61 59c35 0 65 -27 65 -78c0 -56 -38 -141 -144 -198z" />
    <glyph glyph-name="quotedblbase" unicode="&#x201e;" horiz-adv-x="402" 
d="M215 -148l-18 26c65 49 87 94 89 121c-28 5 -51 29 -51 58c0 31 27 57 59 57c34 0 63 -27 63 -76c0 -55 -35 -126 -142 -186zM22 -148l-18 26c65 49 87 94 89 121c-28 5 -51 29 -51 58c0 31 27 57 59 57c34 0 63 -27 63 -76c0 -55 -35 -126 -142 -186z" />
    <glyph glyph-name="quotesinglbase" unicode="&#x201a;" horiz-adv-x="209" 
d="M21 -151l-19 27c67 50 90 96 91 123c-28 5 -51 30 -51 60c0 32 28 58 60 58c35 0 65 -27 65 -78c0 -55 -37 -132 -146 -190z" />
    <glyph glyph-name="guillemotleft" unicode="&#xab;" horiz-adv-x="485" 
d="M394 107l-172 168l172 168l43 -41l-124 -127l124 -127zM202 107l-172 168l172 168l43 -41l-124 -127l124 -127z" />
    <glyph glyph-name="guillemotright" unicode="&#xbb;" horiz-adv-x="485" 
d="M283 107l-43 41l124 127l-124 127l43 41l172 -168zM92 107l-43 41l124 127l-124 127l43 41l172 -168z" />
    <glyph glyph-name="guilsinglleft" unicode="&#x2039;" horiz-adv-x="294" 
d="M202 107l-172 168l172 168l43 -41l-124 -127l124 -127z" />
    <glyph glyph-name="guilsinglright" unicode="&#x203a;" horiz-adv-x="294" 
d="M92 107l-43 41l124 127l-124 127l43 41l172 -168z" />
    <glyph glyph-name="hyphen" unicode="-" horiz-adv-x="305" 
d="M35 243v70h235v-70h-235z" />
    <glyph glyph-name="endash" unicode="&#x2013;" horiz-adv-x="469" 
d="M22 244v68h425v-68h-425z" />
    <glyph glyph-name="emdash" unicode="&#x2014;" horiz-adv-x="754" 
d="M22 244v68h710v-68h-710z" />
    <glyph glyph-name="hyphen.lin" horiz-adv-x="305" 
d="M35 301v70h235v-70h-235z" />
    <glyph glyph-name="endash.lin" horiz-adv-x="469" 
d="M22 302v68h425v-68h-425z" />
    <glyph glyph-name="emdash.lin" horiz-adv-x="754" 
d="M22 302v68h710v-68h-710z" />
    <glyph glyph-name="underscore" unicode="_" horiz-adv-x="533" 
d="M-6 -148v67h545v-67h-545z" />
    <glyph glyph-name="slash" unicode="/" horiz-adv-x="465" 
d="M39 -209l-61 27l410 924l61 -27z" />
    <glyph glyph-name="backslash" unicode="\" horiz-adv-x="465" 
d="M426 -209l-410 924l61 27l410 -924z" />
    <glyph glyph-name="bar" unicode="|" horiz-adv-x="270" 
d="M104 -200v932h62v-932h-62z" />
    <glyph glyph-name="parenleft" unicode="(" horiz-adv-x="364" 
d="M350 -226c-159 91 -281 272 -281 486s122 395 281 487l36 -52c-144 -89 -244 -245 -244 -435c0 -188 100 -345 244 -434z" />
    <glyph glyph-name="parenright" unicode=")" horiz-adv-x="364" 
d="M14 -226l-36 52c144 89 244 245 244 434s-100 346 -244 435l36 52c159 -92 281 -273 281 -487s-122 -395 -281 -486z" />
    <glyph glyph-name="parenleft.lin" horiz-adv-x="364" 
d="M350 -166c-159 91 -281 272 -281 486s122 395 281 487l36 -52c-144 -89 -242 -245 -242 -435c0 -188 98 -345 242 -434z" />
    <glyph glyph-name="parenright.lin" horiz-adv-x="364" 
d="M14 -166l-36 52c144 89 242 245 242 434s-98 346 -242 435l36 52c159 -92 281 -273 281 -487s-122 -395 -281 -486z" />
    <glyph glyph-name="bracketleft" unicode="[" 
d="M101 -200v932h229v-64h-158v-804h158v-64h-229z" />
    <glyph glyph-name="bracketright" unicode="]" 
d="M23 -200v64h159v804h-159v64h229v-932h-229z" />
    <glyph glyph-name="bracketleft.lin" 
d="M101 -140v932h229v-64h-160v-804h160v-64h-229z" />
    <glyph glyph-name="bracketright.lin" 
d="M23 -140v64h161v804h-161v64h229v-932h-229z" />
    <glyph glyph-name="braceleft" unicode="{" horiz-adv-x="347" 
d="M295 -217c-152 4 -229 68 -229 156c0 56 30 89 78 136c26 26 47 49 47 78c0 49 -52 80 -120 80h-19v62h19c68 0 120 31 120 80c0 29 -21 52 -47 78c-48 47 -78 80 -78 136c0 88 77 152 229 156v-55c-119 -6 -160 -55 -160 -101c0 -30 26 -61 61 -98s67 -74 67 -117
c0 -42 -31 -92 -117 -110c86 -18 117 -68 117 -110c0 -43 -32 -80 -67 -117s-61 -68 -61 -98c0 -46 41 -95 160 -101v-55z" />
    <glyph glyph-name="braceright" unicode="}" horiz-adv-x="347" 
d="M52 -217v55c119 6 160 55 160 101c0 30 -26 61 -61 98s-67 74 -67 117c0 42 31 92 117 110c-86 18 -117 68 -117 110c0 43 32 80 67 117s61 68 61 98c0 46 -41 95 -160 101v55c152 -4 228 -68 228 -156c0 -56 -30 -89 -77 -136c-27 -26 -48 -49 -48 -78
c0 -49 53 -80 121 -80h18v-62h-18c-68 0 -121 -31 -121 -80c0 -29 21 -52 48 -78c47 -47 77 -80 77 -136c0 -88 -76 -152 -228 -156z" />
    <glyph glyph-name="braceleft.lin" horiz-adv-x="347" 
d="M295 -157c-152 4 -229 68 -229 156c0 56 30 89 78 136c26 26 47 49 47 78c0 49 -52 80 -120 80h-19v62h19c68 0 120 31 120 80c0 29 -21 52 -47 78c-48 47 -78 80 -78 136c0 88 77 152 229 156v-55c-119 -6 -160 -55 -160 -101c0 -30 26 -61 61 -98s67 -74 67 -117
c0 -42 -31 -92 -117 -110c86 -18 117 -68 117 -110c0 -43 -32 -80 -67 -117s-61 -68 -61 -98c0 -46 41 -95 160 -101v-55z" />
    <glyph glyph-name="braceright.lin" horiz-adv-x="347" 
d="M52 -157v55c119 6 160 55 160 101c0 30 -26 61 -61 98s-67 74 -67 117c0 42 31 92 117 110c-86 18 -117 68 -117 110c0 43 32 80 67 117s61 68 61 98c0 46 -41 95 -160 101v55c152 -4 228 -68 228 -156c0 -56 -30 -89 -77 -136c-27 -26 -48 -49 -48 -78
c0 -49 53 -80 121 -80h18v-62h-18c-68 0 -121 -31 -121 -80c0 -29 21 -52 48 -78c47 -47 77 -80 77 -136c0 -88 -76 -152 -228 -156z" />
    <glyph glyph-name="at" unicode="@" horiz-adv-x="805" 
d="M337 -176c-175 0 -292 130 -292 305c0 267 196 479 427 479c178 0 291 -117 291 -287c0 -158 -85 -285 -194 -285c-64 0 -94 40 -92 84c-29 -51 -78 -84 -132 -84c-70 0 -123 53 -123 139c0 116 85 216 183 216c60 0 96 -37 108 -82l22 78h64l-56 -224
c-14 -51 -1 -79 36 -79c76 0 138 113 138 237c0 139 -93 245 -245 245c-209 0 -381 -195 -381 -438c0 -146 98 -262 247 -262c57 0 111 14 160 40l19 -36c-54 -30 -116 -46 -180 -46zM370 95c71 0 127 75 127 150c0 54 -31 85 -83 85c-68 0 -120 -71 -120 -149
c0 -51 26 -86 76 -86z" />
    <glyph glyph-name="copyright" unicode="&#xa9;" horiz-adv-x="605" 
d="M299 -8c-147 0 -257 116 -257 262c0 145 110 262 257 262c148 0 257 -117 257 -262s-110 -262 -257 -262zM299 28c123 0 216 101 216 226c0 126 -92 227 -216 227c-123 0 -215 -101 -215 -227c0 -125 92 -226 215 -226zM307 356c-51 0 -90 -43 -90 -97
c0 -53 37 -98 94 -98c29 0 54 12 76 33l23 -26c-24 -28 -62 -43 -100 -43c-79 0 -135 56 -135 132c0 80 63 134 132 134c61 0 99 -34 99 -62c0 -16 -11 -29 -26 -29c-13 0 -24 11 -24 25c0 5 2 11 4 14c-7 9 -24 17 -53 17z" />
    <glyph glyph-name="published" unicode="&#x2117;" horiz-adv-x="605" 
d="M299 -8c-147 0 -257 116 -257 262c0 145 110 262 257 262c148 0 257 -117 257 -262s-110 -262 -257 -262zM299 28c123 0 216 101 216 226c0 126 -92 227 -216 227c-123 0 -215 -101 -215 -227c0 -125 92 -226 215 -226zM314 211h-31v-58h34v-33h-104v33h32v197h-32v33
h104c56 0 98 -32 98 -84c0 -58 -40 -88 -101 -88zM317 244c37 0 60 21 60 55c0 31 -26 51 -62 51h-32v-105c6 0 16 -1 34 -1z" />
    <glyph glyph-name="registered.alt" horiz-adv-x="605" 
d="M299 -8c-147 0 -257 116 -257 262c0 145 110 262 257 262c148 0 257 -117 257 -262s-110 -262 -257 -262zM299 28c123 0 216 101 216 226c0 126 -92 227 -216 227c-123 0 -215 -101 -215 -227c0 -125 92 -226 215 -226zM300 127h-103v34h32v196h-32v33h100
c61 0 101 -27 101 -77c0 -35 -23 -61 -54 -72l48 -80h31v-34h-56l-59 104h-42v-70h34v-34zM296 357h-30v-94h29c38 0 64 18 64 48c0 31 -25 46 -63 46z" />
    <glyph glyph-name="registered" unicode="&#xae;" horiz-adv-x="392" 
d="M196 336c-100 0 -179 79 -179 178c0 100 79 179 179 179c99 0 179 -79 179 -179c0 -99 -80 -178 -179 -178zM196 661c-79 0 -143 -64 -143 -147c0 -82 64 -146 143 -146c78 0 143 64 143 146c0 83 -63 147 -143 147zM128 432v27h19v116h-19v27h67c39 0 68 -17 68 -51
c0 -22 -13 -38 -31 -46l24 -46h20v-27h-41l-34 64h-23v-37h21v-27h-71zM178 523h16c23 0 37 9 37 26c0 18 -14 26 -37 26h-16v-52z" />
    <glyph glyph-name="copyright.lin" horiz-adv-x="782" 
d="M391 -12c-188 0 -334 153 -334 341s146 341 334 341s334 -153 334 -341s-146 -341 -334 -341zM391 26c164 0 291 136 291 303s-127 303 -291 303s-291 -136 -291 -303s127 -303 291 -303zM400 459c-67 0 -118 -55 -118 -124c0 -67 49 -124 119 -124c41 0 71 15 99 43
l32 -35c-32 -35 -78 -55 -131 -55c-97 0 -171 72 -171 170c0 99 80 171 171 171c75 0 128 -43 128 -81c0 -22 -16 -38 -35 -38s-33 13 -33 32c0 8 4 15 8 17c-9 11 -34 24 -69 24z" />
    <glyph glyph-name="published.lin" horiz-adv-x="782" 
d="M391 -12c-188 0 -334 153 -334 341s146 341 334 341s334 -153 334 -341s-146 -341 -334 -341zM391 26c164 0 291 136 291 303s-127 303 -291 303s-291 -136 -291 -303s127 -303 291 -303zM403 277h-37v-68h42v-45h-131v45h39v240h-39v44h131c69 0 123 -41 123 -106
c0 -73 -52 -110 -128 -110zM407 319c46 0 72 26 72 68c0 38 -31 62 -74 62h-39v-129c6 0 19 -1 41 -1z" />
    <glyph glyph-name="registered.lin" horiz-adv-x="782" 
d="M391 -12c-188 0 -334 153 -334 341s146 341 334 341s334 -153 334 -341s-146 -341 -334 -341zM391 26c164 0 291 136 291 303s-127 303 -291 303s-291 -136 -291 -303s127 -303 291 -303zM352 299v-84h43v-44h-131v44h40v241h-40v44h126c75 0 126 -33 126 -97
c0 -45 -25 -77 -64 -90l56 -98h38v-44h-69l-71 128h-54zM352 341h38c44 0 75 21 75 59c0 37 -28 56 -75 56h-38v-115z" />
    <glyph glyph-name="servicemark" unicode="&#x2120;" horiz-adv-x="568" 
d="M230 410v38h35l8 172h-36v38h87l68 -151l67 151h88v-38h-37l8 -172h35v-38h-106v38h31l-6 151l-71 -155h-20l-72 155l-5 -151h31v-38h-105zM104 405c-53 0 -91 28 -91 58c0 16 10 28 25 28c17 0 26 -12 26 -22c0 -7 -2 -11 -4 -15c9 -7 24 -13 43 -13c30 0 49 13 49 35
c0 21 -22 32 -50 41c-46 16 -80 32 -80 76c0 39 34 70 85 70c49 0 84 -24 84 -53c0 -17 -11 -27 -25 -27c-17 0 -26 10 -26 22c0 6 2 9 5 12c-8 5 -22 9 -38 9c-27 0 -43 -11 -43 -31c0 -22 24 -31 51 -40c45 -15 79 -32 79 -77c0 -46 -38 -73 -90 -73z" />
    <glyph glyph-name="trademark" unicode="&#x2122;" horiz-adv-x="613" 
d="M275 410v38h35l8 172h-36v38h87l68 -151l67 151h88v-38h-37l8 -172h35v-38h-106v38h31l-6 151l-71 -155h-20l-72 155l-5 -151h31v-38h-105zM72 410v38h37v174h-58v-39h-38v75h234v-75h-39v39h-57v-174h36v-38h-115z" />
    <glyph glyph-name="asterisk" unicode="*" horiz-adv-x="405" 
d="M324 533l-104 -9l77 -68c25 -21 27 -50 6 -65c-23 -17 -49 -5 -61 25l-40 95l-39 -95c-13 -30 -38 -42 -61 -25c-21 15 -20 44 6 65l77 68l-104 9c-33 3 -50 26 -42 51c8 24 37 30 64 14l89 -52l-24 101c-7 31 8 56 34 56c27 0 42 -25 34 -56l-23 -101l89 52
c27 16 56 10 64 -14c8 -25 -9 -48 -42 -51z" />
    <glyph glyph-name="dagger" unicode="&#x2020;" horiz-adv-x="466" 
d="M215 -2l-15 389l-83 10c0 -34 -24 -57 -50 -57c-29 0 -48 24 -48 50c0 32 25 57 66 57c9 0 21 -2 31 -4l99 -21l-25 153c-7 39 13 65 43 65s50 -26 43 -65l-26 -153l100 21c9 2 21 4 31 4c41 0 66 -25 66 -57c0 -26 -19 -50 -49 -50c-26 0 -50 23 -49 57l-83 -10
l-15 -389h-36z" />
    <glyph glyph-name="daggerdbl" unicode="&#x2021;" horiz-adv-x="475" 
d="M237 -124c-30 0 -49 27 -41 68l23 126l-86 -18c-10 -2 -20 -4 -29 -4c-38 0 -67 23 -67 55c0 25 19 47 48 47c26 0 50 -20 49 -55l69 8l18 155l-18 155l-69 8c1 -35 -23 -55 -49 -55c-29 0 -48 23 -48 48c0 32 29 55 67 55c9 0 19 -2 29 -4l86 -18l-23 125
c-8 42 11 68 41 68c31 0 50 -27 42 -68l-23 -125l86 18c10 2 20 4 29 4c38 0 67 -23 67 -55c0 -25 -20 -48 -48 -48c-26 0 -50 20 -49 55l-69 -8l-18 -155l18 -155l69 -8c-1 35 23 55 49 55c28 0 48 -22 48 -47c0 -32 -29 -55 -67 -55c-9 0 -19 2 -29 4l-86 18l23 -126
c8 -41 -11 -68 -42 -68z" />
    <glyph glyph-name="asciicircum" unicode="^" horiz-adv-x="446" 
d="M101 357l-32 38l154 147l154 -147l-32 -38l-122 89z" />
    <glyph glyph-name="asciitilde" unicode="~" horiz-adv-x="432" 
d="M287 191c-39 0 -65 19 -87 39c-24 20 -37 28 -51 28c-24 0 -40 -21 -47 -59l-54 13c6 69 50 116 97 116c39 0 65 -19 88 -39s36 -28 51 -28c23 0 39 22 46 59l54 -13c-5 -69 -50 -116 -97 -116z" />
    <glyph glyph-name="dollar" unicode="$" horiz-adv-x="465" 
d="M290 574l-6 -69c71 -9 132 -43 132 -93c0 -29 -18 -48 -43 -48c-27 0 -47 19 -47 46c0 8 2 18 6 26c-9 5 -31 12 -56 15l-12 -162c79 -25 157 -58 157 -147c0 -97 -85 -140 -180 -142l-8 -106l-55 5l8 104c-74 10 -148 43 -148 104c0 27 19 48 45 48c29 0 47 -19 47 -44
c0 -9 -3 -19 -7 -29c11 -10 38 -20 72 -24l14 178c-75 23 -148 53 -148 137c0 77 71 130 168 134l6 71zM353 139c0 43 -39 65 -96 83l-14 -167c60 2 110 28 110 84zM129 377c0 -38 36 -57 87 -74l11 150c-56 -3 -98 -29 -98 -76z" />
    <glyph glyph-name="dollar.lin" horiz-adv-x="573" 
d="M276 -102l-61 5l8 101c-107 16 -178 78 -178 131c0 37 25 62 54 62s50 -23 50 -48c0 -18 -7 -32 -16 -44c16 -17 54 -33 99 -40l22 246c-97 31 -176 75 -176 174c0 97 79 169 204 173l8 90l62 -5l-8 -89c91 -15 159 -66 159 -124c0 -36 -24 -57 -51 -57
c-32 0 -53 24 -53 51c0 16 7 28 15 38c-14 14 -47 25 -80 31l-20 -230c112 -34 201 -75 201 -181c0 -115 -99 -180 -230 -182zM443 178c0 62 -49 91 -135 118l-21 -235c93 2 156 46 156 117zM151 489c0 -57 43 -85 109 -109l19 216c-77 -4 -128 -49 -128 -107z" />
    <glyph glyph-name="sterling" unicode="&#xa3;" horiz-adv-x="479" 
d="M363 121h-164v-16c0 -57 -21 -96 -50 -126c33 -3 71 -12 96 -20c49 -16 73 -20 98 -20c41 0 60 15 83 56l49 -27c-28 -65 -67 -92 -130 -92c-35 0 -71 7 -120 26c-31 12 -58 20 -96 20h-15c-23 -32 -56 -46 -80 -46c-28 0 -47 17 -47 37c0 34 34 64 100 67
c31 34 49 77 49 124c0 6 0 11 -1 17h-103v57h93l-10 29c-13 38 -25 76 -25 124c0 98 69 185 184 185c88 0 159 -50 159 -108c0 -39 -24 -58 -48 -58c-26 0 -44 19 -44 45c0 15 7 28 13 34c-12 15 -36 28 -81 28c-75 0 -117 -62 -117 -126c0 -46 9 -79 22 -116
c4 -13 9 -25 12 -37h173v-57z" />
    <glyph glyph-name="sterling.lin" horiz-adv-x="563" 
d="M31 31c0 30 29 64 111 61c31 40 42 83 42 133c0 8 0 16 -1 24h-112v61h99l-10 31c-14 41 -30 84 -30 139c0 105 87 190 196 190c99 0 171 -58 171 -121c0 -32 -23 -58 -53 -58c-32 0 -53 22 -53 49c0 15 8 29 15 37c-13 16 -40 29 -83 29c-66 0 -123 -54 -123 -126
c0 -50 12 -88 25 -126c5 -15 9 -30 13 -44h177v-61h-166c0 -8 1 -16 1 -24c0 -62 -17 -107 -42 -132c30 -1 60 -8 90 -17c52 -16 73 -21 100 -21c48 0 65 18 86 64l53 -25c-22 -72 -62 -105 -137 -105c-43 0 -70 8 -122 26c-37 13 -67 20 -112 21c-23 -32 -58 -49 -85 -49
c-32 0 -50 18 -50 44z" />
    <glyph glyph-name="Euro" unicode="&#x20ac;" horiz-adv-x="595" 
d="M42 288v55h73c36 105 133 173 242 173c111 0 191 -68 191 -130c0 -33 -25 -56 -53 -56c-26 0 -46 20 -46 46c0 17 10 32 18 36c-12 19 -51 43 -111 43c-79 0 -141 -47 -171 -113h183v-54h-198c-2 -12 -3 -23 -3 -35s1 -24 3 -36h198v-54h-182c30 -65 92 -111 173 -111
c58 0 107 23 150 66l41 -47c-50 -52 -120 -80 -191 -80c-121 0 -210 71 -244 171h-73v55h61c-2 11 -2 23 -2 35s0 24 2 36h-61z" />
    <glyph glyph-name="Euro.lin" horiz-adv-x="714" 
d="M36 372v62h98c38 150 155 235 295 235c127 0 224 -86 224 -167c0 -35 -21 -65 -57 -65c-30 0 -51 25 -51 51c0 21 11 39 26 48c-14 27 -74 66 -144 66c-111 0 -190 -62 -220 -170h247v-59h-258c-1 -15 -2 -31 -2 -47c0 -18 1 -35 3 -51h257v-60h-245
c29 -95 99 -158 207 -158c76 0 132 26 188 80l45 -48c-54 -62 -138 -101 -234 -101c-146 0 -245 92 -280 226h-99v62h88c-2 16 -2 33 -2 50c0 15 0 31 2 46h-88z" />
    <glyph glyph-name="yen" unicode="&#xa5;" horiz-adv-x="500" 
d="M78 235v55h104l-103 161h-61v57h183v-56h-56l105 -171l104 171h-57v56h182v-57h-62l-103 -161h105v-55h-137l-3 -5v-54h140v-55h-140v-66h80v-55h-220v55h80v66h-141v55h141v54l-3 5h-138z" />
    <glyph glyph-name="yen.lin" horiz-adv-x="642" 
d="M191 0v60h93v83h-166v58h166v68h-166v58h129l-160 268h-68v63h221v-63h-69l152 -268l150 268h-71v63h222v-63h-70l-160 -268h129v-58h-165v-68h165v-58h-165v-83h93v-60h-260z" />
    <glyph glyph-name="cent" unicode="&#xa2;" horiz-adv-x="502" 
d="M455 348c0 -29 -23 -56 -53 -56c-22 0 -44 15 -44 45c0 8 6 26 21 36c-11 21 -43 36 -77 42l-29 -323h20c54 0 101 15 151 47l-6 -65c-42 -29 -100 -40 -150 -40h-19l-12 -140l-55 5l12 145c-102 28 -169 113 -169 211c0 110 91 209 209 218l9 106l55 -5l-9 -103
c82 -13 146 -69 146 -123zM116 254c0 -70 39 -127 106 -151l27 313c-68 -10 -133 -66 -133 -162z" />
    <glyph glyph-name="cent.lin" horiz-adv-x="501" 
d="M196 -15l13 146c-103 28 -168 112 -168 212c0 115 89 209 208 218l10 111l58 -5l-10 -109c81 -14 144 -69 144 -122c0 -30 -23 -59 -54 -59c-22 0 -45 15 -45 45c0 8 7 27 21 38c-10 20 -40 35 -74 41l-29 -319c7 -1 14 -1 22 -1c46 0 95 15 148 48l-6 -67
c-42 -28 -99 -41 -148 -41h-20l-13 -141zM114 341c0 -68 38 -124 103 -148l27 309c-69 -10 -130 -62 -130 -161z" />
    <glyph glyph-name="numbersign" unicode="#" horiz-adv-x="519" 
d="M50 326v59h102l19 123h63l-19 -123h127l20 123h63l-20 -123h94v-59h-103l-21 -139h93v-59h-102l-20 -128h-63l19 128h-127l-20 -128h-62l19 128h-93v59h102l22 139h-93zM204 328l-22 -142h131l22 142h-131z" />
    <glyph glyph-name="numbersign.lin" horiz-adv-x="586" 
d="M59 412v60h127l29 185h67l-29 -185h123l29 185h67l-29 -185h124v-60h-133l-27 -175h120l-1 -60h-128l-27 -177h-67l27 177h-123l-27 -177h-67l27 177h-122v60h131l27 175h-118zM242 413l-27 -178h126l27 178h-126z" />
    <glyph glyph-name="paragraph" unicode="&#xb6;" horiz-adv-x="576" 
d="M201 0v59h80v134c-17 -1 -42 -1 -71 -1c-102 0 -177 60 -177 157c0 89 78 152 180 152h324v-61h-79v-379h79v-61h-336zM340 59h58v383h-58v-383z" />
    <glyph glyph-name="paragraph.lin" horiz-adv-x="692" 
d="M248 0v66h96v172c-16 -1 -32 -1 -66 -1c-146 0 -244 79 -244 214c0 127 105 207 243 207h369v-66h-84v-526h84v-66h-398zM417 62h71v534h-71v-534z" />
    <glyph glyph-name="section" unicode="&#xa7;" horiz-adv-x="455" 
d="M234 516c78 0 145 -34 145 -83c0 -24 -16 -43 -41 -43c-26 0 -43 17 -43 41c0 6 1 12 3 16c-11 8 -41 16 -66 16c-50 0 -77 -19 -77 -43c0 -28 38 -43 106 -62c79 -22 135 -46 135 -103c0 -43 -34 -70 -78 -86c32 -17 51 -40 51 -77c0 -54 -55 -102 -149 -102
c-75 0 -145 31 -145 83c0 23 15 42 41 42c25 0 43 -16 43 -40c0 -7 -1 -12 -4 -17c12 -9 42 -16 66 -16c52 0 77 19 77 43c0 29 -34 41 -107 62c-76 21 -134 46 -134 101c0 43 33 73 79 88c-35 18 -53 42 -53 78c0 51 57 102 151 102zM227 200l33 -9c37 11 66 29 66 54
c0 29 -33 43 -100 61l-33 9c-36 -11 -66 -31 -66 -55c0 -29 32 -43 100 -60z" />
    <glyph glyph-name="section.lin" horiz-adv-x="535" 
d="M121 141c30 0 52 -19 52 -48c0 -7 -1 -15 -6 -24c15 -12 59 -22 89 -22c75 0 115 28 115 63c0 36 -28 52 -136 81c-108 28 -182 62 -182 134c0 57 48 95 104 117c-46 22 -69 52 -69 101c0 63 71 127 191 127c46 0 88 -10 121 -26c37 -19 60 -47 60 -77
c0 -29 -19 -50 -46 -50c-30 0 -52 19 -52 47c0 9 1 18 5 26l-11 6c-21 9 -54 15 -77 15c-75 0 -115 -28 -115 -64s28 -51 136 -80s182 -62 182 -134c0 -57 -47 -94 -102 -117c43 -20 67 -49 67 -99c0 -67 -71 -129 -191 -129c-62 0 -118 17 -151 46c-19 17 -30 36 -30 57
c0 28 19 50 46 50zM265 407l-48 12c-47 -17 -87 -45 -87 -84c0 -35 29 -58 140 -84l46 -12c50 18 89 46 89 84c0 35 -29 58 -140 84z" />
    <glyph glyph-name="ordfeminine" unicode="&#xaa;" horiz-adv-x="344" 
d="M122 407c-48 0 -84 27 -84 72c0 47 41 77 99 77c27 0 58 -6 71 -10v31c0 19 -7 33 -19 42c-11 8 -27 12 -46 12c-18 0 -29 -3 -36 -8c2 -4 3 -9 3 -15c0 -16 -12 -28 -28 -28c-17 0 -28 12 -28 30c0 29 33 60 96 60c29 0 52 -6 69 -17c23 -15 35 -40 35 -71v-131h40v-39
h-85v31c-21 -20 -53 -36 -87 -36zM47 298v44h247v-44h-247zM135 444c28 0 54 13 73 32v41c-17 5 -41 9 -65 9c-37 0 -57 -17 -57 -43c0 -24 18 -39 49 -39z" />
    <glyph glyph-name="ordmasculine" unicode="&#xba;" horiz-adv-x="351" 
d="M57 298v44h237v-44h-237zM176 406c-81 0 -133 61 -133 132c0 72 53 133 133 133s132 -60 132 -133c0 -71 -52 -132 -132 -132zM176 446c49 0 83 39 83 92c0 54 -34 93 -83 93c-50 0 -84 -39 -84 -93c0 -53 34 -92 84 -92z" />
    <glyph glyph-name="ordfeminine.lin" horiz-adv-x="344" 
d="M122 472c-48 0 -84 27 -84 72c0 47 41 77 99 77c27 0 58 -6 71 -10v31c0 19 -7 33 -19 42c-11 8 -27 12 -46 12c-18 0 -29 -3 -36 -8c2 -4 3 -9 3 -15c0 -16 -12 -28 -28 -28c-17 0 -28 12 -28 30c0 29 33 60 96 60c29 0 52 -6 69 -17c23 -15 35 -40 35 -71v-131h40v-39
h-85v31c-21 -20 -53 -36 -87 -36zM47 363v44h247v-44h-247zM135 509c28 0 54 13 73 32v41c-17 5 -41 9 -65 9c-37 0 -57 -17 -57 -43c0 -24 18 -39 49 -39z" />
    <glyph glyph-name="ordmasculine.lin" horiz-adv-x="351" 
d="M57 363v44h237v-44h-237zM176 471c-81 0 -133 61 -133 132c0 72 53 133 133 133s132 -60 132 -133c0 -71 -52 -132 -132 -132zM176 511c49 0 83 39 83 92c0 54 -34 93 -83 93c-50 0 -84 -39 -84 -93c0 -53 34 -92 84 -92z" />
    <glyph glyph-name="degree" unicode="&#xb0;" horiz-adv-x="302" 
d="M151 411c-75 0 -129 59 -129 130s54 130 129 130c74 0 127 -59 127 -130s-53 -130 -127 -130zM151 456c46 0 79 37 79 85s-33 84 -79 84c-47 0 -80 -36 -80 -84s33 -85 80 -85z" />
    <glyph glyph-name="degree.lin" horiz-adv-x="302" 
d="M151 476c-75 0 -129 59 -129 130s54 130 129 130c74 0 127 -59 127 -130s-53 -130 -127 -130zM151 521c46 0 79 37 79 85s-33 84 -79 84c-47 0 -80 -36 -80 -84s33 -85 80 -85z" />
    <glyph glyph-name="percent" unicode="%" horiz-adv-x="646" 
d="M171 274c-68 0 -121 54 -121 121c0 68 53 122 121 122c67 0 121 -54 121 -122c0 -67 -54 -121 -121 -121zM475 235c68 0 121 -54 121 -121s-53 -122 -121 -122c-67 0 -120 55 -120 122s53 121 120 121zM130 -22l-36 31c21 21 131 156 210 252l206 256l37 -30
c-21 -23 -133 -159 -211 -254s-187 -233 -206 -255zM171 323c38 0 66 32 66 72s-28 72 -66 72s-66 -32 -66 -72s28 -72 66 -72zM475 185c-38 0 -65 -32 -65 -72s27 -72 65 -72c39 0 66 32 66 72s-27 72 -66 72z" />
    <glyph glyph-name="perthousand" unicode="&#x2030;" horiz-adv-x="924" 
d="M171 274c-68 0 -121 54 -121 121c0 68 53 122 121 122c67 0 121 -54 121 -122c0 -67 -54 -121 -121 -121zM753 -8c-68 0 -121 55 -121 122s53 121 121 121c67 0 121 -54 121 -121s-54 -122 -121 -122zM475 -8c-67 0 -120 55 -120 122s53 121 120 121
c68 0 121 -54 121 -121s-53 -122 -121 -122zM130 -22l-36 31c21 21 131 156 210 252l206 256l37 -30c-21 -23 -133 -159 -211 -254s-187 -233 -206 -255zM171 323c38 0 66 32 66 72s-28 72 -66 72s-66 -32 -66 -72s28 -72 66 -72zM753 41c38 0 65 32 65 72s-27 72 -65 72
c-39 0 -66 -32 -66 -72s27 -72 66 -72zM475 41c39 0 66 32 66 72s-27 72 -66 72c-38 0 -65 -32 -65 -72s27 -72 65 -72z" />
    <glyph glyph-name="percent.lin" horiz-adv-x="646" 
d="M326 134c0 80 63 145 144 145c80 0 143 -65 143 -145s-63 -146 -143 -146c-81 0 -144 66 -144 146zM32 524c0 80 64 146 144 146s143 -66 143 -146s-63 -145 -143 -145s-144 65 -144 145zM111 -11l-39 27c11 15 142 201 231 325l231 328l40 -27
c-13 -17 -144 -203 -233 -328zM85 524c0 -54 40 -99 91 -99s90 45 90 99s-39 99 -90 99s-91 -45 -91 -99zM379 134c0 -54 40 -99 91 -99c50 0 90 45 90 99s-40 99 -90 99c-51 0 -91 -45 -91 -99z" />
    <glyph glyph-name="perthousand.lin" horiz-adv-x="985" 
d="M326 134c0 80 63 145 144 145c80 0 143 -65 143 -145s-63 -146 -143 -146c-81 0 -144 66 -144 146zM666 134c0 80 63 145 143 145c81 0 144 -65 144 -145s-63 -146 -144 -146c-80 0 -143 66 -143 146zM32 524c0 80 64 146 144 146s143 -66 143 -146s-63 -145 -143 -145
s-144 65 -144 145zM111 -11l-39 27c11 15 142 201 231 325l231 328l40 -27c-13 -17 -144 -203 -233 -328zM85 524c0 -54 40 -99 91 -99s90 45 90 99s-39 99 -90 99s-91 -45 -91 -99zM379 134c0 -54 40 -99 91 -99c50 0 90 45 90 99s-40 99 -90 99c-51 0 -91 -45 -91 -99z
M719 134c0 -54 40 -99 90 -99c51 0 91 45 91 99s-40 99 -91 99c-50 0 -90 -45 -90 -99z" />
    <glyph glyph-name="quotedbl" unicode="&#x22;" horiz-adv-x="338" 
d="M239 420l-33 179c-9 43 14 71 47 71c34 0 57 -27 48 -71l-34 -179h-28zM69 420l-33 179c-9 43 14 71 47 71c34 0 56 -27 48 -71l-34 -179h-28z" />
    <glyph glyph-name="quotesingle" unicode="'" horiz-adv-x="168" 
d="M69 420l-33 179c-9 43 14 71 47 71c34 0 56 -27 48 -71l-34 -179h-28z" />
    <glyph glyph-name="quotedbl.lin" horiz-adv-x="338" 
d="M239 485l-33 179c-9 43 14 71 47 71c34 0 57 -27 48 -71l-34 -179h-28zM69 485l-33 179c-9 43 14 71 47 71c34 0 56 -27 48 -71l-34 -179h-28z" />
    <glyph glyph-name="quotesingle.lin" horiz-adv-x="168" 
d="M69 485l-33 179c-9 43 14 71 47 71c34 0 56 -27 48 -71l-34 -179h-28z" />
    <glyph glyph-name="plus" unicode="+" horiz-adv-x="416" 
d="M176 104v136h-134v61h134v136h63v-136h135v-61h-135v-136h-63z" />
    <glyph glyph-name="plus.lin" horiz-adv-x="416" 
d="M176 169v136h-134v61h134v136h63v-136h135v-61h-135v-136h-63z" />
    <glyph glyph-name="minus" unicode="&#x2212;" horiz-adv-x="416" 
d="M42 240v61h332v-61h-332z" />
    <glyph glyph-name="minus.lin" horiz-adv-x="416" 
d="M42 305v61h332v-61h-332z" />
    <glyph glyph-name="divide" unicode="&#xf7;" horiz-adv-x="416" 
d="M374 240h-332v61h332v-61zM208 358c-27 0 -49 23 -49 50s23 50 49 50s49 -23 49 -50s-23 -50 -49 -50zM208 84c-27 0 -49 22 -49 49s23 50 49 50s49 -23 49 -50s-23 -49 -49 -49z" />
    <glyph glyph-name="divide.lin" horiz-adv-x="416" 
d="M374 305h-332v61h332v-61zM208 423c-27 0 -49 23 -49 50s23 50 49 50s49 -23 49 -50s-23 -50 -49 -50zM208 149c-27 0 -49 22 -49 49s23 50 49 50s49 -23 49 -50s-23 -49 -49 -49z" />
    <glyph glyph-name="equal" unicode="=" horiz-adv-x="416" 
d="M42 314v61h332v-61h-332zM42 153v61h332v-61h-332z" />
    <glyph glyph-name="equal.lin" horiz-adv-x="416" 
d="M42 379v61h332v-61h-332zM42 218v61h332v-61h-332z" />
    <glyph glyph-name="multiply" unicode="&#xd7;" horiz-adv-x="416" 
d="M312 118l-105 108l-104 -107l-44 44l105 107l-106 107l45 45l105 -108l104 108l44 -45l-105 -106l105 -108z" />
    <glyph glyph-name="multiply.lin" horiz-adv-x="416" 
d="M312 183l-105 108l-104 -107l-44 44l105 107l-106 107l45 45l105 -108l104 108l44 -45l-105 -106l105 -108z" />
    <glyph glyph-name="less" unicode="&#x3c;" horiz-adv-x="389" 
d="M292 79l-251 170v33l251 170l33 -48l-204 -139l204 -138z" />
    <glyph glyph-name="less.lin" horiz-adv-x="389" 
d="M292 144l-251 170v33l251 170l33 -48l-204 -139l204 -138z" />
    <glyph glyph-name="greater" unicode="&#x3e;" horiz-adv-x="389" 
d="M98 79l-34 48l204 138l-204 139l34 48l251 -170v-33z" />
    <glyph glyph-name="greater.lin" horiz-adv-x="389" 
d="M98 144l-34 48l204 138l-204 139l34 48l251 -170v-33z" />
    <glyph glyph-name="plusminus" unicode="&#xb1;" horiz-adv-x="416" 
d="M176 158v135h-134v62h134v135h63v-135h135v-62h-135v-135h-63zM42 18v61h332v-61h-332z" />
    <glyph glyph-name="plusminus.lin" horiz-adv-x="416" 
d="M176 223v135h-134v62h134v135h63v-135h135v-62h-135v-135h-63zM42 83v61h332v-61h-332z" />
    <glyph glyph-name="onehalf" unicode="&#xbd;" horiz-adv-x="795" 
d="M500 -1c-2 0 -15 24 -15 24c28 79 87 124 133 156c38 27 66 48 66 85c0 34 -31 59 -70 59c-36 0 -62 -18 -66 -28c10 -4 17 -16 17 -29c0 -18 -15 -33 -33 -33c-25 0 -37 19 -37 44c0 46 48 91 123 91c65 0 120 -42 120 -104c0 -58 -42 -87 -88 -118
c-40 -26 -82 -60 -102 -104h152v59h45v-102h-245zM49 281v47h95v260l-89 -21l-11 45l126 33h26v-317h94v-47h-241zM227 -13l-38 23l197 321c72 117 170 282 192 320l38 -24l-195 -316c-72 -119 -172 -287 -194 -324z" />
    <glyph glyph-name="onethird" unicode="&#x2153;" horiz-adv-x="795" 
d="M615 -8c-70 0 -129 36 -129 83c0 21 16 39 36 39s33 -15 33 -34c0 -8 -4 -18 -10 -22c7 -7 32 -23 70 -23c45 0 80 27 80 63s-31 65 -98 65h-22v44h24c52 0 88 25 88 63c0 35 -32 53 -71 53c-31 0 -51 -11 -58 -19c5 -4 10 -13 10 -22c0 -18 -15 -33 -33 -33
c-19 0 -36 16 -36 40c0 32 40 76 119 76c70 0 122 -40 122 -93c0 -42 -37 -76 -82 -86c45 -9 91 -43 91 -91c0 -62 -60 -103 -134 -103zM50 281v47h95v260l-89 -21l-11 45l126 33h26v-317h94v-47h-241zM224 -13l-38 23l197 321c72 117 170 282 192 320l38 -24l-195 -316
c-72 -119 -172 -287 -194 -324z" />
    <glyph glyph-name="twothirds" unicode="&#x2154;" horiz-adv-x="795" 
d="M57 281c-2 0 -15 24 -15 24c28 79 87 124 133 156c38 27 66 48 66 85c0 34 -31 59 -70 59c-36 0 -62 -18 -66 -28c10 -4 17 -16 17 -29c0 -18 -15 -33 -33 -33c-25 0 -37 19 -37 44c0 46 48 91 123 91c65 0 120 -42 120 -104c0 -58 -42 -87 -88 -118
c-40 -26 -82 -60 -102 -104h152v59h45v-102h-245zM617 -8c-70 0 -129 36 -129 83c0 21 16 39 36 39s33 -15 33 -34c0 -8 -4 -18 -10 -22c7 -7 32 -23 70 -23c45 0 80 27 80 63s-31 65 -98 65h-22v44h24c52 0 88 25 88 63c0 35 -32 53 -71 53c-31 0 -51 -11 -58 -19
c5 -4 10 -13 10 -22c0 -18 -15 -33 -33 -33c-19 0 -36 16 -36 40c0 32 40 76 119 76c70 0 122 -40 122 -93c0 -42 -37 -76 -82 -86c45 -9 91 -43 91 -91c0 -62 -60 -103 -134 -103zM240 -13l-38 23l197 321c72 117 170 282 192 320l38 -24l-195 -316
c-72 -119 -172 -287 -194 -324z" />
    <glyph glyph-name="onequarter" unicode="&#xbc;" horiz-adv-x="795" 
d="M568 -1v42h67v64h-167l-13 26l192 242l37 -30l-161 -198h112v69l47 20v-87h59v-43h-59v-62h46v-43h-160zM52 281v47h95v260l-89 -21l-11 45l126 33h26v-317h94v-47h-241zM239 -13l-38 23l197 321c72 117 170 282 192 320l38 -24l-195 -316c-72 -119 -172 -287 -194 -324z
" />
    <glyph glyph-name="threequarters" unicode="&#xbe;" horiz-adv-x="795" 
d="M185 274c-70 0 -129 36 -129 83c0 21 16 39 36 39s33 -15 33 -34c0 -8 -4 -18 -10 -22c7 -7 32 -23 70 -23c45 0 80 27 80 63s-31 65 -98 65h-22v44h24c52 0 88 25 88 63c0 35 -32 53 -71 53c-31 0 -51 -11 -58 -19c5 -4 10 -13 10 -22c0 -18 -15 -33 -33 -33
c-19 0 -36 16 -36 40c0 32 40 76 119 76c70 0 122 -40 122 -93c0 -42 -37 -76 -82 -86c45 -9 91 -43 91 -91c0 -62 -60 -103 -134 -103zM566 -1v42h67v64h-167l-13 26l192 242l37 -30l-161 -198h112v69l47 20v-87h59v-43h-59v-62h46v-43h-160zM243 -13l-38 23l197 321
c72 117 170 282 192 320l38 -24l-195 -316c-72 -119 -172 -287 -194 -324z" />
    <glyph glyph-name="onefifth" unicode="&#x2155;" horiz-adv-x="795" 
d="M621 -8c-78 0 -121 36 -121 69c0 21 14 37 35 37c22 0 35 -16 35 -33c0 -6 -2 -12 -5 -16c8 -5 27 -12 53 -12c56 0 88 33 88 79c0 39 -29 70 -84 70c-30 0 -60 -8 -81 -18l-24 12l17 181h201v-49h-157l-9 -88c13 4 32 8 56 8c77 0 133 -44 133 -116
c0 -74 -60 -124 -137 -124zM50 281v47h95v260l-89 -21l-11 45l126 33h26v-317h94v-47h-241zM229 -13l-38 23l197 321c72 117 170 282 192 320l38 -24l-195 -316c-72 -119 -172 -287 -194 -324z" />
    <glyph glyph-name="twofifths" unicode="&#x2156;" horiz-adv-x="795" 
d="M59 281c-2 0 -15 24 -15 24c28 79 87 124 133 156c38 27 66 48 66 85c0 34 -31 59 -70 59c-36 0 -62 -18 -66 -28c10 -4 17 -16 17 -29c0 -18 -15 -33 -33 -33c-25 0 -37 19 -37 44c0 46 48 91 123 91c65 0 120 -42 120 -104c0 -58 -42 -87 -88 -118
c-40 -26 -82 -60 -102 -104h152v59h45v-102h-245zM626 -8c-78 0 -121 36 -121 69c0 21 14 37 35 37c22 0 35 -16 35 -33c0 -6 -2 -12 -5 -16c8 -5 27 -12 53 -12c56 0 88 33 88 79c0 39 -29 70 -84 70c-30 0 -60 -8 -81 -18l-24 12l17 181h201v-49h-157l-9 -88
c13 4 32 8 56 8c77 0 133 -44 133 -116c0 -74 -60 -124 -137 -124zM247 -13l-38 23l197 321c72 117 170 282 192 320l38 -24l-195 -316c-72 -119 -172 -287 -194 -324z" />
    <glyph glyph-name="threefifths" unicode="&#x2157;" horiz-adv-x="795" 
d="M620 -8c-78 0 -121 36 -121 69c0 21 14 37 35 37c22 0 35 -16 35 -33c0 -6 -2 -12 -5 -16c8 -5 27 -12 53 -12c56 0 88 33 88 79c0 39 -29 70 -84 70c-30 0 -60 -8 -81 -18l-24 12l17 181h201v-49h-157l-9 -88c13 4 32 8 56 8c77 0 133 -44 133 -116
c0 -74 -60 -124 -137 -124zM176 274c-70 0 -129 36 -129 83c0 21 16 39 36 39s33 -15 33 -34c0 -8 -4 -18 -10 -22c7 -7 32 -23 70 -23c45 0 80 27 80 63s-31 65 -98 65h-22v44h24c52 0 88 25 88 63c0 35 -32 53 -71 53c-31 0 -51 -11 -58 -19c5 -4 10 -13 10 -22
c0 -18 -15 -33 -33 -33c-19 0 -36 16 -36 40c0 32 40 76 119 76c70 0 122 -40 122 -93c0 -42 -37 -76 -82 -86c45 -9 91 -43 91 -91c0 -62 -60 -103 -134 -103zM227 -13l-38 23l197 321c72 117 170 282 192 320l38 -24l-195 -316c-72 -119 -172 -287 -194 -324z" />
    <glyph glyph-name="fourfifths" unicode="&#x2158;" horiz-adv-x="795" 
d="M623 -8c-78 0 -121 36 -121 69c0 21 14 37 35 37c22 0 35 -16 35 -33c0 -6 -2 -12 -5 -16c8 -5 27 -12 53 -12c56 0 88 33 88 79c0 39 -29 70 -84 70c-30 0 -60 -8 -81 -18l-24 12l17 181h201v-49h-157l-9 -88c13 4 32 8 56 8c77 0 133 -44 133 -116
c0 -74 -60 -124 -137 -124zM146 281v42h67v64h-167l-13 26l192 242l37 -30l-161 -198h112v69l47 20v-87h59v-43h-59v-62h46v-43h-160zM248 -13l-38 23l197 321c72 117 170 282 192 320l38 -24l-195 -316c-72 -119 -172 -287 -194 -324z" />
    <glyph glyph-name="onesixth" unicode="&#x2159;" horiz-adv-x="795" 
d="M729 301c0 -22 -14 -35 -33 -35c-23 0 -34 16 -34 32c0 6 2 12 4 16c-7 5 -20 9 -33 9c-57 0 -100 -60 -102 -143c2 3 6 7 9 10c22 22 51 34 85 34c73 0 123 -49 123 -114c0 -66 -52 -118 -130 -118c-41 0 -73 15 -97 39c-30 31 -41 71 -41 130c0 136 71 207 153 207
c37 0 62 -12 78 -27c13 -13 18 -25 18 -40zM48 281v47h95v260l-89 -21l-11 45l126 33h26v-317h94v-47h-241zM226 -13l-38 23l197 321c72 117 170 282 192 320l38 -24l-195 -316c-72 -119 -172 -287 -194 -324zM619 37c45 0 77 32 77 72c0 41 -29 70 -78 70
c-46 0 -80 -30 -80 -69c0 -20 7 -38 21 -51s35 -22 60 -22z" />
    <glyph glyph-name="fivesixths" unicode="&#x215a;" horiz-adv-x="795" 
d="M729 301c0 -22 -14 -35 -33 -35c-23 0 -34 16 -34 32c0 6 2 12 4 16c-7 5 -20 9 -33 9c-57 0 -100 -60 -102 -143c2 3 6 7 9 10c22 22 51 34 85 34c73 0 123 -49 123 -114c0 -66 -52 -118 -130 -118c-41 0 -73 15 -97 39c-30 31 -41 71 -41 130c0 136 71 207 153 207
c37 0 62 -12 78 -27c13 -13 18 -25 18 -40zM170 274c-78 0 -121 36 -121 69c0 21 14 37 35 37c22 0 35 -16 35 -33c0 -6 -2 -12 -5 -16c8 -5 27 -12 53 -12c56 0 88 33 88 79c0 39 -29 70 -84 70c-30 0 -60 -8 -81 -18l-24 12l17 181h201v-49h-157l-9 -88c13 4 32 8 56 8
c77 0 133 -44 133 -116c0 -74 -60 -124 -137 -124zM227 -13l-38 23l197 321c72 117 170 282 192 320l38 -24l-195 -316c-72 -119 -172 -287 -194 -324zM619 37c45 0 77 32 77 72c0 41 -29 70 -78 70c-46 0 -80 -30 -80 -69c0 -20 7 -38 21 -51s35 -22 60 -22z" />
    <glyph glyph-name="oneeighth" unicode="&#x215b;" horiz-adv-x="795" 
d="M618 -7c-82 0 -134 46 -134 99c0 41 32 80 84 94c-51 15 -75 48 -75 85c0 54 53 95 125 95c70 0 125 -41 125 -95c0 -37 -25 -70 -76 -85c52 -14 84 -53 84 -94c0 -53 -53 -99 -133 -99zM46 281v47h95v260l-89 -21l-11 45l126 33h26v-317h94v-47h-241zM219 -13l-38 23
l197 321c72 117 170 282 192 320l38 -24l-195 -316c-72 -119 -172 -287 -194 -324zM618 39c46 0 78 27 78 62c0 33 -34 63 -78 63c-46 0 -79 -30 -79 -63c0 -35 32 -62 79 -62zM618 205c38 0 70 25 70 58c0 34 -30 58 -70 58c-41 0 -71 -24 -71 -58c0 -33 32 -58 71 -58z
" />
    <glyph glyph-name="threeeighths" unicode="&#x215c;" horiz-adv-x="795" 
d="M617 -7c-82 0 -134 46 -134 99c0 41 32 80 84 94c-51 15 -75 48 -75 85c0 54 53 95 125 95c70 0 125 -41 125 -95c0 -37 -25 -70 -76 -85c52 -14 84 -53 84 -94c0 -53 -53 -99 -133 -99zM176 274c-70 0 -129 36 -129 83c0 21 16 39 36 39s33 -15 33 -34
c0 -8 -4 -18 -10 -22c7 -7 32 -23 70 -23c45 0 80 27 80 63s-31 65 -98 65h-22v44h24c52 0 88 25 88 63c0 35 -32 53 -71 53c-31 0 -51 -11 -58 -19c5 -4 10 -13 10 -22c0 -18 -15 -33 -33 -33c-19 0 -36 16 -36 40c0 32 40 76 119 76c70 0 122 -40 122 -93
c0 -42 -37 -76 -82 -86c45 -9 91 -43 91 -91c0 -62 -60 -103 -134 -103zM221 -13l-38 23l197 321c72 117 170 282 192 320l38 -24l-195 -316c-72 -119 -172 -287 -194 -324zM617 39c46 0 78 27 78 62c0 33 -34 63 -78 63c-46 0 -79 -30 -79 -63c0 -35 32 -62 79 -62z
M617 205c38 0 70 25 70 58c0 34 -30 58 -70 58c-41 0 -71 -24 -71 -58c0 -33 32 -58 71 -58z" />
    <glyph glyph-name="fiveeighths" unicode="&#x215d;" horiz-adv-x="795" 
d="M612 -7c-82 0 -134 46 -134 99c0 41 32 80 84 94c-51 15 -75 48 -75 85c0 54 53 95 125 95c70 0 125 -41 125 -95c0 -37 -25 -70 -76 -85c52 -14 84 -53 84 -94c0 -53 -53 -99 -133 -99zM163 274c-78 0 -121 36 -121 69c0 21 14 37 35 37c22 0 35 -16 35 -33
c0 -6 -2 -12 -5 -16c8 -5 27 -12 53 -12c56 0 88 33 88 79c0 39 -29 70 -84 70c-30 0 -60 -8 -81 -18l-24 12l17 181h201v-49h-157l-9 -88c13 4 32 8 56 8c77 0 133 -44 133 -116c0 -74 -60 -124 -137 -124zM213 -13l-38 23l197 321c72 117 170 282 192 320l38 -24
l-195 -316c-72 -119 -172 -287 -194 -324zM612 39c46 0 78 27 78 62c0 33 -34 63 -78 63c-46 0 -79 -30 -79 -63c0 -35 32 -62 79 -62zM612 205c38 0 70 25 70 58c0 34 -30 58 -70 58c-41 0 -71 -24 -71 -58c0 -33 32 -58 71 -58z" />
    <glyph glyph-name="seveneighths" unicode="&#x215e;" horiz-adv-x="795" 
d="M595 -7c-82 0 -134 46 -134 99c0 41 32 80 84 94c-51 15 -75 48 -75 85c0 54 53 95 125 95c70 0 125 -41 125 -95c0 -37 -25 -70 -76 -85c52 -14 84 -53 84 -94c0 -53 -53 -99 -133 -99zM117 281l149 318h-149v-65h-47v109h245l12 -26l-154 -336h-56zM183 -13l-38 23
l197 321c72 117 170 282 192 320l38 -24l-195 -316c-72 -119 -172 -287 -194 -324zM595 39c46 0 78 27 78 62c0 33 -34 63 -78 63c-46 0 -79 -30 -79 -63c0 -35 32 -62 79 -62zM595 205c38 0 70 25 70 58c0 34 -30 58 -70 58c-41 0 -71 -24 -71 -58c0 -33 32 -58 71 -58z
" />
    <glyph glyph-name="zero.sup" unicode="&#x2070;" 
d="M176 424c-83 0 -140 75 -140 185c0 114 58 188 141 188c82 0 140 -74 140 -186c0 -113 -58 -187 -141 -187zM176 472c53 0 86 57 86 137c0 83 -33 140 -86 140c-52 0 -85 -57 -85 -138c0 -82 33 -139 85 -139z" />
    <glyph glyph-name="one.sup" unicode="&#xb9;" 
d="M63 431v47h95v260l-89 -21l-11 45l126 33h26v-317h94v-47h-241z" />
    <glyph glyph-name="two.sup" unicode="&#xb2;" 
d="M59 431c-2 0 -15 24 -15 24c28 79 87 124 133 156c38 27 66 48 66 85c0 34 -31 59 -70 59c-36 0 -62 -18 -66 -28c10 -4 17 -16 17 -29c0 -18 -15 -33 -33 -33c-25 0 -37 19 -37 44c0 46 48 91 123 91c65 0 120 -42 120 -104c0 -58 -42 -87 -88 -118
c-40 -26 -82 -60 -102 -104h152v59h45v-102h-245z" />
    <glyph glyph-name="three.sup" unicode="&#xb3;" 
d="M171 424c-70 0 -129 36 -129 83c0 21 16 39 36 39s33 -15 33 -34c0 -8 -4 -18 -10 -22c7 -7 32 -23 70 -23c45 0 80 27 80 63s-31 65 -98 65h-22v44h24c52 0 88 25 88 63c0 35 -32 53 -71 53c-31 0 -51 -11 -58 -19c5 -4 10 -13 10 -22c0 -18 -15 -33 -33 -33
c-19 0 -36 16 -36 40c0 32 40 76 119 76c70 0 122 -40 122 -93c0 -42 -37 -76 -82 -86c45 -9 91 -43 91 -91c0 -62 -60 -103 -134 -103z" />
    <glyph glyph-name="four.sup" unicode="&#x2074;" 
d="M143 431v42h67v64h-167l-13 26l192 242l37 -30l-161 -198h112v69l47 20v-87h59v-43h-59v-62h46v-43h-160z" />
    <glyph glyph-name="five.sup" unicode="&#x2075;" 
d="M167 424c-78 0 -121 36 -121 69c0 21 14 37 35 37c22 0 35 -16 35 -33c0 -6 -2 -12 -5 -16c8 -5 27 -12 53 -12c56 0 88 33 88 79c0 39 -29 70 -84 70c-30 0 -60 -8 -81 -18l-24 12l17 181h201v-49h-157l-9 -88c13 4 32 8 56 8c77 0 133 -44 133 -116
c0 -74 -60 -124 -137 -124z" />
    <glyph glyph-name="six.sup" unicode="&#x2076;" 
d="M292 733c0 -22 -14 -35 -33 -35c-23 0 -34 16 -34 32c0 6 2 12 4 16c-7 5 -20 9 -33 9c-57 0 -100 -60 -102 -143c2 3 6 7 9 10c22 22 51 34 85 34c73 0 123 -49 123 -114c0 -66 -52 -118 -130 -118c-41 0 -73 15 -97 39c-30 31 -41 71 -41 130c0 136 71 207 153 207
c37 0 62 -12 78 -27c13 -13 18 -25 18 -40zM182 469c45 0 77 32 77 72c0 41 -29 70 -78 70c-46 0 -80 -30 -80 -69c0 -20 7 -38 21 -51s35 -22 60 -22z" />
    <glyph glyph-name="seven.sup" unicode="&#x2077;" 
d="M103 431l149 318h-149v-65h-47v109h245l12 -26l-154 -336h-56z" />
    <glyph glyph-name="eight.sup" unicode="&#x2078;" 
d="M177 425c-82 0 -134 46 -134 99c0 41 32 80 84 94c-51 15 -75 48 -75 85c0 54 53 95 125 95c70 0 125 -41 125 -95c0 -37 -25 -70 -76 -85c52 -14 84 -53 84 -94c0 -53 -53 -99 -133 -99zM177 637c38 0 70 25 70 58c0 34 -30 58 -70 58c-41 0 -71 -24 -71 -58
c0 -33 32 -58 71 -58zM177 471c46 0 78 27 78 62c0 33 -34 63 -78 63c-46 0 -79 -30 -79 -63c0 -35 32 -62 79 -62z" />
    <glyph glyph-name="nine.sup" unicode="&#x2079;" 
d="M61 490c0 22 14 35 33 35c23 0 34 -15 34 -32c0 -6 -2 -12 -5 -16c8 -4 21 -8 34 -8c56 0 99 58 102 142l-9 -10c-22 -22 -51 -33 -85 -33c-73 0 -123 48 -123 113c0 66 52 119 130 119c41 0 73 -16 97 -40c30 -30 41 -71 41 -130c0 -135 -71 -206 -153 -206
c-37 0 -62 11 -78 27c-13 12 -18 25 -18 39zM171 754c-45 0 -77 -32 -77 -72s29 -69 78 -69c46 0 80 30 80 68c0 21 -7 38 -21 52c-14 13 -35 21 -60 21z" />
    <glyph glyph-name="zero.inf" unicode="&#x2080;" 
d="M176 -146c-83 0 -140 75 -140 185c0 114 58 188 141 188c82 0 140 -74 140 -186c0 -113 -58 -187 -141 -187zM176 -98c53 0 86 57 86 137c0 83 -33 140 -86 140c-52 0 -85 -57 -85 -138c0 -82 33 -139 85 -139z" />
    <glyph glyph-name="one.inf" unicode="&#x2081;" 
d="M63 -139v47h95v260l-89 -21l-11 45l126 33h26v-317h94v-47h-241z" />
    <glyph glyph-name="two.inf" unicode="&#x2082;" 
d="M59 -139c-2 0 -15 24 -15 24c28 79 87 124 133 156c38 27 66 48 66 85c0 34 -31 59 -70 59c-36 0 -62 -18 -66 -28c10 -4 17 -16 17 -29c0 -18 -15 -33 -33 -33c-25 0 -37 19 -37 44c0 46 48 91 123 91c65 0 120 -42 120 -104c0 -58 -42 -87 -88 -118
c-40 -26 -82 -60 -102 -104h152v59h45v-102h-245z" />
    <glyph glyph-name="three.inf" unicode="&#x2083;" 
d="M171 -146c-70 0 -129 36 -129 83c0 21 16 39 36 39s33 -15 33 -34c0 -8 -4 -18 -10 -22c7 -7 32 -23 70 -23c45 0 80 27 80 63s-31 65 -98 65h-22v44h24c52 0 88 25 88 63c0 35 -32 53 -71 53c-31 0 -51 -11 -58 -19c5 -4 10 -13 10 -22c0 -18 -15 -33 -33 -33
c-19 0 -36 16 -36 40c0 32 40 76 119 76c70 0 122 -40 122 -93c0 -42 -37 -76 -82 -86c45 -9 91 -43 91 -91c0 -62 -60 -103 -134 -103z" />
    <glyph glyph-name="four.inf" unicode="&#x2084;" 
d="M143 -139v42h67v64h-167l-13 26l192 242l37 -30l-161 -198h112v69l47 20v-87h59v-43h-59v-62h46v-43h-160z" />
    <glyph glyph-name="five.inf" unicode="&#x2085;" 
d="M167 -146c-78 0 -121 36 -121 69c0 21 14 37 35 37c22 0 35 -16 35 -33c0 -6 -2 -12 -5 -16c8 -5 27 -12 53 -12c56 0 88 33 88 79c0 39 -29 70 -84 70c-30 0 -60 -8 -81 -18l-24 12l17 181h201v-49h-157l-9 -88c13 4 32 8 56 8c77 0 133 -44 133 -116
c0 -74 -60 -124 -137 -124z" />
    <glyph glyph-name="six.inf" unicode="&#x2086;" 
d="M292 163c0 -22 -14 -35 -33 -35c-23 0 -34 16 -34 32c0 6 2 12 4 16c-7 5 -20 9 -33 9c-57 0 -100 -60 -102 -143c2 3 6 7 9 10c22 22 51 34 85 34c73 0 123 -49 123 -114c0 -66 -52 -118 -130 -118c-41 0 -73 15 -97 39c-30 31 -41 71 -41 130c0 136 71 207 153 207
c37 0 62 -12 78 -27c13 -13 18 -25 18 -40zM182 -101c45 0 77 32 77 72c0 41 -29 70 -78 70c-46 0 -80 -30 -80 -69c0 -20 7 -38 21 -51s35 -22 60 -22z" />
    <glyph glyph-name="seven.inf" unicode="&#x2087;" 
d="M103 -139l149 318h-149v-65h-47v109h245l12 -26l-154 -336h-56z" />
    <glyph glyph-name="eight.inf" unicode="&#x2088;" 
d="M177 -145c-82 0 -134 46 -134 99c0 41 32 80 84 94c-51 15 -75 48 -75 85c0 54 53 95 125 95c70 0 125 -41 125 -95c0 -37 -25 -70 -76 -85c52 -14 84 -53 84 -94c0 -53 -53 -99 -133 -99zM177 67c38 0 70 25 70 58c0 34 -30 58 -70 58c-41 0 -71 -24 -71 -58
c0 -33 32 -58 71 -58zM177 -99c46 0 78 27 78 62c0 33 -34 63 -78 63c-46 0 -79 -30 -79 -63c0 -35 32 -62 79 -62z" />
    <glyph glyph-name="nine.inf" unicode="&#x2089;" 
d="M61 -80c0 22 14 35 33 35c23 0 34 -15 34 -32c0 -6 -2 -11 -5 -15c8 -5 21 -9 34 -9c56 0 99 59 102 142l-9 -10c-22 -22 -51 -33 -85 -33c-73 0 -123 48 -123 113c0 66 52 119 130 119c41 0 73 -16 97 -40c30 -30 41 -71 41 -130c0 -135 -71 -206 -153 -206
c-37 0 -62 11 -78 27c-13 12 -18 25 -18 39zM171 184c-45 0 -77 -32 -77 -72s29 -69 78 -69c46 0 80 30 80 68c0 21 -7 38 -21 52c-14 13 -35 21 -60 21z" />
    <glyph glyph-name="zero.tab" horiz-adv-x="530" 
d="M265 -12c-130 0 -222 134 -222 340c0 210 91 342 222 342c132 0 222 -132 222 -342c0 -206 -92 -340 -222 -340zM265 601c-91 0 -145 -109 -145 -271c0 -163 54 -273 145 -273c92 0 146 110 146 273c0 162 -54 271 -146 271z" />
    <glyph glyph-name="one.tab" horiz-adv-x="530" 
d="M75 0v66h163v515l-155 -42l-16 66l205 56h40v-595h160v-66h-397z" />
    <glyph glyph-name="two.tab" horiz-adv-x="530" 
d="M463 488c0 -106 -68 -156 -158 -223c-83 -60 -149 -125 -172 -201h272v102h67v-166h-410l-20 34c36 134 131 217 218 282c73 55 127 97 127 173c0 67 -60 114 -129 114c-61 0 -105 -23 -121 -51l-3 -7c20 -7 32 -27 32 -48c0 -29 -23 -52 -52 -52c-36 0 -58 26 -58 69
c0 21 6 44 19 65c30 50 96 91 188 91c108 0 200 -71 200 -182z" />
    <glyph glyph-name="three.tab" horiz-adv-x="530" 
d="M251 -12c-81 0 -157 36 -193 86c-13 19 -21 40 -21 62c0 35 24 64 56 64c28 0 51 -24 51 -52c0 -19 -11 -35 -26 -42c2 -2 3 -4 5 -5c24 -25 72 -48 128 -48c92 0 152 58 152 123c0 51 -29 89 -79 111c-32 14 -69 21 -116 21h-28v66h32c45 0 83 10 114 29
c37 22 61 56 61 98c0 67 -57 103 -134 103c-56 0 -95 -21 -113 -40l-4 -5c13 -8 26 -22 26 -42c0 -28 -23 -51 -52 -51c-28 0 -55 25 -55 62c0 19 7 39 20 58c30 43 92 84 181 84c115 0 205 -64 205 -168c0 -57 -33 -105 -85 -133c-20 -11 -45 -20 -68 -25
c24 -4 47 -11 68 -21c59 -28 101 -79 101 -147c0 -110 -96 -188 -226 -188z" />
    <glyph glyph-name="four.tab" horiz-adv-x="530" 
d="M201 0v62h114v130h-289l-15 32l329 451l55 -41l-278 -380h198v139l74 32v-171h108v-62h-108v-129h87v-63h-275z" />
    <glyph glyph-name="five.tab" horiz-adv-x="530" 
d="M248 -12c-72 0 -131 22 -165 54c-22 19 -33 42 -33 66c0 30 21 57 55 57c29 0 51 -24 51 -52c0 -11 -4 -25 -12 -33h1c22 -16 56 -25 104 -25c98 0 161 65 161 155c0 76 -56 139 -158 139c-52 0 -107 -16 -140 -32l-33 16l32 325h333v-72h-272l-19 -186
c24 8 57 17 107 17c123 0 224 -76 224 -206c0 -139 -107 -223 -236 -223z" />
    <glyph glyph-name="six.tab" horiz-adv-x="530" 
d="M408 499c-32 0 -53 25 -53 52c0 14 5 24 11 32c-14 12 -40 21 -70 21c-99 0 -171 -116 -178 -284c8 12 17 22 28 32c35 33 86 53 134 53c124 0 208 -87 208 -206c0 -118 -91 -211 -213 -211c-65 0 -120 25 -158 65c-48 52 -71 130 -71 233c0 270 130 384 256 384
c49 0 90 -15 120 -39c24 -20 38 -46 38 -75c0 -37 -24 -57 -52 -57zM276 54c77 0 137 61 137 143c0 83 -60 142 -139 142c-81 0 -143 -62 -143 -141c0 -39 17 -76 43 -102s62 -42 102 -42z" />
    <glyph glyph-name="seven.tab" horiz-adv-x="530" 
d="M131 0l271 594h-289v-107h-70v171h438l14 -30l-283 -628h-81z" />
    <glyph glyph-name="eight.tab" horiz-adv-x="530" 
d="M265 54c83 0 144 53 144 126c0 70 -64 129 -144 129s-144 -59 -144 -129c0 -73 61 -126 144 -126zM265 670c111 0 205 -65 205 -179c0 -66 -48 -126 -119 -149c68 -16 134 -84 134 -165c0 -111 -93 -189 -220 -189s-220 78 -220 189c0 81 66 149 134 165
c-71 23 -119 83 -119 149c0 114 94 179 205 179zM265 371c72 0 129 52 129 116c0 69 -55 117 -129 117s-129 -48 -129 -117c0 -64 57 -116 129 -116z" />
    <glyph glyph-name="nine.tab" horiz-adv-x="530" 
d="M483 372c0 -270 -127 -384 -251 -384c-46 0 -91 14 -123 39c-25 20 -42 46 -42 74c0 37 24 57 52 57c32 0 52 -25 52 -52c0 -13 -4 -25 -11 -33l4 -3c15 -11 40 -17 74 -17c95 0 165 113 172 278c-7 -12 -17 -22 -26 -31c-36 -33 -87 -54 -135 -54
c-124 0 -207 89 -207 209c0 121 90 215 212 215c66 0 120 -25 158 -65c48 -52 71 -130 71 -233zM253 604c-77 0 -137 -62 -137 -146c0 -86 60 -146 140 -146c81 0 142 64 142 144c0 40 -16 78 -42 104c-26 27 -63 44 -103 44z" />
    <glyph glyph-name="period.tab" horiz-adv-x="265" 
d="M133 -9c-36 0 -63 28 -63 64c0 37 27 65 63 65s63 -28 63 -65c0 -36 -27 -64 -63 -64z" />
    <glyph glyph-name="comma.tab" horiz-adv-x="265" 
d="M48 -156l-19 27c68 51 92 99 93 127c-28 5 -53 31 -53 61c0 32 29 59 62 59c35 0 66 -27 66 -79c0 -57 -38 -136 -149 -195z" />
    <glyph glyph-name="colon.tab" horiz-adv-x="265" 
d="M133 -9c-36 0 -63 28 -63 64c0 35 27 64 63 64s63 -29 63 -64c0 -36 -27 -64 -63 -64zM133 256c-36 0 -63 28 -63 64s27 64 63 64s63 -28 63 -64s-27 -64 -63 -64z" />
    <glyph glyph-name="semicolon.tab" horiz-adv-x="265" 
d="M49 -155l-19 28c68 50 91 97 93 125c-29 5 -53 30 -53 60c0 32 28 59 61 59c35 0 66 -27 66 -79c0 -56 -38 -134 -148 -193zM133 256c-36 0 -63 28 -63 64s27 64 63 64s63 -28 63 -64s-27 -64 -63 -64z" />
    <glyph glyph-name="twodotleader.tab" horiz-adv-x="530" 
d="M133 -9c-36 0 -63 28 -63 64c0 37 27 65 63 65s63 -28 63 -65c0 -36 -27 -64 -63 -64zM398 -9c-36 0 -63 28 -63 64c0 37 27 65 63 65s63 -28 63 -65c0 -36 -27 -64 -63 -64z" />
    <glyph glyph-name="periodcentered.tab" horiz-adv-x="265" 
d="M133 189c-36 0 -63 29 -63 65s27 65 63 65s63 -29 63 -65s-27 -65 -63 -65z" />
    <glyph glyph-name="slash.tab" horiz-adv-x="530" 
d="M54 -211l-58 30l443 925l58 -29z" />
    <glyph glyph-name="bar.tab" horiz-adv-x="265" 
d="M102 -200v932h62v-932h-62z" />
    <glyph glyph-name="underscore.tab" horiz-adv-x="530" 
d="M-6 -148v67h542v-67h-542z" />
    <glyph glyph-name="dollar.tab" horiz-adv-x="530" 
d="M255 -102l-60 5l9 102c-98 17 -164 79 -164 133c0 37 25 62 55 62c29 0 50 -22 50 -47c0 -18 -7 -33 -17 -45c15 -17 47 -34 84 -42l22 245c-87 32 -160 79 -160 177c0 94 74 167 189 170l8 90l60 -5l-8 -90c90 -15 152 -67 151 -127c0 -36 -23 -57 -51 -57
c-31 0 -52 24 -52 51c0 16 7 28 14 38c-13 14 -39 27 -71 34l-20 -229c98 -33 182 -80 182 -183c0 -111 -92 -178 -212 -180zM405 174c0 61 -43 93 -117 119l-21 -232c82 2 138 45 138 113zM144 494c0 -56 38 -87 96 -112l19 214c-68 -3 -115 -48 -115 -102z" />
    <glyph glyph-name="sterling.tab" horiz-adv-x="530" 
d="M27 31c0 29 27 63 105 61c31 40 42 85 42 135c0 7 -1 14 -1 22h-106v61h93l-10 33c-14 40 -29 86 -29 141c0 105 80 186 185 186c94 0 161 -58 161 -121c0 -32 -23 -58 -53 -58c-32 0 -52 22 -52 49c0 15 7 29 14 37c-12 16 -35 29 -74 29c-62 0 -112 -50 -112 -122
c0 -50 13 -91 25 -128l13 -46h164v-61h-154c1 -7 1 -15 1 -22c0 -61 -18 -108 -41 -134c26 -1 56 -9 85 -17c49 -16 68 -21 92 -21c44 0 60 18 80 64l53 -24c-20 -72 -59 -106 -130 -106c-39 0 -63 8 -112 26c-35 12 -65 20 -104 21c-23 -32 -58 -49 -85 -49
c-32 0 -50 18 -50 44z" />
    <glyph glyph-name="Euro.tab" horiz-adv-x="530" 
d="M391 507c0 20 11 37 27 47c-13 20 -46 51 -99 51c-79 0 -134 -66 -154 -179h175v-59h-182c-1 -13 -1 -27 -1 -41c0 -16 0 -31 1 -46h182v-61h-173c20 -98 70 -164 150 -164c54 0 94 26 136 77l44 -44c-46 -63 -108 -101 -183 -101c-117 0 -195 95 -221 231h-64v62h56
c-1 15 -2 30 -2 46c0 13 0 27 1 40h-55v62h63c28 152 120 242 232 242c100 0 175 -77 175 -150c0 -34 -21 -64 -58 -64c-29 0 -50 24 -50 51z" />
    <glyph glyph-name="yen.tab" horiz-adv-x="530" 
d="M139 0v60h90v83h-146v58h146v64h-146v59h125l-144 271h-61v63h211v-62h-74l127 -248l126 248h-75v62h210v-63h-63l-143 -271h125v-59h-146v-64h146v-58h-146v-83h90v-60h-252z" />
    <glyph glyph-name="cent.tab" horiz-adv-x="530" 
d="M457 227l-6 -67c-43 -28 -100 -42 -151 -42h-20l-12 -138l-57 5l13 143c-105 28 -171 113 -171 215c0 116 91 212 211 221l10 108l57 -5l-10 -106c83 -14 147 -70 147 -125c0 -32 -22 -59 -54 -59c-21 0 -44 17 -44 44c0 15 7 28 21 39c-12 21 -43 38 -77 44l-29 -325
c7 -1 14 -1 22 -1c47 0 96 15 150 49zM126 341c0 -69 39 -127 106 -151l27 315c-71 -10 -133 -63 -133 -164z" />
    <glyph glyph-name="numbersign.tab" horiz-adv-x="530" 
d="M54 413v58h115l28 186h64l-28 -186h106l28 186h64l-28 -186h114v-58h-123l-26 -178h109l-2 -58h-116l-26 -177h-64l26 177h-105l-26 -177h-64l26 177h-112v58h120l27 178h-107zM223 415l-27 -181h110l26 181h-109z" />
    <glyph glyph-name="paragraph.tab" horiz-adv-x="530" 
d="M318 62h48v534h-48v-534zM22 451c0 127 95 207 229 207h249v-66h-71v-526h71v-66h-326v66h83v172c-11 -1 -7 -1 -20 -1c-121 0 -215 79 -215 214z" />
    <glyph glyph-name="section.tab" horiz-adv-x="530" 
d="M120 141c30 0 51 -19 51 -48c0 -7 0 -15 -5 -24c14 -12 58 -22 88 -22c75 0 114 28 114 63c0 36 -27 52 -135 81c-108 28 -182 62 -182 134c0 57 49 95 104 117c-46 22 -69 52 -69 101c0 63 71 127 191 127c46 0 88 -10 120 -26c37 -19 61 -47 61 -77
c0 -29 -20 -50 -47 -50c-30 0 -51 19 -51 47c0 9 1 18 4 26l-11 6c-20 9 -53 15 -76 15c-75 0 -114 -28 -114 -64s27 -51 135 -80s182 -62 182 -134c0 -57 -47 -94 -102 -117c42 -20 66 -49 66 -99c0 -67 -70 -129 -190 -129c-62 0 -118 17 -150 46c-20 17 -31 36 -31 57
c0 28 20 50 47 50zM263 407l-48 12c-47 -17 -86 -45 -86 -84c0 -35 28 -58 139 -84l46 -12c50 18 88 46 88 84c0 35 -28 58 -139 84z" />
    <glyph glyph-name="degree.tab" horiz-adv-x="530" 
d="M263 384c-107 0 -177 82 -177 180s70 180 177 180s177 -82 177 -180s-70 -180 -177 -180zM263 696c-75 0 -125 -59 -125 -132s50 -132 125 -132s125 59 125 132s-50 132 -125 132z" />
    <glyph glyph-name="percent.tab" horiz-adv-x="530" 
d="M25 524c0 83 48 146 118 146c69 0 118 -63 118 -146c0 -82 -49 -145 -118 -145c-70 0 -118 63 -118 145zM269 134c0 82 49 145 118 145c67 0 117 -63 117 -145c0 -83 -50 -146 -117 -146c-69 0 -118 63 -118 146zM90 -10l-39 24c5 8 141 232 196 324l196 329l38 -24
c-6 -10 -142 -234 -197 -328c-54 -92 -190 -318 -194 -325zM75 524c0 -56 28 -101 68 -101c41 0 68 45 68 101c0 57 -27 102 -68 102c-40 0 -68 -45 -68 -102zM321 134c0 -57 26 -100 66 -100c39 0 65 43 65 100c0 56 -26 99 -65 99c-40 0 -66 -43 -66 -99z" />
    <glyph glyph-name="quotedbl.tab" horiz-adv-x="530" 
d="M150 440l-34 221c-8 46 13 75 48 75s56 -28 49 -75l-35 -221h-28zM351 440l-34 221c-8 46 13 75 48 75s57 -28 49 -75l-35 -221h-28z" />
    <glyph glyph-name="quotesingle.tab" horiz-adv-x="265" 
d="M118 440l-35 221c-7 46 14 75 49 75c34 0 56 -28 49 -75l-35 -221h-28z" />
    <glyph glyph-name="plus.tab" horiz-adv-x="530" 
d="M234 150v156h-155v61h155v156h62v-156h155v-61h-155v-156h-62z" />
    <glyph glyph-name="minus.tab" horiz-adv-x="530" 
d="M79 306v61h372v-61h-372z" />
    <glyph glyph-name="divide.tab" horiz-adv-x="530" 
d="M451 306h-372v61h372v-61zM265 442c-27 0 -50 24 -50 52c0 27 23 51 51 51c26 0 49 -24 49 -51c0 -28 -23 -52 -50 -52zM265 128c-27 0 -50 24 -50 51c0 28 23 51 51 51c26 0 49 -23 49 -51c0 -27 -23 -51 -50 -51z" />
    <glyph glyph-name="equal.tab" horiz-adv-x="530" 
d="M79 391v62h372v-62h-372zM79 207v62h372v-62h-372z" />
    <glyph glyph-name="multiply.tab" horiz-adv-x="530" 
d="M389 164l-125 128l-123 -127l-45 44l125 127l-125 127l45 45l124 -128l124 128l44 -45l-124 -127l125 -127z" />
    <glyph glyph-name="less.tab" horiz-adv-x="530" 
d="M381 126l-290 193v24l290 194l34 -48l-237 -158l237 -157z" />
    <glyph glyph-name="greater.tab" horiz-adv-x="530" 
d="M149 537l290 -194v-24l-290 -193l-34 48l237 157l-237 158z" />
    <glyph glyph-name="plusminus.tab" horiz-adv-x="530" 
d="M234 215v155h-155v62h155v155h62v-155h155v-62h-155v-155h-62zM79 70v62h372v-62h-372z" />
    <glyph glyph-name="zero.idx_P2D" horiz-adv-x="1100" 
d="M550 795c276 0 492 -223 492 -495s-216 -495 -492 -495s-492 223 -492 495s216 495 492 495zM550 749c-249 0 -440 -202 -440 -449s191 -449 440 -449s440 202 440 449s-191 449 -440 449zM549 64c-104 0 -190 99 -190 242c0 146 86 243 192 243c104 0 190 -98 190 -242
c0 -145 -86 -243 -192 -243zM550 124c76 0 124 76 124 182c0 107 -48 183 -124 183s-125 -75 -125 -182s49 -183 125 -183z" />
    <glyph glyph-name="one.idx_P2D" horiz-adv-x="1100" 
d="M550 795c276 0 492 -223 492 -495s-216 -495 -492 -495s-492 223 -492 495s216 495 492 495zM550 749c-249 0 -440 -202 -440 -449s191 -449 440 -449s440 202 440 449s-191 449 -440 449zM690 73h-275v58h106v342l-100 -21l-13 57l146 33h32v-411h104v-58z" />
    <glyph glyph-name="two.idx_P2D" horiz-adv-x="1100" 
d="M550 795c276 0 492 -223 492 -495s-216 -495 -492 -495s-492 223 -492 495s216 495 492 495zM550 749c-249 0 -440 -202 -440 -449s191 -449 440 -449s440 202 440 449s-191 449 -440 449zM394 433c0 17 5 34 15 49c24 38 75 67 144 67c83 0 154 -54 154 -133
c0 -75 -53 -113 -115 -154c-53 -35 -107 -79 -132 -134h200v75h56v-130h-317c-1 0 -18 29 -18 29c36 103 110 160 171 202c52 36 88 63 88 113c0 43 -41 74 -92 74c-37 0 -68 -12 -82 -26l-6 -7c15 -8 23 -24 23 -38c0 -24 -19 -42 -42 -42c-31 0 -47 24 -47 55z" />
    <glyph glyph-name="three.idx_P2D" horiz-adv-x="1100" 
d="M550 795c276 0 492 -223 492 -495s-216 -495 -492 -495s-492 223 -492 495s216 495 492 495zM550 749c-249 0 -440 -202 -440 -449s191 -449 440 -449s440 202 440 449s-191 449 -440 449zM385 171c0 27 19 50 45 50c23 0 41 -19 41 -42c0 -11 -5 -23 -14 -29
c14 -16 51 -28 91 -28c59 0 103 34 103 79c0 31 -17 57 -51 72c-21 9 -49 14 -83 14h-21v55h24c33 0 63 8 84 22c22 15 35 36 35 62c0 44 -40 65 -91 65c-36 0 -61 -9 -75 -22c8 -6 14 -17 14 -29c0 -22 -19 -41 -42 -41c-22 0 -44 20 -44 51c0 13 5 29 17 43
c22 29 67 54 133 54c86 0 154 -48 154 -120c0 -37 -20 -70 -51 -90c-15 -10 -30 -17 -48 -20c16 -4 32 -10 46 -18c36 -20 64 -53 64 -101c0 -79 -74 -132 -169 -132c-58 0 -111 22 -139 53c-14 15 -23 33 -23 52z" />
    <glyph glyph-name="four.idx_P2D" horiz-adv-x="1100" 
d="M550 795c276 0 492 -223 492 -495s-216 -495 -492 -495s-492 223 -492 495s216 495 492 495zM550 749c-249 0 -440 -202 -440 -449s191 -449 440 -449s440 202 440 449s-191 449 -440 449zM491 73v53h83v84h-216l-15 28l249 316l48 -36l-206 -258h140v90l62 25v-114h77
v-53h-77v-81h60v-54h-205z" />
    <glyph glyph-name="five.idx_P2D" horiz-adv-x="1100" 
d="M550 795c276 0 492 -223 492 -495s-216 -495 -492 -495s-492 223 -492 495s216 495 492 495zM550 749c-249 0 -440 -202 -440 -449s191 -449 440 -449s440 202 440 449s-191 449 -440 449zM546 64c-92 0 -157 46 -157 89c0 25 16 45 44 45c25 0 42 -20 42 -41
c0 -8 -3 -17 -7 -21c9 -7 42 -15 75 -15c65 0 102 44 102 103c0 50 -33 91 -101 91c-32 0 -82 -9 -107 -22l-28 16l22 231h249v-61h-196l-12 -116c16 5 51 10 81 10c87 0 156 -56 156 -149c0 -98 -71 -160 -163 -160z" />
    <glyph glyph-name="six.idx_P2D" horiz-adv-x="1100" 
d="M550 795c276 0 492 -223 492 -495s-216 -495 -492 -495s-492 223 -492 495s216 495 492 495zM550 749c-249 0 -440 -202 -440 -449s191 -449 440 -449s440 202 440 449s-191 449 -440 449zM696 465c0 -30 -19 -44 -42 -44c-27 0 -42 20 -42 40c0 8 1 14 5 21
c-11 5 -30 10 -47 10c-72 0 -129 -74 -132 -185c24 32 70 57 119 57c94 0 162 -64 162 -148c0 -85 -71 -152 -166 -152c-52 0 -93 19 -123 49c-38 37 -55 93 -55 169c0 180 94 267 196 267c34 0 64 -9 86 -22c24 -16 39 -37 39 -62zM445 217c0 -26 12 -50 32 -68
c20 -17 47 -28 77 -28c56 0 99 41 99 94c0 54 -43 92 -103 92c-59 0 -105 -39 -105 -90z" />
    <glyph glyph-name="seven.idx_P2D" horiz-adv-x="1100" 
d="M550 795c276 0 492 -223 492 -495s-216 -495 -492 -495s-492 223 -492 495s216 495 492 495zM550 749c-249 0 -440 -202 -440 -449s191 -449 440 -449s440 202 440 449s-191 449 -440 449zM526 73h-69l196 412h-191v-82h-59v137h312l14 -31z" />
    <glyph glyph-name="eight.idx_P2D" horiz-adv-x="1100" 
d="M550 795c276 0 492 -223 492 -495s-216 -495 -492 -495s-492 223 -492 495s216 495 492 495zM550 749c-249 0 -440 -202 -440 -449s191 -449 440 -449s440 202 440 449s-191 449 -440 449zM550 66c-104 0 -170 58 -170 133c0 55 43 103 96 116c-54 16 -86 58 -86 103
c0 78 69 129 160 129c89 0 159 -51 159 -129c0 -45 -33 -87 -86 -103c54 -13 96 -61 96 -116c0 -75 -67 -133 -169 -133zM550 338c50 0 92 34 92 77c0 45 -40 77 -92 77c-54 0 -93 -32 -93 -77c0 -43 42 -77 93 -77zM550 122c61 0 103 36 103 82c0 45 -45 84 -103 84
c-59 0 -104 -39 -104 -84c0 -46 42 -82 104 -82z" />
    <glyph glyph-name="nine.idx_P2D" horiz-adv-x="1100" 
d="M550 795c276 0 492 -223 492 -495s-216 -495 -492 -495s-492 223 -492 495s216 495 492 495zM550 749c-249 0 -440 -202 -440 -449s191 -449 440 -449s440 202 440 449s-191 449 -440 449zM404 148c0 30 20 44 41 44c27 0 42 -20 42 -40c0 -9 -2 -15 -6 -20
c11 -7 29 -11 51 -11c71 0 129 70 131 182c-24 -31 -71 -55 -119 -55c-94 0 -161 62 -161 148s70 153 166 153c51 0 92 -19 121 -48c39 -38 56 -95 56 -171c0 -180 -90 -266 -195 -266c-43 0 -84 15 -107 39c-13 13 -20 28 -20 45zM656 394c0 28 -12 52 -31 70
c-20 18 -47 29 -77 29c-57 0 -100 -42 -100 -95c0 -57 43 -94 104 -94c58 0 104 39 104 90z" />
    <glyph glyph-name="space" unicode=" " horiz-adv-x="227" 
 />
    <glyph glyph-name="uni00A0" unicode="&#xa0;" horiz-adv-x="227" 
 />
    <glyph glyph-name="emspace" unicode="&#x2003;" horiz-adv-x="1000" 
 />
    <glyph glyph-name="enspace" unicode="&#x2002;" horiz-adv-x="500" 
 />
    <glyph glyph-name="threeperemspace" unicode="&#x2004;" horiz-adv-x="333" 
 />
    <glyph glyph-name="fourperemspace" unicode="&#x2005;" horiz-adv-x="250" 
 />
    <glyph glyph-name="thinspace" unicode="&#x2009;" horiz-adv-x="133" 
 />
    <glyph glyph-name="hairspace" unicode="&#x200a;" horiz-adv-x="75" 
 />
    <glyph glyph-name="space.tab" horiz-adv-x="265" 
 />
    <glyph glyph-name="figurespace" unicode="&#x2007;" horiz-adv-x="530" 
 />
    <glyph glyph-name="NUL" horiz-adv-x="0" 
 />
    <glyph glyph-name="hfjslug" horiz-adv-x="694" 
d="M644 -200h-208l-8 14h-163l-8 -14h-207v303c18 0 32 14 32 32c0 17 -14 32 -32 32v554h100l30 79h334l29 -79h101v-921zM400 563v-172h15v78h38v14h-38v66h43v14h-58zM184 563v-172h15v79h47v-79h15v172h-15v-79h-47v79h-15zM460 394c5 -2 14 -4 21 -4c20 0 31 11 31 36
v137h-16v-137c0 -16 -5 -22 -16 -22c-6 0 -15 3 -20 5v-15zM371 465l-13 3c-2 -9 -5 -21 -8 -30h-1l-16 31c13 12 23 26 23 42c0 15 -9 31 -27 31c-17 0 -28 -16 -28 -31s6 -24 14 -39c-15 -12 -23 -28 -23 -47c0 -22 12 -37 29 -37c13 0 23 9 29 24h1l12 -24l12 6l-17 32
c5 12 9 25 13 39zM523 323v-46h8v12l8 8l15 -20h10l-20 26l18 20h-10l-20 -24h-1v24h-8zM488 292l10 -15h9l-12 17c5 2 10 6 10 14c0 9 -7 15 -17 15h-20v-46h8v15h12zM426 276c14 0 24 11 24 24c0 12 -10 24 -24 24s-24 -12 -24 -24c0 -13 10 -24 24 -24zM370 301l-13 22
h-9l18 -29v-17h8v17l18 29h-9zM193 323v-46h34v7h-26v13h23v7h-23v12h26v7h-34zM132 323v-46h8v32l25 -32h7v46h-8v-32l-25 32h-7zM241 323l14 -47h8l11 34h1l11 -34h8l14 47h-8l-10 -35h-1l-11 35h-7l-11 -35h-1l-10 35h-8zM327 479c-7 13 -12 22 -12 32s6 19 14 19
s13 -9 13 -19c0 -12 -5 -21 -15 -32zM342 423c-5 -13 -12 -21 -20 -21c-9 0 -16 10 -16 25c0 13 7 26 16 35zM487 299h-11v17h11c6 0 10 -3 10 -8s-4 -9 -10 -9zM426 283c-10 0 -16 8 -16 17c0 8 6 17 16 17s16 -9 16 -17c0 -9 -6 -17 -16 -17z" />
    <glyph glyph-name="A.sc" horiz-adv-x="582" 
d="M149 508h285v-59h-75l146 -389h62v-60h-211v59h79l-41 109h-209l-40 -109h79v-59h-209v60h62l146 389h-74v59zM289 453l-82 -225h165z" />
    <glyph glyph-name="B.sc" horiz-adv-x="530" 
d="M199 59h98c72 0 111 35 111 86c0 58 -44 86 -122 86h-87v-172zM199 285h84c74 0 111 34 111 85c0 50 -38 79 -110 79h-85v-164zM294 0h-251v60h86v389h-86v59h242c128 0 180 -59 180 -129c0 -63 -40 -102 -95 -118c67 -18 109 -55 109 -121c0 -82 -63 -140 -185 -140z
" />
    <glyph glyph-name="C.sc" horiz-adv-x="556" 
d="M465 121l42 -47c-51 -53 -125 -84 -201 -84c-156 0 -261 116 -261 264c0 150 112 266 266 266c109 0 192 -67 192 -129c0 -34 -21 -58 -52 -58c-30 0 -50 19 -50 48c0 15 8 27 17 33c-15 19 -53 43 -110 43c-110 0 -191 -85 -191 -202c0 -119 82 -201 189 -201
c64 0 116 25 159 67z" />
    <glyph glyph-name="D.sc" horiz-adv-x="604" 
d="M199 60h73c144 0 216 81 216 200c0 118 -86 189 -222 189h-67v-389zM263 0h-220v60h86v389h-86v59h223c180 0 293 -96 293 -249c0 -154 -106 -259 -296 -259z" />
    <glyph glyph-name="E.sc" horiz-adv-x="512" 
d="M456 0h-413v60h86v389h-86v59h413v-151h-66v92h-191v-164h165v-59h-165v-167h192v91h65v-150z" />
    <glyph glyph-name="F.sc" horiz-adv-x="491" 
d="M289 0h-246v60h86v389h-86v59h411v-151h-66v92h-189v-170h162v-58h-162v-161h90v-60z" />
    <glyph glyph-name="G.sc" horiz-adv-x="589" 
d="M311 457c-115 0 -194 -88 -194 -205c0 -119 86 -199 188 -199c56 0 104 15 144 43v101h-137v58h205v-255h-66v41c-40 -30 -90 -50 -157 -50c-128 0 -249 97 -249 260c0 161 121 268 270 268c119 0 197 -66 197 -124c0 -34 -21 -56 -51 -56c-29 0 -50 18 -50 46
c0 15 8 27 15 33c-19 18 -60 39 -115 39z" />
    <glyph glyph-name="H.sc" horiz-adv-x="668" 
d="M43 0v60h86v389h-86v59h243v-59h-87v-163h270v163h-87v59h243v-59h-86v-389h86v-60h-243v60h87v165h-270v-165h87v-60h-243z" />
    <glyph glyph-name="I.sc" horiz-adv-x="333" 
d="M290 0h-247v60h89v389h-89v59h247v-59h-89v-389h89v-60z" />
    <glyph glyph-name="J.sc" horiz-adv-x="447" 
d="M180 54c25 0 48 8 64 25c20 22 29 54 29 101v269h-89v59h238v-59h-80v-271c0 -62 -16 -112 -47 -144c-29 -29 -68 -44 -115 -44c-86 0 -155 58 -155 132c0 38 22 63 55 63c25 0 47 -19 47 -46c0 -18 -11 -36 -27 -40c5 -18 32 -45 80 -45z" />
    <glyph glyph-name="K.sc" horiz-adv-x="587" 
d="M496 448l-166 -165l155 -223h83v-60h-126l-162 237l-80 -78v-99h85v-60h-242v60h88v389h-88v59h235v-59h-78v-213l216 213h-75v59h219v-60h-64z" />
    <glyph glyph-name="L.sc" horiz-adv-x="483" 
d="M385 60v97h66v-157h-408v60h86v389h-86v59h245v-59h-89v-389h186z" />
    <glyph glyph-name="M.sc" horiz-adv-x="742" 
d="M534 508h154v-59h-86l19 -389h86v-60h-242v60h86l-12 332l-159 -315h-20l-160 315l-12 -332h88v-60h-241v60h86l17 389h-86v59h156l164 -323z" />
    <glyph glyph-name="N.sc" horiz-adv-x="656" 
d="M190 508l284 -371v312h-86v59h238v-59h-86v-452h-44l-300 395v-332h85v-60h-238v60h86v389h-86v59h147z" />
    <glyph glyph-name="O.sc" horiz-adv-x="614" 
d="M307 521c156 0 261 -118 261 -265c0 -149 -105 -266 -262 -266c-156 0 -261 117 -261 266c0 147 106 265 262 265zM306 54c111 0 191 81 191 201c0 118 -80 202 -190 202c-111 0 -190 -83 -190 -202c0 -120 80 -201 189 -201z" />
    <glyph glyph-name="P.sc" horiz-adv-x="498" 
d="M43 508h227c109 0 193 -62 193 -161c0 -109 -79 -169 -197 -169c-24 0 -53 0 -67 1v-119h88v-60h-244v60h86v389h-86v59zM271 237c76 0 122 42 122 109c0 64 -53 103 -124 103h-70v-210c14 -1 44 -2 72 -2z" />
    <glyph glyph-name="Q.sc" horiz-adv-x="614" 
d="M505 -110c-74 0 -122 46 -166 74c-24 16 -45 22 -74 28c-55 12 -102 32 -141 69c-49 46 -79 117 -79 195c0 147 106 265 262 265s261 -118 261 -265c0 -122 -72 -221 -183 -250c10 -4 21 -10 35 -19c30 -20 51 -32 81 -32c23 0 41 6 67 24l32 -55
c-29 -26 -60 -34 -95 -34zM306 54c109 0 191 85 191 201c0 118 -80 202 -190 202c-111 0 -190 -83 -190 -202c0 -61 23 -114 58 -149c33 -33 79 -52 131 -52z" />
    <glyph glyph-name="Q.sc_alt" horiz-adv-x="614" 
d="M459 -85l-58 91c-29 -10 -61 -16 -95 -16c-156 0 -261 117 -261 266c0 147 106 265 262 265s261 -118 261 -265c0 -94 -41 -174 -111 -222l55 -86zM306 54c21 0 41 3 59 8l-53 85l53 35l57 -91c46 35 75 92 75 164c0 118 -80 202 -190 202c-111 0 -190 -83 -190 -202
c0 -120 80 -201 189 -201z" />
    <glyph glyph-name="R.sc" horiz-adv-x="545" 
d="M271 449h-72v-187c19 -1 46 -2 71 -2c76 0 129 35 129 97c0 59 -49 92 -128 92zM199 201v-141h85v-60h-241v60h86v389h-86v59h231c118 0 195 -54 195 -150c0 -68 -43 -118 -105 -140l94 -158h76v-60h-126l-113 202c-17 -2 -28 -2 -36 -2c-16 0 -42 0 -60 1z" />
    <glyph glyph-name="S.sc" horiz-adv-x="470" 
d="M316 405c0 13 5 25 10 32c-13 12 -49 23 -87 23c-63 0 -104 -30 -104 -76c0 -51 59 -70 115 -92c88 -32 172 -61 172 -153c0 -96 -81 -149 -188 -149c-108 0 -187 56 -187 114c0 34 18 56 48 56c29 0 50 -21 50 -46c0 -13 -5 -26 -11 -35c16 -15 53 -30 102 -30
c72 0 117 31 117 84c0 50 -62 71 -116 91c-92 33 -173 62 -173 154c0 83 71 141 178 141c98 0 171 -48 171 -109c0 -31 -21 -51 -46 -51c-32 0 -51 22 -51 46z" />
    <glyph glyph-name="T.sc" horiz-adv-x="533" 
d="M143 0v60h88v389h-129v-95h-65v154h459v-154h-66v95h-129v-389h88v-60h-246z" />
    <glyph glyph-name="U.sc" horiz-adv-x="614" 
d="M306 -7c-123 0 -197 67 -197 196v260h-81v59h235v-59h-85v-259c0 -87 50 -136 129 -136c80 0 130 47 130 134v261h-85v59h235v-59h-81v-257c0 -130 -78 -199 -200 -199z" />
    <glyph glyph-name="V.sc" horiz-adv-x="562" 
d="M258 -8l-186 457h-62v59h213v-59h-77l137 -351l138 351h-77v59h208v-59h-61l-187 -457h-46z" />
    <glyph glyph-name="W.sc" horiz-adv-x="785" 
d="M222 -10l-140 459h-71v59h225v-59h-80l98 -336l125 329h33l125 -328l97 335h-80v59h220v-59h-71l-140 -459h-45l-126 331l-125 -331h-45z" />
    <glyph glyph-name="X.sc" horiz-adv-x="574" 
d="M550 61v-61h-216v59h70l-120 162l-121 -162h78v-59h-218v61h66l155 199l-145 189h-67v59h217v-59h-70l109 -150l110 150h-70v59h214v-59h-71l-143 -189l156 -199h66z" />
    <glyph glyph-name="Y.sc" horiz-adv-x="529" 
d="M523 508v-59h-66l-158 -258v-131h88v-60h-245v60h87v131l-157 258h-66v59h217v-59h-76l119 -202l120 202h-77v59h214z" />
    <glyph glyph-name="Z.sc" horiz-adv-x="498" 
d="M44 0v39l312 411h-236v-93h-63v151h398v-38l-312 -411h250v92h64v-151h-413z" />
    <glyph glyph-name="Aacute.sc" horiz-adv-x="582" 
d="M149 508h285v-59h-75l146 -389h62v-60h-211v59h79l-41 109h-209l-40 -109h79v-59h-209v60h62l146 389h-74v59zM289 453l-82 -225h165zM261 573l-19 24l121 126c13 14 28 23 43 23c21 0 40 -16 40 -43c0 -14 -13 -31 -34 -44z" />
    <glyph glyph-name="Abreve.sc" horiz-adv-x="582" 
d="M149 508h285v-59h-75l146 -389h62v-60h-211v59h79l-41 109h-209l-40 -109h79v-59h-209v60h62l146 389h-74v59zM289 578c-73 0 -133 52 -159 136l49 21c22 -57 66 -88 110 -88c48 0 89 35 110 88l49 -21c-25 -84 -86 -136 -159 -136zM289 453l-82 -225h165z" />
    <glyph glyph-name="Acircumflex.sc" horiz-adv-x="582" 
d="M149 508h285v-59h-75l146 -389h62v-60h-211v59h79l-41 109h-209l-40 -109h79v-59h-209v60h62l146 389h-74v59zM167 570l-31 37l154 147l154 -147l-31 -37l-123 93zM289 453l-82 -225h165z" />
    <glyph glyph-name="Adieresis.sc" horiz-adv-x="582" 
d="M149 508h285v-59h-75l146 -389h62v-60h-211v59h79l-41 109h-209l-40 -109h79v-59h-209v60h62l146 389h-74v59zM289 453l-82 -225h165zM378 589c-32 0 -57 26 -57 57c0 32 26 58 57 58c32 0 56 -26 56 -58c0 -31 -25 -57 -56 -57zM203 589c-31 0 -56 26 -56 57
c0 32 26 58 57 58s56 -26 56 -58c0 -31 -25 -57 -57 -57z" />
    <glyph glyph-name="AE.sc" horiz-adv-x="709" 
d="M242 0v59h84v113h-153l-58 -113h74v-59h-199v60h55l203 389h-68v59h472v-151h-65v92h-191v-164h165v-59h-165v-167h191v91h66v-150h-411zM315 449l-112 -218h123v218h-11z" />
    </font>
</defs>
</svg>
